<?xml version="1.0" encoding="utf-8"?>
<!-- Star Trek: Discovery is so sanctimonious and preachy  -->
<!DOCTYPE svg PUBLIC "-//W3C//DTD SVG 1.1//EN" "http://www.w3.org/Graphics/SVG/1.1/DTD/svg11.dtd">
<svg version="1.1" id="Layer_1" xmlns="http://www.w3.org/2000/svg" xmlns:xlink="http://www.w3.org/1999/xlink" x="0px" y="0px"
	 width="791px" height="256px" viewBox="0 0 791 256" enable-background="new 0 0 791 256" xml:space="preserve">
<path fill-rule="evenodd" clip-rule="evenodd" fill="#D12824" d="M243.58,98.735l-12.72,61.55l29.62-0.25l25-128.31
	c2.289-11.66-1.131-17.86-10.24-18.62l-65.71,0.25l5,4.22l-29.52,142.21h27.8l10.05-48.64l-16.66-0.25L243.58,98.735z
	 M240.48,27.505l17.62-0.25l-11.43,55.35l-19.28,7.44L240.48,27.505z M18.43,159.795h43.03c9.5,0.4,15.51-5.26,18-16.98
	l16.28-80.419L44.6,80.265l10.85-8.94l9.15-41.4l15.43,0.3l-6.29,28l25.43-9.24l4.29-21.74c1.71-9.03-2.67-13.9-13.15-14.59H32.88
	l4.29,8.04l-16.86,82.51l55.15-20.85l-15.44,11.91l-10.28,50.34l-16-0.301l6.57-34.25l-23.15,7.74l-6.33,30.65l0.03,0.01
	C10.12,155.505,12.65,159.285,18.43,159.795z M202.08,13.045l-89.29-0.49l-2.14,14.14l29.05,0.5l-27.38,132.529l29.52-0.489
	l25.71-128.32l-13.57-4.46l45.48,0.24L202.08,13.045z M512.85,13.605l-89.279-0.5l-2.141,14.15l29.051,0.5l-27.391,132.53l29.53-0.5
	l25.71-128.31l-13.57-4.47l45.471,0.25L512.85,13.605z M753.061,13.205l-11.221,56.81l-22.05,7.87l13.271-64.68l-34.49-0.21
	l4.08,7.02l-28.57,140.209l29.39,0.42l11.63-62.759l-17.76,1.06l29.801-9.79l1.43,71.069l26.74,0.42l-4.49-79.569l13.26-4.68
	l13.47-63.19H753.061z M314.96,103.505l1.66-0.6l19.71-7.15l-14.28,64.94l29.431-0.301l18.859-93.229L318.9,84.435l12-57.49
	l14.58-0.29l-7.61,36.82l-14.681,12.03l40.86-14.3l6.86-34.26c0.34-8.5-2.801-12.97-9.43-13.4H298.9l4.57,5.06L274.23,160.186
	l28.98,0.199L314.96,103.505z M540.04,103.205l1.649-0.6l19.721-7.15l-14.29,64.939l29.43-0.299l18.86-93.23l-51.44,17.27
	l12.011-57.48l14.569-0.3l-7.61,36.83l-14.68,12.02l40.86-14.3l6.86-34.25c0.34-8.51-2.801-12.98-9.431-13.41h-62.58l4.57,5.07
	l-29.24,141.57l28.979,0.2L540.04,103.205z M687.55,12.995l-71.03,0.64l5.311,3.19l-25.52,126.16
	c-1.121,11.37,3.299,17.18,13.27,17.45h47.51l2.939-14.25l-46.979,0.209l12.25-4.68l9.39-48.09l-17.149,0.22l48.979-16.39l2.86-15.1
	l-30.2,9.36l9.79-44.68h35.681L687.55,12.995z"/>
<path fill-rule="evenodd" clip-rule="evenodd" fill="#383431" d="M240.222,245.482h21.59c4.78,0.199,7.79-2.641,9.04-8.521
	l8.169-40.37l-25.669,8.971l5.45-4.48l4.59-20.78l7.74,0.15l-3.15,14.05l12.76-4.63l2.15-10.91c0.859-4.54-1.341-6.979-6.591-7.33
	h-28.83l2.15,4.04l-8.46,41.41l27.68-10.471l-7.75,5.98l-5.16,25.27l-8.03-0.149l3.3-17.2l-11.62,3.891c0,0,0.02,0-3.16,15.39
	C236.051,243.322,237.312,245.223,240.222,245.482z M234.381,171.771h-17.4l2.29,2.521l-14.65,70.96l14.52,0.1L234.381,171.771z
	 M357.732,238.531l-14.551-0.129c0,0,5.78-2.211,5.791-2.2l11.6-56.05h9.25L357.732,238.531z M363.761,245.352
	c4.78,0.2,7.79-2.64,9.04-8.52l11.86-57.73c0.859-4.539-1.34-6.979-6.6-7.33h-23.041c-4.77-0.199-7.779,2.641-9.029,8.521
	l-1.2,5.899l-10.66,51.83c-0.86,4.53,1.341,6.98,6.591,7.33H363.761z M287.271,245.212l31.461,0.19c0,0,3-14.53,6.229-30.03
	l-12.489-1.11l-5.011,24.221h-9.25l11.58-55.891l-2.29-2.529l12.04,0.039l-1.94,9.391l-2.84,2.93l15.36-1.84l2.28-11.54
	c0.859-4.53-1.34-6.97-6.601-7.319h-31.159l2.289,2.52c0,0,0.021,0.01-13.459,65.27
	C283.101,243.052,284.361,244.952,287.271,245.212z M399.582,235.281l13.1-63.239h-17.39l2.291,2.53l-13.13,63.58l21.271,11.189
	l17.039-15.35l12.82-61.95h-14.58l-1.15,5.569l-11.971,58l2.861,5.541L399.582,235.281z M560.502,171.762l2.289,2.53l-7.209,34.95
	l-9.35,3.529l8.479-41.01h-17.389l2.289,2.53l-10.779,52.21l25.15-9.5l-3.871,18.7l4.43,2.92h-21.459l-1.371,6.64l23.711,0.051
	c4.77,0.209,7.779-2.631,9.029-8.521l12.33-59.649h157.221l15.219-5.371L560.502,171.762z M178.392,238.531l-14.55-0.139
	c0,0,0,0.01,5.78-2.201l1.79-8.67l0.03-0.029l9.79-47.35h9.24L178.392,238.531z M24.492,171.771l15.22,5.371h127.56l-14.07,68.109
	l31.22,0.1c4.77,0.2,7.79-2.64,9.03-8.529l11.87-57.73c0.86-4.529-1.34-6.97-6.6-7.32H24.492z M512.381,179.982l-3.449,16.709
	l-7.369,6.041l20.51-7.181l3.439-17.19c0.17-4.27-1.4-6.51-4.73-6.729h-31.41l2.301,2.54l-14.68,71.061l14.549,0.1l5.891-28.551
	l0.83-0.299l9.9-3.59l-7.17,32.59l14.77-0.15l9.459-46.79l-25.809,8.67l5.689-27.239L512.381,179.982z M460.982,179.982h17.92
	l1.74-8.42l-35.65,0.319l2.66,1.601l-12.801,63.319c-0.561,5.71,1.66,8.63,6.66,8.761h23.84l1.48-7.15l-23.58,0.1l6.15-2.35
	l4.709-24.131l-8.609,0.111l24.59-8.221l1.43-7.59l-15.16,4.699l4.621-21.069V179.982z"/>
</svg>
