<?xml version="1.0" encoding="UTF-8" standalone="no"?>

<svg
   version="1.0"
   width="702"
   height="182"
   id="svg2"
   xmlns="http://www.w3.org/2000/svg"
   xmlns:svg="http://www.w3.org/2000/svg">
  <defs
     id="defs13" />
  <g
     id="layer1">
    <path
       d="M 116.36935,77.488885 H 6.6564348 L 22.498537,61.392565 h 77.895773 c -0.526525,-4.45306 -3.607395,-10.18941 -9.242575,-13.46965 -4.39976,-2.50064 -10.47283,-4.6497 -18.21925,-6.44716 C 56.738465,37.961961 45.297413,34.017844 38.609258,29.643419 32.97669,26.050965 30.160396,22.028186 30.160396,17.575084 c 0,-4.610355 1.71569,-8.594988 5.14707,-11.953914 3.43138,-3.358803 7.655806,-5.03824 12.673299,-5.038312 H 112.5418 l -15.842115,13.477195 -36.17659,0.586445 h -3.56567 l -3.299764,-0.118011 c -2.551752,5.3e-5 -4.46555,0.234281 -5.741352,0.702645 -1.275887,0.468487 -1.91383,1.445282 -1.913809,2.930379 -2.1e-5,0.700903 1.870136,1.715844 5.610419,3.044802 3.740262,1.329047 11.067016,3.359501 21.980346,6.091381 12.84983,3.046613 22.79613,6.914436 29.838925,11.603471 8.62469,5.85721 12.93708,15.18606 12.93716,24.24713 z m 74.01911,-76.906027 -16.3699,14.06364 h -21.66602 l -0.26591,62.842387 h -15.97508 l 0.39889,-62.842387 H 99.673085 L 114.99144,0.582858 Z m -5.20538,54.484437 -9.51345,13.70972 c -0.26325,0.70323 -0.61447,1.40646 -1.05361,2.10971 -0.43917,0.70325 -0.96764,1.48515 -1.58542,2.34572 l -2.80485,4.25644 h -17.64458 l 51.73882,-77.374462 53.90637,77.374462 h -19.07357 l -15.15807,-22.37161 z m 8.45956,-12.39567 21.05905,0.006 -10.51467,-15.14377 z m 139.03345,34.81726 h -17.46254 l 1.00069,-5.66529 0.7897,-5.27075 c -7e-5,-7.81192 -4.04857,-14.41285 -12.1455,-19.8028 -8.09702,-5.38988 -18.43885,-8.08485 -31.02547,-8.08488 l 23.23536,-20.503654 0.52781,-0.940439 c -6e-5,-0.700797 -1.07782,-1.40285 -3.23328,-2.106157 -2.15558,-0.703182 -4.29027,-1.054791 -6.40414,-1.054862 h -18.21923 l -0.26188,63.428832 h -17.2966 L 252.31398,0 h 35.91066 c 7.56912,7.2e-5 13.92827,1.366621 19.07741,4.099666 5.14903,2.733169 7.72358,5.974624 7.72363,9.724385 -5e-5,1.876161 -0.92405,3.946556 -2.77196,6.211183 l -3.56567,3.397003 -6.33767,5.274314 c 9.94625,3.826159 17.42815,9.020593 22.44568,15.583354 2.55164,3.59251 4.53122,7.77144 5.93877,12.53677 1.40739,4.76536 2.11115,10.03846 2.11122,15.81935 z M 460.76072,0.973817 444.39082,15.037456 h -25.74547 l -0.26591,62.451429 h -15.97505 l 0.39887,-62.451429 -31.05816,1.7e-5 15.31836,-14.063639 z m 74.04029,76.515068 h -16.93197 l 0.66076,-4.21946 0.78969,-5.27074 c -5e-5,-7.81192 -4.04855,-14.41284 -12.14548,-19.8028 -8.09702,-5.38988 -18.43886,-8.08485 -31.02548,-8.08489 l 23.23536,-20.503646 0.52781,-0.94044 c -6e-5,-0.700797 -1.07781,-1.40285 -3.23328,-2.106157 -2.15558,-0.703182 -4.29028,-1.05479 -6.40414,-1.054862 h -18.21923 l -0.26189,61.982995 h -17.29658 l 0.13295,-76.043047 h 35.91067 c 7.56912,7.2e-5 13.92825,1.36662 19.07741,4.099664 5.14903,2.73317 7.72358,5.974628 7.72364,9.724386 -6e-5,1.876163 -0.92406,3.946558 -2.77197,6.211184 l -3.56568,3.397002 -6.33765,5.274314 c 9.94624,3.826162 17.42814,9.020597 22.44567,15.583337 2.55163,3.59254 4.53123,7.77145 5.93879,12.53678 1.40739,4.76536 2.11111,10.03848 2.11118,15.81936 z m 13.10434,-48.736011 h 58.95148 l -14.32605,15.937361 -44.75435,-0.35401 c 2.59659,10.50099 7.51704,18.23514 18.87594,18.96899 h 30.05958 c 3.07813,2e-5 6.81837,-0.39093 11.22085,-1.17287 l 6.07172,-1.28727 -17.29257,16.5202 h -33.62124 c -9.33124,0 -17.27511,-3.71049 -23.83163,-11.13147 -6.55658,-7.42096 -9.83484,-20.49108 -9.83484,-31.037331 0,-9.451995 3.32258,-17.634016 9.96779,-24.546105 C 546.0372,3.738407 553.93678,0.2824 563.09071,0.282328 h 52.74279 l -13.00455,13.82405 -36.17658,0.236003 c -4.13649,7e-5 -7.89891,1.308206 -11.2873,3.92446 -3.38842,2.616343 -5.875,6.111682 -7.45972,10.486033 z m 93.36569,-5.202626 26.00734,-22.96739 h 23.36832 l -31.81716,27.537265 c 10.91321,1.952437 19.14316,6.912069 24.68983,14.878912 5.192,7.57833 7.78802,22.06989 7.78808,34.48985 h -16.3699 l 0.5278,-10.3496 c -6e-5,-7.96926 -2.68472,-14.45337 -8.054,-19.45237 -6.16176,-5.70218 -14.87519,-8.55328 -26.14031,-8.55332 v 38.23168 h -16.36989 l 0.13295,-76.19599 h 16.23694 z"
       id="text2396"
       style="font-style:normal;font-variant:normal;font-weight:normal;font-stretch:normal;font-size:65.3327px;line-height:100%;font-family:FederationDS9Title;-inkscape-font-specification:FederationDS9Title;text-align:start;writing-mode:lr-tb;text-anchor:start;fill:#f2a700;fill-opacity:1;stroke:none;stroke-width:1px;stroke-linecap:butt;stroke-linejoin:miter;stroke-opacity:1" />
    <path
       d="m 54.526919,151.78036 c -3.2e-5,6.8087 -2.19068,12.60142 -6.571911,17.37811 -4.381306,4.77673 -9.633214,7.16507 -15.75567,7.16507 L 4.8848028,176.48303 V 127.00036 H 32.199338 c 6.175632,7e-5 11.440799,2.41459 15.795533,7.24361 4.354659,4.8291 6.532016,10.67455 6.532048,17.53639 z m -9.502683,0 c -4.2e-5,-4.17024 -1.398597,-7.75942 -4.195643,-10.76755 -2.79713,-3.00807 -6.14871,-4.51211 -10.054794,-4.51216 H 14.544547 v 30.32262 h 16.229252 c 3.906084,0 7.257664,-1.47786 10.054794,-4.43362 2.797046,-2.95574 4.195601,-6.49217 4.195643,-10.60929 z m 22.368669,-5.54264 h 37.370515 l -10.609295,10.76875 -26.83854,-0.23919 c 0.79088,2.85107 2.21559,5.27928 4.27415,7.28467 2.1117,1.84756 4.4602,2.77132 7.04549,2.77132 h 21.774295 c 1.84588,0 4.08888,-0.26416 6.72895,-0.7925 l 3.64114,-0.86982 -10.37009,11.16259 H 76.499345 c -5.5958,0 -10.35963,-2.50714 -14.29148,-7.52145 -3.93188,-5.01429 -5.89783,-11.08445 -5.89783,-18.21048 0,-6.38664 1.99252,-11.91517 5.97755,-16.58562 3.98503,-4.67037 8.72227,-7.00556 14.21176,-7.00562 h 33.647235 l -9.81681,9.34081 -21.694545,0.15947 c -2.4806,5e-5 -4.73687,0.88396 -6.76884,2.65172 -2.03199,1.76785 -3.52314,4.12964 -4.47348,7.08535 z m 55.822605,0 h 37.3705 l -10.60929,10.76875 -26.83853,-0.23919 c 0.79088,2.85107 2.2156,5.27928 4.27416,7.28467 2.11169,1.84756 4.46018,2.77132 7.04548,2.77132 h 21.77428 c 1.84591,0 4.08888,-0.26416 6.72898,-0.7925 l 3.64113,-0.86982 -10.37011,11.16259 h -23.91014 c -5.59582,0 -10.35965,-2.50714 -14.2915,-7.52145 -3.93189,-5.0143 -5.89782,-11.08445 -5.89782,-18.21048 0,-6.38664 1.99252,-11.91518 5.97755,-16.58562 3.985,-4.67037 8.72226,-7.00556 14.21177,-7.00563 h 33.64723 l -9.81681,9.34082 -21.69456,0.15947 c -2.4806,5e-5 -4.73687,0.88395 -6.76883,2.65172 -2.03198,1.76784 -3.52316,4.12963 -4.47349,7.08535 z m 55.90233,10.9258 -0.0797,19.63602 -10.37009,3.56138 0.0797,-52.57046 21.37564,-0.0798 c 3.6419,5e-5 6.94074,1.02932 9.89652,3.08783 3.27143,2.37593 4.90715,5.51691 4.9072,9.42297 -5e-5,1.00192 -2.21645,2.98074 -6.64923,5.93647 -5.01434,3.2731 -11.401,6.94161 -19.16004,11.00554 z m 0.0797,-11.39937 10.84609,-5.62238 c -0.26421,-0.57983 -1.00274,-1.10735 -2.21562,-1.58256 l -3.32702,-1.26848 h -5.30345 z m 111.79249,30.95564 H 224.2016 l 9.50029,-9.50027 h 47.70815 c -0.31576,-3.00889 -2.16332,-5.62155 -5.54264,-7.83798 -2.63849,-1.68968 -6.2804,-3.14177 -10.92581,-4.35631 -9.71132,-2.37423 -16.57236,-5.03924 -20.58314,-7.99502 -3.37777,-2.42738 -5.06667,-5.14555 -5.06667,-8.15449 0,-3.11518 1.02887,-5.80757 3.08664,-8.07718 2.05774,-2.26951 4.59105,-3.40429 7.59998,-3.40435 h 38.71631 l -9.5003,9.10646 -21.69455,0.39625 h -2.13829 l -1.97883,-0.0797 c -1.53023,3e-5 -2.6779,0.15828 -3.44301,0.47476 -0.76513,0.31656 -1.14768,0.97656 -1.14766,1.98002 -2e-5,0.47361 1.12148,1.15939 3.36448,2.05736 2.24297,0.89803 6.63672,2.26999 13.18127,4.1159 7.70586,2.05858 13.67052,4.67203 17.89397,7.84039 5.17212,3.95766 7.75819,8.99774 7.75824,15.12024 z m 17.61189,-19.55627 -0.0797,19.63602 -10.3701,3.56138 0.0797,-52.57046 21.37563,-0.0798 c 3.64191,5e-5 6.94076,1.02932 9.89653,3.08783 3.27143,2.37593 4.90716,5.51691 4.90719,9.42297 -3e-5,1.00192 -2.21646,2.98074 -6.64923,5.93647 -5.01432,3.2731 -11.401,6.94161 -19.16003,11.00554 z m 0.0797,-11.39937 10.84608,-5.62238 c -0.26418,-0.57983 -1.00272,-1.10735 -2.21561,-1.58256 l -3.32704,-1.26848 h -5.30343 z m 35.02095,13.69471 -8.63046,14.01364 c -0.15788,0.47517 -0.36849,0.95036 -0.63183,1.42552 -0.26338,0.47518 -0.5803,1.00351 -0.95076,1.58501 l -0.63303,0.8698 -13.14382,3.72085 32.54065,-53.996 30.32261,49.8789 -10.05357,3.64114 -1.26848,-2.6916 -1.73963,-3.95763 -9.02672,-14.48963 z m 5.77943,-9.50027 h 5.30585 l -2.61428,-4.3539 z m 80.8282,-22.5644 -11.39936,9.2635 -5.22613,0.23921 h -15.67594 c -3.21994,4e-5 -6.01704,1.50368 -8.39128,4.51094 -1.16136,1.53187 -2.0324,3.16839 -2.61306,4.90961 -0.5807,1.74126 -0.87104,3.6943 -0.87102,5.85915 -2e-5,4.16868 1.14805,7.71799 3.44422,10.64794 2.29611,2.92999 5.1065,4.39498 8.43114,4.39498 h 20.42608 c 2.69153,0 5.85829,-0.23759 9.50029,-0.71276 0.79243,0 1.6107,-0.13208 2.45479,-0.39627 l -10.6093,10.6093 h -24.14695 c -5.38318,0 -10.02781,-2.42781 -13.9339,-7.28345 -3.90611,-4.85564 -5.85914,-10.68862 -5.85914,-17.49894 0,-6.86022 1.93975,-12.66581 5.81927,-17.41678 3.87952,-4.75089 8.53744,-7.12637 13.97377,-7.12643 z m 9.82054,18.84353 h 37.37051 l -10.60922,10.76875 -26.83854,-0.23919 c 0.79087,2.85107 2.2156,5.27928 4.27417,7.28467 2.11169,1.84756 4.46018,2.77132 7.04547,2.77132 h 21.77429 c 1.84591,0 4.08888,-0.26416 6.72898,-0.7925 l 3.64111,-0.86982 -10.37009,11.16259 h -23.91015 c -5.59581,0 -10.35964,-2.50714 -14.29151,-7.52145 -3.93187,-5.0143 -5.8978,-11.08445 -5.8978,-18.21048 0,-6.38664 1.9925,-11.91518 5.97752,-16.58562 3.98503,-4.67037 8.72229,-7.00556 14.21179,-7.00563 h 33.64722 l -9.81679,9.34082 -21.69457,0.15947 c -2.48059,5e-5 -4.73688,0.88395 -6.76883,2.65172 -2.032,1.76784 -3.52315,4.12963 -4.47349,7.08535 z m 124.36181,29.84904 -10.1333,2.13587 0.15946,-8.62804 -7.83797,-12.35133 c -2.95577,-4.59226 -5.30508,-7.70668 -7.0479,-9.34325 -1.05505,-1.055 -2.37428,-2.21637 -3.95764,-3.48407 l -4.1171,-2.92835 -0.15947,34.75623 -9.18376,2.21802 -0.0798,-53.04647 c 1.21452,7e-5 2.13869,0.0266 2.77254,0.0797 0.63382,0.0532 1.61034,0.22475 2.92957,0.51463 1.31919,0.28999 2.82365,0.93672 4.51335,1.94017 2.05692,1.26612 4.37885,2.95499 6.96574,5.06665 2.16485,1.74129 4.27656,3.6146 6.33515,5.61995 1.58336,1.42558 3.27223,3.35203 5.06665,5.77943 1.37234,1.79603 2.6392,3.69672 3.80059,5.7021 l -0.15946,-23.51391 h 10.29279 z m 23.46344,0.31651 -9.58001,2.29536 0.0797,-51.30444 h 9.50028 z m 53.58312,-0.31651 -10.13331,2.13587 0.15947,-8.62804 -7.83798,-12.35133 c -2.95577,-4.59226 -5.30505,-7.70668 -7.04789,-9.34325 -1.05507,-1.055 -2.37428,-2.21637 -3.95765,-3.48407 l -4.1171,-2.92835 -0.15948,34.75623 -9.18376,2.21802 -0.0797,-53.04647 c 1.21451,7e-5 2.13869,0.0266 2.77253,0.0797 0.63383,0.0532 1.61035,0.22475 2.92958,0.51463 1.31921,0.28999 2.82365,0.93672 4.51335,1.94017 2.05694,1.26612 4.37885,2.95499 6.96575,5.06665 2.16485,1.74129 4.27655,3.6146 6.33513,5.61995 1.58335,1.42558 3.27223,3.35203 5.06664,5.77943 1.37236,1.79603 2.63921,3.69672 3.80061,5.7021 l -0.15947,-23.51391 h 10.29278 z m 15.67122,-29.84904 h 37.37051 l -10.60929,10.76875 -26.83854,-0.23919 c 0.79087,2.85107 2.21558,5.27928 4.27414,7.28467 2.11171,1.84756 4.46021,2.77132 7.0455,2.77132 h 21.77429 c 1.84588,0 4.08888,-0.26416 6.72896,-0.7925 l 3.64113,-0.86982 -10.37009,11.16259 h -23.91017 c -5.59581,0 -10.35964,-2.50714 -14.29149,-7.52145 -3.93188,-5.0143 -5.89782,-11.08445 -5.89782,-18.21048 0,-6.38664 1.99252,-11.91518 5.97754,-16.58562 3.98503,-4.67037 8.72229,-7.00556 14.21177,-7.00563 h 33.64724 l -9.81679,9.34082 -21.69457,0.15947 c -2.48061,5e-5 -4.73688,0.88395 -6.76884,2.65172 -2.03199,1.76784 -3.52314,4.12963 -4.47348,7.08535 z"
       id="text2407"
       style="font-style:normal;font-variant:normal;font-weight:normal;font-stretch:normal;font-size:41.5879px;line-height:100%;font-family:FederationDS9Title;-inkscape-font-specification:FederationDS9Title;text-align:start;writing-mode:lr-tb;text-anchor:start;fill:#b9c3d7;fill-opacity:1;stroke:none;stroke-width:1px;stroke-linecap:butt;stroke-linejoin:miter;stroke-opacity:1" />
    <flowRoot
       id="flowRoot2411"
       xml:space="preserve"
       style="font-style:normal;font-variant:normal;font-weight:normal;font-stretch:normal;font-size:49.7163px;line-height:100%;font-family:FederationDS9Title;-inkscape-font-specification:FederationDS9Title;text-align:start;writing-mode:lr-tb;text-anchor:start;fill:#f2a700;fill-opacity:1;stroke:none;stroke-width:1px;stroke-linecap:butt;stroke-linejoin:miter;stroke-opacity:1"
       transform="translate(-43.862665,-61.658525)"><flowRegion
         id="flowRegion2413"><rect
           width="557.14288"
           height="139.28572"
           x="167.14285"
           y="501.64789"
           id="rect2415" /></flowRegion><flowPara
         id="flowPara2417" /></flowRoot>
    <rect
       width="693.47864"
       height="11.941956"
       ry="0"
       x="89.329109"
       y="126.73863"
       transform="matrix(1,0,-0.64413572,0.76491122,0,0)"
       id="rect2440"
       style="opacity:1;fill:#f2a700;fill-opacity:1;fill-rule:nonzero;stroke:none;stroke-width:0.5;stroke-linecap:round;stroke-linejoin:round;stroke-miterlimit:4;stroke-dasharray:none;stroke-opacity:1" />
  </g>
</svg>
