<?xml version="1.0" encoding="UTF-8"?>
<!DOCTYPE svg PUBLIC "-//W3C//DTD SVG 1.1//EN" "http://www.w3.org/Graphics/SVG/1.1/DTD/svg11.dtd">
<!-- Creator: CorelDRAW -->
<svg xmlns="http://www.w3.org/2000/svg" xml:space="preserve" width="791px" height="201px" style="shape-rendering:geometricPrecision; text-rendering:geometricPrecision; image-rendering:optimizeQuality; fill-rule:evenodd; clip-rule:evenodd"
viewBox="0 0 791 200.701">
 <defs>
  <style type="text/css">
   <![CDATA[
    .str0 {stroke:#1F1A17;stroke-width:2.08257}
    .fil1 {fill:#1F1A17}
    .fil3 {fill:white}
    .fil0 {fill:#1F1A17;fill-rule:nonzero}
    .fil2 {fill:white;fill-rule:nonzero}
   ]]>
  </style>
 </defs>
 <g id="Layer_x0020_1">
  <metadata id="CorelCorpID_0Corel-Layer"/>
  <g id="_200762000">
   <path id="_200721248" class="fil0 str0" d="M86.2957 167.459l-64.7274 0 0 -55.1894 64.7274 0 0 9.38811 -44.0599 0c-2.01882,0 -3.38123,0.605646 -4.08841,1.81694 -0.504115,0.90906 -0.756763,2.42259 -0.756763,4.54294 0,2.37182 0.226675,4.01167 0.681204,4.91955 0.707178,1.36359 2.09438,2.04479 4.16397,2.04479l40.2749 0 0 9.31137 -40.2749 0c-2.01882,0 -3.38123,0.605646 -4.08841,1.81694 -0.504115,0.858294 -0.756763,2.34703 -0.756763,4.46738 0,2.5737 0.201882,4.31508 0.605646,5.22296 0.656412,1.46394 2.06959,2.19591 4.23952,2.19591l44.0599 0 0 9.46249zm95.9318 0l-30.8124 0 -29.1466 -42.2429c-1.059,-1.56429 -1.86652,-2.34703 -2.42259,-2.34703l-2.04361 0c-1.26206,0 -1.8925,0.756763 -1.8925,2.27147l0 42.3185 -15.2167 0 0 -55.1894 30.5845 0 29.3733 42.2441c1.11094,1.56429 2.04479,2.34703 2.80156,2.34703l1.66582 0c1.26206,0 1.8925,-0.756763 1.8925,-2.27147l0 -42.3197 15.2167 0 0 55.1894zm77.5097 -45.1956l-22.1811 0c-3.43318,0 -5.14858,1.41317 -5.14858,4.23952l0 40.9561 -15.2167 0 0 -40.9561c0,-2.82635 -1.59026,-4.23952 -4.76961,-4.23952l-22.3334 0 0 -9.99375 69.6493 0 0 9.99375zm75.1001 45.1956l-64.7274 0 0 -55.1894 64.7274 0 0 9.38811 -44.0599 0c-2.02,0 -3.38241,0.605646 -4.08841,1.81694 -0.505296,0.90906 -0.757943,2.42259 -0.757943,4.54294 0,2.37182 0.227855,4.01167 0.682385,4.91955 0.705997,1.36359 2.09438,2.04479 4.16397,2.04479l40.2749 0 0 9.31137 -40.2749 0c-2.02,0 -3.38241,0.605646 -4.08841,1.81694 -0.505296,0.858294 -0.757943,2.34703 -0.757943,4.46738 0,2.5737 0.203063,4.31508 0.606827,5.22296 0.655231,1.46394 2.06841,2.19591 4.23952,2.19591l44.0599 0 0 9.46249zm83.3513 0l-15.9735 0 0 -16.9581c0,-1.66464 -0.530088,-2.98927 -1.59026,-3.97389 -1.06018,-0.984618 -2.43557,-1.47693 -4.10021,-1.47693l-33.4499 0c-1.61506,0 -2.42259,0.833501 -2.42259,2.49814l0 19.9108 -15.7468 0 0 -55.1894 64.1229 0c2.52294,0 4.61731,0.858294 6.28314,2.57488 1.66582,1.71541 2.49932,3.83576 2.49932,6.3587l0 8.55461c0,1.51471 -1.16171,3.26789 -3.48276,5.26192 -2.32223,1.99403 -3.48276,3.67166 -3.48276,5.03407 0,0.958645 0.643425,2.01882 1.91847,3.17935 1.98104,1.81694 3.15337,2.92788 3.50755,3.33164 1.27386,1.61506 1.91729,3.432 1.91729,5.45082l0 15.4434zm-15.9735 -41.3351c0,-3.02823 -1.56429,-4.54176 -4.69405,-4.54176l-34.4463 0c-1.61506,0 -2.42259,0.794542 -2.42259,2.37182l0 9.48846c0,1.62804 0.807528,2.44738 2.42259,2.44738l34.4463 0c3.12976,0 4.69405,-1.51353 4.69405,-4.54176l0 -5.22414zm101.445 10.1449c0,2.5737 -0.820515,4.69405 -2.46036,6.35988 -1.64103,1.66464 -3.74721,2.49814 -6.3221,2.49814l-45.8013 0c-1.61506,0 -2.42259,0.807528 -2.42259,2.4214l0 19.9108 -15.8224 0 0 -55.1894 64.0462 0c2.57488,0 4.68107,0.858294 6.3221,2.57488 1.63985,1.71541 2.46036,3.86055 2.46036,6.43425l0 14.99zm-15.4434 -10.1449c0,-3.02823 -1.56547,-4.54176 -4.69405,-4.54176l-34.4463 0c-1.61506,0 -2.42259,0.807528 -2.42259,2.42259l0 9.38693c0,1.61506 0.807528,2.42259 2.42259,2.42259l34.4463 0c3.12858,0 4.69405,-1.51353 4.69405,-4.54176l0 -5.14858zm99.2492 41.3351l-15.9735 0 0 -16.9581c0,-1.66464 -0.530088,-2.98927 -1.59026,-3.97389 -1.06018,-0.984618 -2.43557,-1.47693 -4.10021,-1.47693l-33.4499 0c-1.61506,0 -2.42259,0.833501 -2.42259,2.49814l0 19.9108 -15.7468 0 0 -55.1894 64.1229 0c2.52294,0 4.61731,0.858294 6.28314,2.57488 1.66582,1.71541 2.49814,3.83576 2.49814,6.3587l0 8.55461c0,1.51471 -1.16053,3.26789 -3.48276,5.26192 -2.32105,1.99403 -3.48158,3.67166 -3.48158,5.03407 0,0.958645 0.643425,2.01882 1.91729,3.17935 1.98104,1.81694 3.15456,2.92788 3.50873,3.33164 1.27386,1.61506 1.91729,3.432 1.91729,5.45082l0 15.4434zm-15.9735 -41.3351c0,-3.02823 -1.56429,-4.54176 -4.69405,-4.54176l-34.4463 0c-1.61506,0 -2.42259,0.794542 -2.42259,2.37182l0 9.48846c0,1.62804 0.807528,2.44738 2.42259,2.44738l34.4463 0c3.12976,0 4.69405,-1.51353 4.69405,-4.54176l0 -5.22414zm42.786 41.3351l-15.6712 0 0 -55.1894 15.6712 0 0 55.1894zm81.3833 -8.9324c0,2.5737 -0.820515,4.70586 -2.46036,6.39647 -1.63985,1.69061 -3.74721,2.53592 -6.3221,2.53592l-52.3123 0c-5.90417,0 -8.80607,-3.78499 -8.70572,-11.355l0 -1.96924 15.5201 0c0,1.09796 0.479322,2.12035 1.43797,3.09198 0.958645,0.971631 1.99403,1.45095 3.10379,1.45095l28.2375 0c2.67523,0 4.39182,-0.883087 5.14858,-2.64926 0.403764,-1.00941 0.605646,-3.079 0.605646,-6.20876 0,-1.66464 -0.530088,-3.01524 -1.58908,-4.04945 -1.06018,-1.03538 -2.44856,-1.55249 -4.16515,-1.55249l-40.1993 0c-2.52294,0 -4.60551,-0.871281 -6.24536,-2.61148 -1.63985,-1.74138 -2.46036,-3.89951 -2.46036,-6.47321l0 -13.9299c0,-2.5737 0.807528,-4.70586 2.42259,-6.39647 1.61506,-1.69061 3.70944,-2.5371 6.28314,-2.5371l52.389 0c5.90417,0 8.80725,3.78617 8.70572,11.3562l0 1.96924 -15.5957 0c0,-1.11094 -0.479322,-2.15813 -1.43797,-3.14275 -0.958645,-0.983437 -1.99403,-1.47575 -3.10379,-1.47575l-28.2387 0c-2.67523,0 -4.36467,0.883087 -5.07184,2.66225 -0.403764,1.02122 -0.605646,3.0908 -0.605646,6.24536 0,1.66582 0.530088,3.01524 1.58908,4.02466 1.06018,1.0224 2.42377,1.52769 4.08841,1.52769l40.2761 0c2.47217,0 4.54176,0.857113 6.20758,2.5737 1.66582,1.71541 2.49814,3.83576 2.49814,6.3587l0 14.1577zm78.4176 8.9324l-64.7274 0 0 -55.1894 64.7274 0 0 9.38811 -44.0599 0c-2.01882,0 -3.38123,0.605646 -4.08841,1.81694 -0.504115,0.90906 -0.756763,2.42259 -0.756763,4.54294 0,2.37182 0.226675,4.01167 0.681204,4.91955 0.707178,1.36359 2.09438,2.04479 4.16397,2.04479l40.2749 0 0 9.31137 -40.2749 0c-2.01882,0 -3.38123,0.605646 -4.08841,1.81694 -0.504115,0.858294 -0.756763,2.34703 -0.756763,4.46738 0,2.5737 0.201882,4.31508 0.605646,5.22296 0.655231,1.46394 2.06841,2.19591 4.23952,2.19591l44.0599 0 0 9.46249z"/>
   <path id="_200762528" class="fil0 str0" d="M193.32 67.6919c0,1.98104 -0.631619,3.62207 -1.89368,4.92427 -1.26206,1.30102 -2.8842,1.95271 -4.86642,1.95271l-40.2725 0c-4.5453,0 -6.78017,-2.91489 -6.70225,-8.74232l0 -1.51589 11.9476 0c0,0.845307 0.369527,1.63277 1.1074,2.38008 0.737873,0.748499 1.53478,1.11684 2.38953,1.11684l21.7383 0c2.06014,0 3.38123,-0.680024 3.96326,-2.04007 0.311678,-0.776833 0.466336,-2.36946 0.466336,-4.77906 0,-1.28213 -0.407306,-2.32105 -1.2231,-3.11796 -0.815793,-0.795722 -1.88423,-1.19476 -3.2065,-1.19476l-30.947 0c-1.94208,0 -3.54533,-0.669399 -4.80739,-2.01056 -1.26324,-1.33998 -1.89486,-3.00108 -1.89486,-4.98212l0 -10.7245c0,-1.98104 0.622175,-3.62325 1.86534,-4.92427 1.24317,-1.3022 2.85586,-1.95271 4.83691,-1.95271l40.3304 0c4.54648,0 6.78017,2.91371 6.70225,8.74232l0 1.51471 -12.0055 0c0,-0.854752 -0.369527,-1.65992 -1.1074,-2.41786 -0.737873,-0.757943 -1.53478,-1.13691 -2.38953,-1.13691l-21.7383 0c-2.06014,0 -3.36116,0.680024 -3.90541,2.04952 -0.310497,0.786278 -0.466336,2.38008 -0.466336,4.80857 0,1.28213 0.408487,2.32105 1.22428,3.09789 0.815793,0.787458 1.86534,1.17587 3.14747,1.17587l31.0048 0c1.9043,0 3.49693,0.659954 4.77906,1.98104 1.28213,1.32109 1.92319,2.95385 1.92319,4.89594l0 10.8993zm57.8056 -27.9176l-17.0762 0c-2.64218,0 -3.96326,1.08851 -3.96326,3.26435l0 31.5302 -11.7151 0 0 -31.5302c0,-2.17584 -1.2231,-3.26435 -3.67166,-3.26435l-17.1919 0 0 -7.69277 53.618 0 0 7.69277zm61.7193 34.7946l-12.996 0c-1.20539,-2.52648 -2.37064,-4.79913 -3.49693,-6.81913 -0.505296,-0.893712 -1.55485,-1.34116 -3.14747,-1.34116l-27.6838 0c-1.63159,0 -2.66107,0.447446 -3.08844,1.34116 -0.310497,0.505296 -1.49582,2.77794 -3.55478,6.81913l-12.9972 0 23.1373 -42.4873 20.5731 0 23.2542 42.4873zm-21.9131 -17.0183c0,-0.427376 -0.174728,-0.990521 -0.524185,-1.69061l-7.69395 -15.2698c-0.620994,-1.24317 -1.20421,-1.86416 -1.74846,-1.86416l-3.26317 0c-0.544255,0 -1.12747,0.620994 -1.74846,1.86416l-7.51804 15.212c-0.389597,0.698913 -0.583215,1.26324 -0.583215,1.68943 0,1.08851 0.718984,1.63277 2.15577,1.63277l18.7668 0c1.43797,0 2.15695,-0.525366 2.15695,-1.57374zm84.0408 17.0183l-12.2971 0 0 -13.055c0,-1.28213 -0.408487,-2.30216 -1.22428,-3.06011 -0.815793,-0.757943 -1.87479,-1.13691 -3.15692,-1.13691l-25.75 0c-1.24435,0 -1.86534,0.641064 -1.86534,1.92319l0 15.3289 -12.1224 0 0 -42.4873 49.3643 0c1.94208,0 3.55478,0.659954 4.83691,1.98222 1.28213,1.32109 1.92319,2.95267 1.92319,4.89476l0 6.58537c0,1.16643 -0.893712,2.51703 -2.68114,4.05063 -1.78742,1.53478 -2.68114,2.82753 -2.68114,3.8759 0,0.737873 0.495851,1.55485 1.47693,2.44738 1.52533,1.39901 2.42849,2.25376 2.70003,2.56544 0.981076,1.24317 1.47693,2.64218 1.47693,4.19584l0 11.8898zm-12.2971 -31.8218c0,-2.33168 -1.20421,-3.49693 -3.61381,-3.49693l-26.5174 0c-1.24435,0 -1.86534,0.611549 -1.86534,1.82638l0 7.30435c0,1.25261 0.620994,1.88423 1.86534,1.88423l26.5174 0c2.4096,0 3.61381,-1.16525 3.61381,-3.49693l0 -4.02111zm106.245 -2.97274l-17.0762 0c-2.64218,0 -3.96326,1.08851 -3.96326,3.26435l0 31.5302 -11.7139 0 0 -31.5302c0,-2.17584 -1.22428,-3.26435 -3.67166,-3.26435l-17.193 0 0 -7.69277 53.618 0 0 7.69277zm62.5941 34.7946l-12.2971 0 0 -13.055c0,-1.28213 -0.407306,-2.30216 -1.22428,-3.06011 -0.815793,-0.757943 -1.87479,-1.13691 -3.15692,-1.13691l-25.75 0c-1.24317,0 -1.86534,0.641064 -1.86534,1.92319l0 15.3289 -12.1224 0 0 -42.4873 49.3643 0c1.94208,0 3.55478,0.659954 4.83691,1.98222 1.28213,1.32109 1.92437,2.95267 1.92437,4.89476l0 6.58537c0,1.16643 -0.894893,2.51703 -2.68232,4.05063 -1.78624,1.53478 -2.67996,2.82753 -2.67996,3.8759 0,0.737873 0.49467,1.55485 1.47575,2.44738 1.52533,1.39901 2.42849,2.25376 2.70121,2.56544 0.981076,1.24317 1.47575,2.64218 1.47575,4.19584l0 11.8898zm-12.2971 -31.8218c0,-2.33168 -1.20421,-3.49693 -3.61381,-3.49693l-26.5174 0c-1.24317,0 -1.86534,0.611549 -1.86534,1.82638l0 7.30435c0,1.25261 0.622175,1.88423 1.86534,1.88423l26.5174 0c2.4096,0 3.61381,-1.16525 3.61381,-3.49693l0 -4.02111zm70.9869 31.8218l-49.8306 0 0 -42.4873 49.8306 0 0 7.22761 -33.9197 0c-1.55485,0 -2.60322,0.465155 -3.14747,1.39783 -0.388416,0.700094 -0.583215,1.86534 -0.583215,3.49693 0,1.82638 0.174728,3.08844 0.525366,3.78854 0.544255,1.04837 1.61151,1.57374 3.20532,1.57374l31.0048 0 0 7.16859 -31.0048 0c-1.55485,0 -2.60322,0.466336 -3.14747,1.39783 -0.388416,0.661134 -0.583215,1.80749 -0.583215,3.43908 0,1.98104 0.155839,3.3222 0.466336,4.02111 0.505296,1.12747 1.59381,1.69061 3.26435,1.69061l33.9197 0 0 7.28546zm66.3236 0l-17.8931 0 -19.0572 -16.7267c-1.08851,-0.932672 -2.37064,-1.39901 -3.84639,-1.39901 -2.91489,0 -4.37175,1.4179 -4.37175,4.25487l0 13.8708 -12.1224 0 0 -42.4873 12.1224 0 0 12.8225c0,2.83579 1.32109,4.25369 3.96326,4.25369 1.36005,0 2.27265,-0.0389597 2.73899,-0.116879 0.854752,-0.193618 1.69061,-0.641064 2.50641,-1.33998l18.0088 -15.6193 14.9204 0 -20.5731 17.7172c-1.32109,1.12747 -1.98222,2.17584 -1.98222,3.14747 0,0.971631 0.737873,2.04007 2.2148,3.20532l23.3711 18.4173z"/>
   <rect id="_200761256" class="fil1 str0" x="28.3903" y="51.4276" width="91.6662" height="7.08531"/>
   <rect id="_200761880" class="fil1 str0" x="675.673" y="51.4276" width="91.6662" height="7.08531"/>
  </g>
  <g id="_200384264">
   <path id="_165970272" class="fil2 str0" d="M84.3891 165.001l-64.7274 0 0 -55.1894 64.7274 0 0 9.38811 -44.0599 0c-2.01882,0 -3.38123,0.605646 -4.08841,1.81694 -0.504115,0.90906 -0.756763,2.42259 -0.756763,4.54294 0,2.37182 0.226675,4.01167 0.681204,4.91955 0.707178,1.36359 2.09438,2.04479 4.16397,2.04479l40.2749 0 0 9.31137 -40.2749 0c-2.01882,0 -3.38123,0.605646 -4.08841,1.81694 -0.504115,0.858294 -0.756763,2.34703 -0.756763,4.46738 0,2.5737 0.201882,4.31508 0.605646,5.22296 0.656412,1.46394 2.06959,2.19591 4.23952,2.19591l44.0599 0 0 9.46249zm95.9318 0l-30.8124 0 -29.1466 -42.2429c-1.059,-1.56429 -1.86652,-2.34703 -2.42259,-2.34703l-2.04361 0c-1.26206,0 -1.8925,0.756763 -1.8925,2.27147l0 42.3185 -15.2167 0 0 -55.1894 30.5845 0 29.3733 42.2441c1.11094,1.56429 2.04479,2.34703 2.80156,2.34703l1.66582 0c1.26206,0 1.8925,-0.756763 1.8925,-2.27147l0 -42.3197 15.2167 0 0 55.1894zm77.5097 -45.1956l-22.1811 0c-3.43318,0 -5.14858,1.41317 -5.14858,4.23952l0 40.9561 -15.2167 0 0 -40.9561c0,-2.82635 -1.59026,-4.23952 -4.76961,-4.23952l-22.3334 0 0 -9.99375 69.6493 0 0 9.99375zm75.1001 45.1956l-64.7274 0 0 -55.1894 64.7274 0 0 9.38811 -44.0599 0c-2.02,0 -3.38241,0.605646 -4.08841,1.81694 -0.505296,0.90906 -0.757943,2.42259 -0.757943,4.54294 0,2.37182 0.227855,4.01167 0.682385,4.91955 0.705997,1.36359 2.09438,2.04479 4.16397,2.04479l40.2749 0 0 9.31137 -40.2749 0c-2.02,0 -3.38241,0.605646 -4.08841,1.81694 -0.505296,0.858294 -0.757943,2.34703 -0.757943,4.46738 0,2.5737 0.203063,4.31508 0.606827,5.22296 0.655231,1.46394 2.06841,2.19591 4.23952,2.19591l44.0599 0 0 9.46249zm83.3513 0l-15.9735 0 0 -16.9581c0,-1.66464 -0.530088,-2.98927 -1.59026,-3.97389 -1.06018,-0.984618 -2.43557,-1.47693 -4.10021,-1.47693l-33.4499 0c-1.61506,0 -2.42259,0.833501 -2.42259,2.49814l0 19.9108 -15.7468 0 0 -55.1894 64.1229 0c2.52294,0 4.61731,0.858294 6.28314,2.57488 1.66582,1.71541 2.49932,3.83576 2.49932,6.3587l0 8.55461c0,1.51471 -1.16171,3.26789 -3.48276,5.26192 -2.32223,1.99403 -3.48276,3.67166 -3.48276,5.03407 0,0.958645 0.643425,2.01882 1.91847,3.17935 1.98104,1.81694 3.15337,2.92788 3.50755,3.33164 1.27386,1.61506 1.91729,3.432 1.91729,5.45082l0 15.4434zm-15.9735 -41.3351c0,-3.02823 -1.56429,-4.54176 -4.69405,-4.54176l-34.4463 0c-1.61506,0 -2.42259,0.794542 -2.42259,2.37182l0 9.48846c0,1.62804 0.807528,2.44738 2.42259,2.44738l34.4463 0c3.12976,0 4.69405,-1.51353 4.69405,-4.54176l0 -5.22414zm101.445 10.1449c0,2.5737 -0.820515,4.69405 -2.46036,6.35988 -1.64103,1.66464 -3.74721,2.49814 -6.3221,2.49814l-45.8013 0c-1.61506,0 -2.42259,0.807528 -2.42259,2.4214l0 19.9108 -15.8224 0 0 -55.1894 64.0462 0c2.57488,0 4.68107,0.858294 6.3221,2.57488 1.63985,1.71541 2.46036,3.86055 2.46036,6.43425l0 14.99zm-15.4434 -10.1449c0,-3.02823 -1.56547,-4.54176 -4.69405,-4.54176l-34.4463 0c-1.61506,0 -2.42259,0.807528 -2.42259,2.42259l0 9.38693c0,1.61506 0.807528,2.42259 2.42259,2.42259l34.4463 0c3.12858,0 4.69405,-1.51353 4.69405,-4.54176l0 -5.14858zm99.2492 41.3351l-15.9735 0 0 -16.9581c0,-1.66464 -0.530088,-2.98927 -1.59026,-3.97389 -1.06018,-0.984618 -2.43557,-1.47693 -4.10021,-1.47693l-33.4499 0c-1.61506,0 -2.42259,0.833501 -2.42259,2.49814l0 19.9108 -15.7468 0 0 -55.1894 64.1229 0c2.52294,0 4.61731,0.858294 6.28314,2.57488 1.66582,1.71541 2.49814,3.83576 2.49814,6.3587l0 8.55461c0,1.51471 -1.16053,3.26789 -3.48276,5.26192 -2.32105,1.99403 -3.48158,3.67166 -3.48158,5.03407 0,0.958645 0.643425,2.01882 1.91729,3.17935 1.98104,1.81694 3.15456,2.92788 3.50873,3.33164 1.27386,1.61506 1.91729,3.432 1.91729,5.45082l0 15.4434zm-15.9735 -41.3351c0,-3.02823 -1.56429,-4.54176 -4.69405,-4.54176l-34.4463 0c-1.61506,0 -2.42259,0.794542 -2.42259,2.37182l0 9.48846c0,1.62804 0.807528,2.44738 2.42259,2.44738l34.4463 0c3.12976,0 4.69405,-1.51353 4.69405,-4.54176l0 -5.22414zm42.786 41.3351l-15.6712 0 0 -55.1894 15.6712 0 0 55.1894zm81.3833 -8.9324c0,2.5737 -0.820515,4.70586 -2.46036,6.39647 -1.63985,1.69061 -3.74721,2.53592 -6.3221,2.53592l-52.3123 0c-5.90417,0 -8.80607,-3.78499 -8.70572,-11.355l0 -1.96924 15.5201 0c0,1.09796 0.479322,2.12035 1.43797,3.09198 0.958645,0.971631 1.99403,1.45095 3.10379,1.45095l28.2375 0c2.67523,0 4.39182,-0.883087 5.14858,-2.64926 0.403764,-1.00941 0.605646,-3.079 0.605646,-6.20876 0,-1.66464 -0.530088,-3.01524 -1.58908,-4.04945 -1.06018,-1.03538 -2.44856,-1.55249 -4.16515,-1.55249l-40.1993 0c-2.52294,0 -4.60551,-0.871281 -6.24536,-2.61148 -1.63985,-1.74138 -2.46036,-3.89951 -2.46036,-6.47321l0 -13.9299c0,-2.5737 0.807528,-4.70586 2.42259,-6.39647 1.61506,-1.69061 3.70944,-2.5371 6.28314,-2.5371l52.389 0c5.90417,0 8.80725,3.78617 8.70572,11.3562l0 1.96924 -15.5957 0c0,-1.11094 -0.479322,-2.15813 -1.43797,-3.14275 -0.958645,-0.983437 -1.99403,-1.47575 -3.10379,-1.47575l-28.2387 0c-2.67523,0 -4.36467,0.883087 -5.07184,2.66225 -0.403764,1.02122 -0.605646,3.0908 -0.605646,6.24536 0,1.66582 0.530088,3.01524 1.58908,4.02466 1.06018,1.0224 2.42377,1.52769 4.08841,1.52769l40.2761 0c2.47217,0 4.54176,0.857113 6.20758,2.5737 1.66582,1.71541 2.49814,3.83576 2.49814,6.3587l0 14.1577zm78.4176 8.9324l-64.7274 0 0 -55.1894 64.7274 0 0 9.38811 -44.0599 0c-2.01882,0 -3.38123,0.605646 -4.08841,1.81694 -0.504115,0.90906 -0.756763,2.42259 -0.756763,4.54294 0,2.37182 0.226675,4.01167 0.681204,4.91955 0.707178,1.36359 2.09438,2.04479 4.16397,2.04479l40.2749 0 0 9.31137 -40.2749 0c-2.01882,0 -3.38123,0.605646 -4.08841,1.81694 -0.504115,0.858294 -0.756763,2.34703 -0.756763,4.46738 0,2.5737 0.201882,4.31508 0.605646,5.22296 0.655231,1.46394 2.06841,2.19591 4.23952,2.19591l44.0599 0 0 9.46249z"/>
   <path id="_165969984" class="fil2 str0" d="M191.414 65.2339c0,1.98104 -0.631619,3.62207 -1.89368,4.92427 -1.26206,1.30102 -2.8842,1.95271 -4.86642,1.95271l-40.2725 0c-4.5453,0 -6.78017,-2.91489 -6.70225,-8.74232l0 -1.51589 11.9476 0c0,0.845307 0.369527,1.63277 1.1074,2.38008 0.737873,0.748499 1.53478,1.11684 2.38953,1.11684l21.7383 0c2.06014,0 3.38123,-0.680024 3.96326,-2.04007 0.311678,-0.776833 0.466336,-2.36946 0.466336,-4.77906 0,-1.28213 -0.407306,-2.32105 -1.2231,-3.11796 -0.815793,-0.795722 -1.88423,-1.19476 -3.2065,-1.19476l-30.947 0c-1.94208,0 -3.54533,-0.669399 -4.80739,-2.01056 -1.26324,-1.33998 -1.89486,-3.00108 -1.89486,-4.98212l0 -10.7245c0,-1.98104 0.622175,-3.62325 1.86534,-4.92427 1.24317,-1.3022 2.85586,-1.95271 4.83691,-1.95271l40.3304 0c4.54648,0 6.78017,2.91371 6.70225,8.74232l0 1.51471 -12.0055 0c0,-0.854752 -0.369527,-1.65992 -1.1074,-2.41786 -0.737873,-0.757943 -1.53478,-1.13691 -2.38953,-1.13691l-21.7383 0c-2.06014,0 -3.36116,0.680024 -3.90541,2.04952 -0.310497,0.786278 -0.466336,2.38008 -0.466336,4.80857 0,1.28213 0.408487,2.32105 1.22428,3.09789 0.815793,0.787458 1.86534,1.17587 3.14747,1.17587l31.0048 0c1.9043,0 3.49693,0.659954 4.77906,1.98104 1.28213,1.32109 1.92319,2.95385 1.92319,4.89594l0 10.8993zm57.8056 -27.9176l-17.0762 0c-2.64218,0 -3.96326,1.08851 -3.96326,3.26435l0 31.5302 -11.7151 0 0 -31.5302c0,-2.17584 -1.2231,-3.26435 -3.67166,-3.26435l-17.1919 0 0 -7.69277 53.618 0 0 7.69277zm61.7193 34.7946l-12.996 0c-1.20539,-2.52648 -2.37064,-4.79913 -3.49693,-6.81913 -0.505296,-0.893712 -1.55485,-1.34116 -3.14747,-1.34116l-27.6838 0c-1.63159,0 -2.66107,0.447446 -3.08844,1.34116 -0.310497,0.505296 -1.49582,2.77794 -3.55478,6.81913l-12.9972 0 23.1373 -42.4873 20.5731 0 23.2542 42.4873zm-21.9131 -17.0183c0,-0.427376 -0.174728,-0.990521 -0.524185,-1.69061l-7.69395 -15.2698c-0.620994,-1.24317 -1.20421,-1.86416 -1.74846,-1.86416l-3.26317 0c-0.544255,0 -1.12747,0.620994 -1.74846,1.86416l-7.51804 15.212c-0.389597,0.698913 -0.583215,1.26324 -0.583215,1.68943 0,1.08851 0.718984,1.63277 2.15577,1.63277l18.7668 0c1.43797,0 2.15695,-0.525366 2.15695,-1.57374zm84.0408 17.0183l-12.2971 0 0 -13.055c0,-1.28213 -0.408487,-2.30216 -1.22428,-3.06011 -0.815793,-0.757943 -1.87479,-1.13691 -3.15692,-1.13691l-25.75 0c-1.24435,0 -1.86534,0.641064 -1.86534,1.92319l0 15.3289 -12.1224 0 0 -42.4873 49.3643 0c1.94208,0 3.55478,0.659954 4.83691,1.98222 1.28213,1.32109 1.92319,2.95267 1.92319,4.89476l0 6.58537c0,1.16643 -0.893712,2.51703 -2.68114,4.05063 -1.78742,1.53478 -2.68114,2.82753 -2.68114,3.8759 0,0.737873 0.495851,1.55485 1.47693,2.44738 1.52533,1.39901 2.42849,2.25376 2.70003,2.56544 0.981076,1.24317 1.47693,2.64218 1.47693,4.19584l0 11.8898zm-12.2971 -31.8218c0,-2.33168 -1.20421,-3.49693 -3.61381,-3.49693l-26.5174 0c-1.24435,0 -1.86534,0.611549 -1.86534,1.82638l0 7.30435c0,1.25261 0.620994,1.88423 1.86534,1.88423l26.5174 0c2.4096,0 3.61381,-1.16525 3.61381,-3.49693l0 -4.02111zm106.245 -2.97274l-17.0762 0c-2.64218,0 -3.96326,1.08851 -3.96326,3.26435l0 31.5302 -11.7139 0 0 -31.5302c0,-2.17584 -1.22428,-3.26435 -3.67166,-3.26435l-17.193 0 0 -7.69277 53.618 0 0 7.69277zm62.5941 34.7946l-12.2971 0 0 -13.055c0,-1.28213 -0.407306,-2.30216 -1.22428,-3.06011 -0.815793,-0.757943 -1.87479,-1.13691 -3.15692,-1.13691l-25.75 0c-1.24317,0 -1.86534,0.641064 -1.86534,1.92319l0 15.3289 -12.1224 0 0 -42.4873 49.3643 0c1.94208,0 3.55478,0.659954 4.83691,1.98222 1.28213,1.32109 1.92437,2.95267 1.92437,4.89476l0 6.58537c0,1.16643 -0.894893,2.51703 -2.68232,4.05063 -1.78624,1.53478 -2.67996,2.82753 -2.67996,3.8759 0,0.737873 0.49467,1.55485 1.47575,2.44738 1.52533,1.39901 2.42849,2.25376 2.70121,2.56544 0.981076,1.24317 1.47575,2.64218 1.47575,4.19584l0 11.8898zm-12.2971 -31.8218c0,-2.33168 -1.20421,-3.49693 -3.61381,-3.49693l-26.5174 0c-1.24317,0 -1.86534,0.611549 -1.86534,1.82638l0 7.30435c0,1.25261 0.622175,1.88423 1.86534,1.88423l26.5174 0c2.4096,0 3.61381,-1.16525 3.61381,-3.49693l0 -4.02111zm70.9869 31.8218l-49.8306 0 0 -42.4873 49.8306 0 0 7.22761 -33.9197 0c-1.55485,0 -2.60322,0.465155 -3.14747,1.39783 -0.388416,0.700094 -0.583215,1.86534 -0.583215,3.49693 0,1.82638 0.174728,3.08844 0.525366,3.78854 0.544255,1.04837 1.61151,1.57374 3.20532,1.57374l31.0048 0 0 7.16859 -31.0048 0c-1.55485,0 -2.60322,0.466336 -3.14747,1.39783 -0.388416,0.661134 -0.583215,1.80749 -0.583215,3.43908 0,1.98104 0.155839,3.3222 0.466336,4.02111 0.505296,1.12747 1.59381,1.69061 3.26435,1.69061l33.9197 0 0 7.28546zm66.3236 0l-17.8931 0 -19.0572 -16.7267c-1.08851,-0.932672 -2.37064,-1.39901 -3.84639,-1.39901 -2.91489,0 -4.37175,1.4179 -4.37175,4.25487l0 13.8708 -12.1224 0 0 -42.4873 12.1224 0 0 12.8225c0,2.83579 1.32109,4.25369 3.96326,4.25369 1.36005,0 2.27265,-0.0389597 2.73899,-0.116879 0.854752,-0.193618 1.69061,-0.641064 2.50641,-1.33998l18.0088 -15.6193 14.9204 0 -20.5731 17.7172c-1.32109,1.12747 -1.98222,2.17584 -1.98222,3.14747 0,0.971631 0.737873,2.04007 2.2148,3.20532l23.3711 18.4173z"/>
   <rect id="_165969912" class="fil3 str0" x="26.4837" y="48.9696" width="91.6662" height="7.08531"/>
   <rect id="_200384216" class="fil3 str0" x="673.766" y="48.9696" width="91.6662" height="7.08531"/>
  </g>
 </g>
</svg>
