<svg width="436" height="120" viewBox="0 0 436 120" fill="none" xmlns="http://www.w3.org/2000/svg">
<path d="M365.209 25.3813L366.654 25.1274L373.963 23.8434C377.051 23.2989 379.121 20.3563 378.576 17.2633C378.043 14.2398 375.222 12.2412 372.242 12.6301L372.243 12.6313C372.217 12.6341 372.197 12.6365 372.188 12.6379C372.172 12.6403 372.147 12.6444 372.137 12.6461C372.12 12.649 372.106 12.6517 372.099 12.6529L372.054 12.6615L371.939 12.684C371.844 12.7028 371.705 12.7302 371.528 12.7656C371.172 12.8364 370.653 12.94 369.994 13.0716C368.678 13.3349 366.802 13.7108 364.553 14.1617C360.055 15.0635 354.065 16.2657 348.078 17.4678C342.091 18.6699 336.106 19.8719 331.618 20.7733L326.195 21.8626L324.676 22.1678L324.276 22.2482L324.173 22.2688L324.147 22.274L324.141 22.2753L324.139 22.2757C324.138 22.2757 324.138 22.2758 324.631 24.7268L324.138 22.2758L324.104 22.2826L324.071 22.2903C321.452 22.8923 319.699 25.4431 320.176 28.1459C320.652 30.8467 323.171 32.6464 325.839 32.3161L325.902 32.3082L325.966 32.2971L347.989 28.4138L356.125 32.2954C355.121 32.5894 354.162 32.8709 353.396 33.0968C352.893 33.2449 352.471 33.3699 352.172 33.4591C352.023 33.5035 351.9 33.5406 351.811 33.5678C351.769 33.5809 351.724 33.5947 351.686 33.6071C351.67 33.6123 351.636 33.6231 351.599 33.6362C351.584 33.6414 351.54 33.6572 351.485 33.6795C351.462 33.6885 351.405 33.712 351.333 33.7468C348.939 34.8834 347.451 37.5063 347.942 40.2863C348.44 43.1108 350.818 45.0978 353.507 45.2967L353.683 45.3098L353.86 45.2978L358.143 45.0077L351.836 51.4289L330.019 55.276L329.956 55.2869L329.895 55.301C327.272 55.9015 325.521 58.4562 325.998 61.1571C326.477 63.8756 329.007 65.6427 331.658 65.3145L331.692 65.3103L331.725 65.3053L331.351 62.8334C331.725 65.3053 331.726 65.3052 331.726 65.3052L331.728 65.3049L331.734 65.3039L331.76 65.3L331.864 65.2843L332.267 65.2233L333.797 64.9917L339.257 64.1649L355.83 61.6554C361.857 60.7427 367.886 59.8297 372.41 59.1442C374.672 58.8015 376.558 58.5157 377.879 58.3153L379.416 58.0822L379.823 58.0202L379.931 58.0037L379.963 57.9988L379.979 57.9962L379.997 57.9933C380.003 57.9923 380.023 57.9885 380.051 57.9832L380.051 57.9838C383.098 57.4102 385.142 54.4954 384.599 51.4187C384.054 48.3256 381.103 46.2685 378.015 46.813C377.958 46.823 377.907 46.834 377.862 46.8447L377.802 46.8553L377.334 46.9376L375.669 47.2307L370.62 48.1192L369.112 48.3846L372.05 44.0688L381.712 43.4148C387.264 53.3498 398.672 59.1795 410.535 57.0878C425.513 54.4468 435.526 40.1836 432.888 25.2227C430.25 10.2619 415.962 0.282326 400.984 2.92333C389.065 5.0251 380.311 14.4853 378.55 25.793L373.287 27.3148C372.25 27.5747 371.169 27.8814 370.097 28.2372L369.439 28.4274L365.209 25.3813Z" stroke="#F15025" stroke-width="5"/>
<path d="M87.701 83.5722C82.4618 84.496 78.0722 83.4423 74.532 80.411C70.9849 77.3403 68.6001 72.3384 67.3776 65.4053C66.1551 58.4723 66.6749 52.8973 68.937 48.6805C71.1922 44.4242 74.9394 41.8342 80.1786 40.9103C83.6451 40.2991 86.6793 40.5764 89.2813 41.7423C91.9227 42.9012 94.1469 44.8039 95.9539 47.4503L92.363 50.5815C91.1607 48.6001 89.6015 47.1285 87.6854 46.1667C85.7623 45.1654 83.5205 44.8905 80.96 45.342C79.1873 45.6545 77.651 46.2707 76.3509 47.1904C75.0903 48.1032 74.0787 49.2767 73.3162 50.7109C72.5861 52.0988 72.1178 53.7045 71.9113 55.528C71.6979 57.3122 71.7787 59.2679 72.1538 61.395L73.2373 67.5402C73.9875 71.7946 75.5592 74.9496 77.9526 77.0053C80.3459 79.0609 83.3349 79.7727 86.9196 79.1406C89.5589 78.6752 91.6468 77.6166 93.1833 75.9647C94.7128 74.2734 95.6932 72.2321 96.1246 69.8409L100.521 71.6245C99.7351 74.7688 98.2703 77.4032 96.1267 79.5277C93.9761 81.6128 91.1675 82.961 87.701 83.5722Z" fill="#F15025"/>
<path d="M131.425 75.1314C129.652 75.4439 128.289 75.197 127.334 74.3905C126.419 73.577 125.738 72.4786 125.291 71.0952L124.996 71.1473C124.659 73.1562 123.806 74.7688 122.437 75.9851C121.067 77.2014 119.319 77.9971 117.192 78.3722C113.962 78.9418 111.295 78.5591 109.191 77.2241C107.126 75.8822 105.844 73.7931 105.344 70.9569C104.837 68.0812 105.492 65.6912 107.309 63.7868C109.165 61.8754 112.319 60.5273 116.77 59.7424L122.797 58.6796L122.266 55.6661C121.884 53.4996 121.001 51.9493 119.618 51.0153C118.235 50.0813 116.322 49.8296 113.88 50.2602C112.028 50.5867 110.545 51.2747 109.431 52.3242C108.355 53.3668 107.526 54.6503 106.941 56.1749L103.636 54.0161C104.172 52.2157 105.245 50.5846 106.856 49.1227C108.459 47.6214 110.64 46.6277 113.397 46.1415C117.1 45.4885 120.135 45.8875 122.503 47.3384C124.871 48.7892 126.34 51.1297 126.91 54.3599L129.869 71.141L133.355 70.5263L134.084 74.6625L131.425 75.1314ZM117.251 74.2188C118.433 74.0104 119.492 73.6815 120.428 73.2321C121.364 72.7827 122.142 72.2394 122.761 71.6023C123.379 70.9652 123.827 70.2771 124.103 69.5379C124.378 68.7988 124.447 68.0353 124.308 67.2475L123.422 62.2249L117.159 63.3294C114.441 63.8086 112.521 64.5533 111.399 65.5634C110.317 66.5666 109.908 67.8166 110.172 69.3135L110.391 70.5544C110.655 72.0513 111.391 73.1196 112.601 73.7593C113.85 74.3921 115.4 74.5452 117.251 74.2188Z" fill="#F15025"/>
<path d="M135.455 42.9832L140.182 42.1497L141.057 47.1132L141.293 47.0715C141.741 45.0023 142.633 43.3828 143.97 42.2128C145.34 40.9965 147.088 40.2008 149.215 39.8257C151.106 39.4923 152.886 39.5644 154.554 40.042C156.222 40.5195 157.71 41.3539 159.017 42.5451C160.363 43.7294 161.485 45.2577 162.384 47.13C163.322 48.9955 164.006 51.1493 164.437 53.5917C164.868 56.034 164.961 58.292 164.718 60.3658C164.514 62.4327 163.981 64.2527 163.122 65.826C162.301 67.3922 161.189 68.685 159.784 69.7044C158.38 70.7237 156.732 71.4001 154.842 71.7335C150.705 72.4628 147.398 71.0964 144.919 67.6343L144.683 67.6759L147.642 84.4571L142.915 85.2906L135.455 42.9832ZM152.792 67.7084C155.47 67.236 157.432 66.0372 158.676 64.1118C159.914 62.1471 160.293 59.8056 159.814 57.0876L158.897 51.8878C158.418 49.1697 157.264 47.1189 155.436 45.7353C153.601 44.3123 151.344 43.837 148.666 44.3093C147.602 44.4969 146.606 44.835 145.676 45.3238C144.78 45.7663 144.022 46.3061 143.403 46.9432C142.784 47.5803 142.324 48.3113 142.023 49.1362C141.754 49.9147 141.692 50.7176 141.838 51.5448L143.839 62.8898C144.012 63.8746 144.366 64.7262 144.899 65.4446C145.464 66.1166 146.15 66.6659 146.956 67.0923C147.755 67.4794 148.652 67.7275 149.646 67.8365C150.679 67.9386 151.728 67.8959 152.792 67.7084Z" fill="#F15025"/>
<path d="M181.497 66.3024C179.842 66.5941 178.502 66.3634 177.475 65.6102C176.481 64.8106 175.852 63.6624 175.588 62.1655L171.827 40.8346L166.805 41.7202L166.075 37.584L168.912 37.0839C169.936 36.9033 170.591 36.5848 170.876 36.1283C171.193 35.6256 171.262 34.8621 171.081 33.8379L170.081 28.1654L174.335 27.4152L175.825 35.8649L182.502 34.6875L183.231 38.8237L176.554 40.0011L180.472 62.2183L186.676 61.1243L187.405 65.2605L181.497 66.3024Z" fill="#F15025"/>
<path d="M217.634 59.9304C215.862 60.2429 214.498 59.996 213.543 59.1895C212.628 58.376 211.947 57.2776 211.5 55.8942L211.205 55.9463C210.869 57.9552 210.016 59.5678 208.646 60.7841C207.276 62.0004 205.528 62.7961 203.401 63.1712C200.171 63.7408 197.504 63.3581 195.4 62.0231C193.336 60.6812 192.053 58.5921 191.553 55.7559C191.046 52.8802 191.701 50.4902 193.518 48.5858C195.374 46.6744 198.528 45.3263 202.979 44.5414L209.006 43.4786L208.475 40.4651C208.093 38.2986 207.21 36.7483 205.827 35.8143C204.444 34.8803 202.531 34.6286 200.089 35.0592C198.237 35.3857 196.754 36.0737 195.64 37.1232C194.564 38.1658 193.735 39.4493 193.151 40.9739L189.845 38.8151C190.381 37.0147 191.454 35.3836 193.065 33.9217C194.668 32.4204 196.849 31.4267 199.606 30.9405C203.309 30.2875 206.345 30.6865 208.713 32.1374C211.08 33.5882 212.549 35.9287 213.119 39.1589L216.078 55.94L219.564 55.3253L220.293 59.4615L217.634 59.9304ZM203.46 59.0178C204.642 58.8094 205.701 58.4805 206.637 58.0311C207.574 57.5817 208.351 57.0384 208.97 56.4013C209.589 55.7642 210.036 55.0761 210.312 54.3369C210.588 53.5978 210.656 52.8343 210.517 52.0465L209.632 47.024L203.368 48.1284C200.65 48.6076 198.73 49.3523 197.609 50.3624C196.526 51.3656 196.117 52.6156 196.381 54.1125L196.6 55.3534C196.864 56.8503 197.601 57.9186 198.81 58.5583C200.059 59.1911 201.609 59.3442 203.46 59.0178Z" fill="#F15025"/>
<path d="M222.767 20.2158C221.742 20.3964 220.952 20.292 220.396 19.9026C219.873 19.4669 219.541 18.8552 219.402 18.0673L219.267 17.2992C219.128 16.5113 219.234 15.8429 219.584 15.2937C219.966 14.6983 220.669 14.3103 221.694 14.1297C222.718 13.9491 223.492 14.0766 224.015 14.5123C224.571 14.9017 224.919 15.4903 225.058 16.2781L225.193 17.0463C225.332 17.8341 225.21 18.5258 224.828 19.1212C224.478 19.6703 223.791 20.0352 222.767 20.2158ZM221.664 27.7822L226.391 26.9487L231.767 57.4384L227.04 58.2719L221.664 27.7822Z" fill="#F15025"/>
<path d="M241.812 55.6672L236.436 25.1775L241.163 24.344L242.038 29.3074L242.275 29.2658C242.717 27.4005 243.518 25.8377 244.677 24.5774C245.875 23.3101 247.617 22.475 249.901 22.0721C253.053 21.5164 255.715 22.103 257.888 23.8319C260.094 25.5145 261.523 28.2072 262.176 31.9101L265.625 51.4684L260.898 52.3019L257.595 33.5708C256.629 28.0953 253.842 25.7639 249.233 26.5765C248.288 26.7432 247.383 27.0246 246.519 27.4208C245.694 27.8099 244.968 28.3034 244.343 28.9011C243.717 29.4988 243.253 30.2101 242.952 31.035C242.683 31.8135 242.636 32.6952 242.809 33.68L246.539 54.8337L241.812 55.6672Z" fill="#F15025"/>
<path d="M298.644 46.3774C295.807 46.8775 293.33 46.7659 291.213 46.0426C289.127 45.2731 287.235 44.1038 285.537 42.5349L288.426 39.2229C289.872 40.5115 291.396 41.4408 293 42.0111C294.596 42.5419 296.359 42.6372 298.29 42.2968C300.299 41.9426 301.778 41.2349 302.728 40.1738C303.718 39.1057 304.074 37.7838 303.796 36.2082C303.588 35.0264 303.017 34.0913 302.083 33.403C301.182 32.6684 299.699 32.3206 297.634 32.3597L295.149 32.4323C293.696 32.4854 292.344 32.4192 291.093 32.2336C289.835 32.0087 288.694 31.6413 287.669 31.1314C286.678 30.5751 285.836 29.83 285.143 28.8961C284.49 27.9553 284.038 26.7758 283.788 25.3577C283.524 23.8608 283.57 22.5122 283.927 21.312C284.278 20.0724 284.859 18.995 285.673 18.0798C286.526 17.1577 287.59 16.4013 288.867 15.8106C290.137 15.1805 291.54 14.7301 293.076 14.4592C295.558 14.0216 297.703 14.0902 299.51 14.6651C301.357 15.2331 303.046 16.1741 304.577 17.4881L301.946 20.8766C301.109 20.0492 299.975 19.3759 298.543 18.8567C297.104 18.2981 295.4 18.1924 293.43 18.5397C291.461 18.887 290.04 19.5842 289.169 20.6315C288.33 21.6324 288.039 22.8616 288.296 24.3191C288.56 25.816 289.243 26.8124 290.346 27.3085C291.489 27.7975 293.033 28.0329 294.979 28.0147L297.405 27.9525C300.883 27.8672 303.46 28.4283 305.135 29.6358C306.803 30.8038 307.842 32.55 308.252 34.8741C308.773 37.8285 308.178 40.3298 306.468 42.3779C304.758 44.426 302.149 45.7592 298.644 46.3774Z" fill="#F15025"/>
<path d="M251.478 104.734C249.823 105.026 248.483 104.795 247.456 104.042C246.463 103.242 245.841 102.134 245.59 100.715L238.745 61.8943L243.472 61.0608L250.453 100.65L254.944 99.8582L255.673 103.994L251.478 104.734Z" fill="#F15025"/>
<path d="M274.202 101.458C272.153 101.82 270.216 101.775 268.39 101.326C266.565 100.876 264.92 100.069 263.455 98.9058C262.023 97.696 260.803 96.1851 259.793 94.3729C258.776 92.5214 258.052 90.3745 257.621 87.9321C257.197 85.5292 257.147 83.2839 257.469 81.1962C257.791 79.1085 258.422 77.2711 259.361 75.684C260.332 74.0505 261.598 72.7103 263.16 71.6631C264.722 70.616 266.527 69.9118 268.576 69.5506C270.624 69.1895 272.541 69.2372 274.328 69.694C276.154 70.1437 277.802 70.97 279.273 72.1728C280.738 73.3362 281.978 74.8437 282.995 76.6952C284.012 78.5468 284.733 80.674 285.156 83.0769C285.587 85.5193 285.641 87.7843 285.319 89.872C284.989 91.9203 284.339 93.7611 283.368 95.3946C282.39 96.9886 281.12 98.3092 279.558 99.3564C278.036 100.397 276.25 101.097 274.202 101.458ZM273.462 97.2631C276.023 96.8117 277.971 95.6557 279.309 93.7952C280.646 91.9347 281.03 89.3894 280.46 86.1592L279.689 81.7867C279.12 78.5565 277.888 76.296 275.995 75.0051C274.103 73.7142 271.876 73.2944 269.315 73.7459C266.755 74.1974 264.806 75.3534 263.469 77.2139C262.131 79.0743 261.748 81.6197 262.317 84.8498L263.088 89.2224C263.658 92.4526 264.889 94.7131 266.782 96.004C268.675 97.2949 270.902 97.7146 273.462 97.2631Z" fill="#F15025"/>
<path d="M321.916 95.7868C322.472 98.9382 321.637 101.461 319.412 103.357C317.234 105.284 313.683 106.682 308.759 107.55C303.992 108.391 300.451 108.345 298.134 107.413C295.817 106.481 294.446 104.814 294.023 102.411C293.731 100.757 293.935 99.3802 294.635 98.282C295.342 97.2232 296.405 96.3451 297.826 95.6479L297.711 94.9979C295.746 94.4508 294.59 93.1924 294.243 91.2228C293.972 89.6865 294.26 88.4376 295.106 87.4761C295.945 86.4752 297.097 85.6424 298.564 84.9775L298.523 84.7412C296.558 84.1941 294.921 83.2033 293.612 81.7688C292.342 80.3273 291.52 78.543 291.145 76.4158C290.874 74.8795 290.9 73.4128 291.222 72.0156C291.544 70.6184 292.118 69.38 292.943 68.3003C293.8 67.1743 294.873 66.2337 296.162 65.4785C297.49 64.7163 299.02 64.1825 300.753 63.8768C302.92 63.4948 304.92 63.5484 306.752 64.0375L306.659 63.5058C306.45 62.324 306.556 61.3102 306.975 60.4646C307.388 59.5795 308.225 59.0258 309.485 58.8035L314.035 58.0013L314.764 62.1375L308.974 63.1585L309.317 65.1084C310.587 65.8594 311.635 66.8524 312.463 68.0875C313.322 69.2764 313.898 70.698 314.189 72.3525C314.46 73.8888 314.435 75.3555 314.112 76.7527C313.79 78.1499 313.2 79.4115 312.343 80.5375C311.518 81.6172 310.441 82.5381 309.113 83.3002C307.785 84.0624 306.255 84.5963 304.522 84.9019C303.537 85.0756 302.535 85.1507 301.515 85.1274C300.54 85.5837 299.687 86.1606 298.957 86.8579C298.22 87.5159 297.935 88.3176 298.101 89.263C298.261 90.169 298.802 90.7032 299.724 90.8655C300.647 91.0279 301.797 90.9875 303.176 90.7444L309.675 89.5983C313.457 88.9315 316.323 89.1775 318.274 90.3364C320.258 91.4489 321.472 93.2657 321.916 95.7868ZM317.547 96.9227C317.332 95.7016 316.685 94.8001 315.608 94.2183C314.577 93.669 312.88 93.6028 310.516 94.0195L300.353 95.8116C298.615 97.0116 297.912 98.557 298.246 100.448C298.482 101.787 299.176 102.843 300.327 103.615C301.518 104.379 303.315 104.55 305.718 104.126L310.091 103.355C312.73 102.89 314.705 102.115 316.017 101.031C317.329 99.9465 317.839 98.5772 317.547 96.9227ZM303.855 81.1202C305.864 80.766 307.376 80.012 308.391 78.8582C309.399 77.665 309.726 76.0639 309.372 74.0549L309.08 72.4004C308.726 70.3914 307.874 69.0184 306.526 68.2814C305.171 67.5049 303.488 67.2938 301.479 67.6481C299.47 68.0023 297.962 68.776 296.954 69.9692C295.939 71.123 295.608 72.7044 295.962 74.7134L296.254 76.3679C296.608 78.3769 297.463 79.7696 298.819 80.5461C300.167 81.2831 301.846 81.4745 303.855 81.1202Z" fill="#F15025"/>
<path d="M59.0459 74.446L16.6991 81.9129" stroke="#F15025" stroke-width="3" stroke-linecap="round"/>
<path d="M229.413 78.9302L7.83106 118.001" stroke="#F15025" stroke-width="3" stroke-linecap="round"/>
<path d="M231.201 76.9475C231.008 75.8548 229.963 75.1278 228.871 75.3274L7.43586 115.833C6.35422 116.031 5.63739 117.077 5.82833 118.16C6.01927 119.243 7.05079 119.981 8.13486 119.797L230.07 82.1247C231.164 81.939 231.897 80.8983 231.705 79.8056L231.201 76.9475Z" fill="#F15025"/>
<path d="M61.0224 73.5329C60.8297 72.4402 59.7844 71.7132 58.6929 71.9129L1.63831 82.3495C0.556679 82.5473 -0.160155 83.5938 0.030785 84.6767C0.221725 85.7595 1.25325 86.4977 2.33732 86.3137L59.5206 76.6071C60.6146 76.4214 61.3482 75.3807 61.1556 74.288L61.0224 73.5329Z" fill="#F15025"/>
<path d="M270.495 18.436L275.419 17.5678L277.377 33.4694L274.094 34.0483L270.495 18.436Z" fill="#F15025"/>
</svg>
