<?xml version="1.0" encoding="UTF-8" standalone="no"?>
<svg
   xmlns:dc="http://purl.org/dc/elements/1.1/"
   xmlns:cc="http://creativecommons.org/ns#"
   xmlns:rdf="http://www.w3.org/1999/02/22-rdf-syntax-ns#"
   xmlns:svg="http://www.w3.org/2000/svg"
   xmlns="http://www.w3.org/2000/svg"
   xmlns:xlink="http://www.w3.org/1999/xlink"
   viewBox="0 0 569.48029 141.7323"
   id="svg488"
   height="141.7323"
   width="569.48029"
   version="1.1">
  <metadata
     id="metadata494">
    <rdf:RDF>
      <cc:Work
         rdf:about="">
        <dc:format>image/svg+xml</dc:format>
        <dc:type
           rdf:resource="http://purl.org/dc/dcmitype/StillImage" />
        <dc:title></dc:title>
      </cc:Work>
    </rdf:RDF>
  </metadata>
  <defs
     id="defs492" />
  <g
     id="Layer1000">
    <g
       id="Layer1001">
      <g
         id="Layer1002">
        <path
           id="path253"
           style="fill:#a7dbdf;fill-rule:evenodd;stroke:#43aacb;stroke-width:0.21600001;stroke-linecap:butt;stroke-linejoin:miter;stroke-dasharray:none"
           d="m 183.8647,84.5426 c 0.2931,3.5938 1.5472,5.3932 3.762,5.3977 l -1e-4,-10e-5 36.3176,0.6244 8.5331,-15.4012 -0.9366,-2.8096 h -10e-5 10e-5 l -8.429,15.5052 -35.381,-0.6244 v 0 c -2.3361,-0.1123 -3.625,-1.0102 -3.8661,-2.6939 z" />
        <path
           id="path255"
           style="fill:#a7dbdf;fill-rule:evenodd;stroke:#43aacb;stroke-width:0.21600001;stroke-linecap:butt;stroke-linejoin:miter;stroke-dasharray:none"
           d="m 213.8502,66.7344 c -1.9578,0.1791 -3.5882,2.3296 -4.8909,6.4519 v 0 c -1.6649,-0.3469 -1.8037,-1.8038 -0.4162,-4.3706 v 0 c 1.1099,-3.1565 2.7749,-4.7175 4.9949,-4.6828 v 0 l 12.7996,-1.1447 3.2259,-6.9721 h -1e-4 1e-4 l 0.9366,2.9137 -3.33,6.8681 -13.3199,0.9365 z" />
        <path
           id="path257"
           style="fill:#a7dbdf;fill-rule:evenodd;stroke:#43aacb;stroke-width:0.21600001;stroke-linecap:butt;stroke-linejoin:miter;stroke-dasharray:none"
           d="m 216.6125,56.6559 c 1.0608,-2.6261 2.5335,-3.9494 4.418,-3.9698 v 0 h 22.1651 l 4.2666,-8.2209 -0.9366,-2.7056 v 0 0 l -4.0584,8.1168 -21.957,0.3122 v 0 c -2.3242,-0.1733 -3.8851,1.11 -4.6828,3.8503 -0.7285,1.9078 -0.4163,2.775 0.9365,2.6015 z" />
      </g>
      <g
         id="Layer1003">
        <path
           id="path260"
           style="fill:#a7dbdf;fill-rule:evenodd;stroke:#43aacb;stroke-width:0.21600001;stroke-linecap:butt;stroke-linejoin:miter;stroke-dasharray:none"
           d="m 354.2305,104.9163 -1.7882,4.0872 v 0 c -0.7124,1.6468 -0.3406,2.498 1.1156,2.5536 v 0 c 0,0 0.9678,-2.2576 1.439,-3.7457 0.4712,-1.4881 1.4759,-2.2707 3.0138,-2.3476 v 0 l 13.4756,-1.0546 2.8123,-7.3823 -0.9374,-2.5779 v 0 l -2.8123,7.3822 -13.1241,0.7031 v 0 c -1.6048,-0.002 -2.6697,0.7918 -3.1943,2.382 z" />
        <path
           id="path262"
           style="fill:#a7dbdf;fill-rule:evenodd;stroke:#43aacb;stroke-width:0.21600001;stroke-linecap:butt;stroke-linejoin:miter;stroke-dasharray:none"
           d="m 360.0208,90.9514 -0.8515,1.8734 v 0 c -0.5121,1.8744 0,2.6111 1.5365,2.2101 v 0 c 0.5616,-2.5306 1.8116,-3.7414 3.7498,-3.6326 v 0 l 22.1468,0.2344 3.1638,-7.6166 -0.7031,-2.9295 -1e-4,-10e-5 1e-4,10e-5 -3.3982,7.851 -22.0296,-0.2344 v 0 c -1.9115,0.0871 -3.1163,0.8351 -3.6145,2.2442 z" />
        <path
           id="path264"
           style="fill:#a7dbdf;fill-rule:evenodd;stroke:#43aacb;stroke-width:0.21600001;stroke-linecap:butt;stroke-linejoin:miter;stroke-dasharray:none"
           d="m 329.52,123.6416 c 0.2898,3.3049 1.8965,4.9794 4.8205,5.0235 l 10e-5,1e-4 35.8567,0.9374 7.2651,-15.7019 -0.8202,-2.8123 v 0 l -7.2651,15.4676 -35.7396,-0.7031 v 0 c -2.3775,0.1732 -3.7503,-0.5642 -4.1177,-2.2127 z" />
      </g>
      <path
         id="path267"
         style="fill:#a7dbdf;fill-rule:evenodd;stroke:#43aacb;stroke-width:0.21600001;stroke-linecap:butt;stroke-linejoin:miter;stroke-dasharray:none"
         d="m 297.7301,74.0394 0.9373,3.1869 255.735,0.2317 3.4477,-5.8556 -1.0712,-2.9459 -2.812,5.3561 z" />
      <path
         id="path269"
         style="fill:#a7dbdf;fill-rule:evenodd;stroke:#43aacb;stroke-width:0.21600001;stroke-linecap:butt;stroke-linejoin:miter;stroke-dasharray:none"
         d="m 11.3958,99.9564 260.8392,0.4351 v 0 l 1.8757,-6.2941 h -1e-4 1e-4 l 0.9374,2.8123 -1.8748,6.0933 h -260.84 l -0.9375,-3.0466 z" />
      <g
         id="Layer1004">
        <path
           id="path271"
           style="fill:#a7dbdf;fill-rule:evenodd;stroke:#43aacb;stroke-width:0.21600001;stroke-linecap:butt;stroke-linejoin:miter;stroke-dasharray:none"
           d="m 316.247,88.6915 c 2.8586,-0.2084 3.9788,0.8614 3.3608,3.2096 l 0.0731,0.0163 c 0.1042,-0.4163 -1.1099,-0.555 -3.642,-0.4163 v 0 l -26.848,1.8731 -0.9365,-2.8096 v -1e-4 1e-4 l 27.9926,-1.8731 z" />
        <path
           id="path273"
           style="fill:#a7dbdf;fill-rule:evenodd;stroke:#43aacb;stroke-width:0.21600001;stroke-linecap:butt;stroke-linejoin:miter;stroke-dasharray:none"
           d="m 297.0996,110.3363 c -0.5697,1.4652 -0.248,2.3359 0.9647,2.6126 l -0.0281,0.093 4.8909,-16.1296 -0.8325,-2.7056 z" />
        <path
           id="path275"
           style="fill:#a7dbdf;fill-rule:evenodd;stroke:#43aacb;stroke-width:0.21600001;stroke-linecap:butt;stroke-linejoin:miter;stroke-dasharray:none"
           d="m 309.0368,128.8618 c 5.7234,-0.3468 10.2672,-3.7462 13.6321,-10.198 v 0 l 10.094,-26.848 v 0 c 0.9939,-3.1824 0.9939,-5.6848 0,-7.5072 l -0.03,0.0025 c 0.0307,0.9699 -0.1327,2.1188 -0.4903,3.4463 v 0 l -10.9265,28.8251 v 0 c -3.3649,6.0009 -7.2152,9.1575 -11.5509,9.4697 v 0 l -38.711,0.7284 v -1e-4 1e-4 l 1.0406,2.9137 36.942,-0.8325 z" />
      </g>
      <g
         id="Layer1005">
        <path
           id="path278"
           style="fill:#a7dbdf;fill-rule:evenodd;stroke:#43aacb;stroke-width:0.21600001;stroke-linecap:butt;stroke-linejoin:miter;stroke-dasharray:none"
           d="m 170.759,49.921 0.8218,2.7123 -8.2597,19.4997 0.002,1e-4 c -7e-4,0 -0.001,-1e-4 -0.002,-1e-4 -1.3309,-0.0307 -1.703,-0.7947 -1.1161,-2.2916 v 0 l 8.554,-19.9204 v 0 z" />
        <path
           id="path280"
           style="fill:#a7dbdf;fill-rule:evenodd;stroke:#43aacb;stroke-width:0.21600001;stroke-linecap:butt;stroke-linejoin:miter;stroke-dasharray:none"
           d="m 143.3392,69.4899 c -0.6913,1.9055 -0.3788,2.8429 0.9374,2.8123 v 0 l 13.5927,-27.4199 -0.8202,-3.0466 v 0 0 l -13.7099,27.6542 z" />
        <path
           id="path282"
           style="fill:#a7dbdf;fill-rule:evenodd;stroke:#43aacb;stroke-width:0.21600001;stroke-linecap:butt;stroke-linejoin:miter;stroke-dasharray:none"
           d="m 122.9304,85.369 c 0.5965,3.5389 2.1957,5.1726 4.7975,4.9013 v 0 l 37.4665,0.3405 v 0 c 3.9734,-0.0457 7.0392,-1.9302 9.1972,-5.6533 l 20.1547,-39.8408 -1.0546,-2.9295 v 0 l -20.3891,40.7782 h 1e-4 c -2.0895,3.2743 -4.7541,4.8576 -7.9934,4.7503 v 0 l -37.3815,-0.2555 v 0 c -2.7001,0.2384 -4.2991,-0.4581 -4.7968,-2.0896 z" />
      </g>
      <g
         id="Layer1006">
        <path
           id="path285"
           style="fill:#a7dbdf;fill-rule:evenodd;stroke:#43aacb;stroke-width:0.21600001;stroke-linecap:butt;stroke-linejoin:miter;stroke-dasharray:none"
           d="m 279.2973,48.9718 c 2.3273,-0.2839 3.1788,0.6812 2.5545,2.8951 v 0 l -30.9099,1.4476 -0.9367,-2.9803 1e-4,-1e-4 -1e-4,1e-4 29.2921,-1.3624 z" />
        <path
           id="path287"
           style="fill:#a7dbdf;fill-rule:evenodd;stroke:#43aacb;stroke-width:0.21600001;stroke-linecap:butt;stroke-linejoin:miter;stroke-dasharray:none"
           d="m 285.0024,71.6221 c 0.5066,-1.0232 0.3409,-2.8383 -0.4972,-5.4455 v 0.0019 c 0.0666,0.5744 0.0338,1.1968 -0.0988,1.8672 v 0 l -7.7488,19.7551 -16.6897,0.3406 v 0 l 1.0219,2.6397 16.7748,-0.4257 7.2378,-18.7333 z" />
        <path
           id="path289"
           style="fill:#a7dbdf;fill-rule:evenodd;stroke:#43aacb;stroke-width:0.21600001;stroke-linecap:butt;stroke-linejoin:miter;stroke-dasharray:none"
           d="m 269.3845,71.4398 c -0.6459,-0.13 -1.3154,-0.0977 -2.0084,0.0971 v 0 l -8.0894,2.9803 -6.216,16.1788 -19.8403,0.3406 -0.7664,-2.7249 v 0 l -1e-4,1e-4 19.1591,-0.4257 6.8973,-16.1788 6.8972,-2.5545 10e-5,-1e-4 c 3.3988,-1.1895 4.721,-0.427 3.9668,2.287 z" />
        <path
           id="path291"
           style="fill:#a7dbdf;fill-rule:evenodd;stroke:#43aacb;stroke-width:0.21600001;stroke-linecap:butt;stroke-linejoin:miter;stroke-dasharray:none"
           d="m 263.97,55.6136 h 2e-4 l -1.1922,3.8318 c 0.738,-0.1703 1.476,-0.3406 2.214,-0.5109 h -1e-4 L 263.97,55.6136 Z" />
        <path
           id="path293"
           style="fill:#a7dbdf;fill-rule:evenodd;stroke:#43aacb;stroke-width:0.21600001;stroke-linecap:butt;stroke-linejoin:miter;stroke-dasharray:none"
           d="m 293.7728,48.1187 -2.1287,4.9389 v 0 c -2.1571,4.0872 -5.6768,7.1526 -10.5587,9.1964 1.1264,0.4643 1.9775,1.0621 2.5527,1.7926 l -0.001,-0.0015 c 3.8349,-1.8194 6.3622,-3.7506 7.5816,-5.7931 v 0 l 3.0655,-6.2163 v 0 c 0.8893,-2.3847 0.7948,-4.655 -0.2832,-6.8108 l 10e-5,0.0014 c 0.1351,0.8133 0.0592,1.7776 -0.2279,2.8924 z" />
      </g>
      <g
         id="Layer1007">
        <path
           id="path296"
           style="fill:#a7dbdf;fill-rule:evenodd;stroke:#43aacb;stroke-width:0.21600001;stroke-linecap:butt;stroke-linejoin:miter;stroke-dasharray:none"
           d="m 29.1225,90.6108 c -3.6984,-0.2567 -5.6768,-2.0437 -5.935,-5.361 l -4e-4,-0.0017 c 0.5256,1.7974 2.1919,2.7051 4.9988,2.723 L 58.074,88.3117 68.9734,71.5369 69.4843,74.5172 59.0958,91.292 29.1225,90.6108 Z" />
        <path
           id="path298"
           style="fill:#a7dbdf;fill-rule:evenodd;stroke:#43aacb;stroke-width:0.21600001;stroke-linecap:butt;stroke-linejoin:miter;stroke-dasharray:none"
           d="m 48.1113,72.5587 c -1.4137,-0.1849 -1.811,-1.0363 -1.1921,-2.5545 v 0 L 65.6525,40.4567 v 0 0 l 1.1069,2.8099 -18.6481,29.2921 z" />
      </g>
      <g
         id="Layer1008">
        <path
           id="path301"
           style="fill:#a7dbdf;fill-rule:evenodd;stroke:#43aacb;stroke-width:0.21600001;stroke-linecap:butt;stroke-linejoin:miter;stroke-dasharray:none"
           d="m 105.0016,90.2524 -28.0967,0.4162 v 0 C 73.4027,90.4561 71.7711,88.1712 72.0102,83.814 v 2e-4 c -0.1435,2.852 1.4187,4.2349 4.6867,4.1489 v 0 l 29.1372,-0.6244 v 0 c 4.4746,-0.0692 7.4924,-1.8037 9.0534,-5.2031 v 0 l 13.1117,-34.2363 v 0 c 0.0889,-0.7241 0.1081,-1.3832 0.0575,-1.9771 l -2e-4,-0.0016 c 0.8793,1.701 1.0336,3.7481 0.4631,6.1412 v 0 l -12.2793,31.6347 v 0 c -1.8036,4.1973 -5.5501,6.3825 -11.2387,6.5559 z" />
        <path
           id="path303"
           style="fill:#a7dbdf;fill-rule:evenodd;stroke:#43aacb;stroke-width:0.21600001;stroke-linecap:butt;stroke-linejoin:miter;stroke-dasharray:none"
           d="m 106.2428,49.9802 6.4088,-0.3451 v 0 c 1.4459,-0.0822 1.7747,0.7232 0.9859,2.4156 v 0 c 0,0 -5.5544,0.3944 -6.9017,0.493 -1.3474,0.0986 -2.2348,0.7232 -2.6621,1.8733 -0.4273,1.1501 -8.3807,17.353 -8.3807,17.353 v 0 c -1.3969,0.1151 -1.7749,-0.5916 -1.1339,-2.1199 v 0 l 8.4299,-17.5008 v 0 c 0.5588,-1.3804 1.6433,-2.1036 3.2538,-2.1691 z" />
      </g>
      <g
         id="Layer1009">
        <path
           id="path306"
           style="fill:#a7dbdf;fill-rule:evenodd;stroke:#43aacb;stroke-width:0.21600001;stroke-linecap:butt;stroke-linejoin:miter;stroke-dasharray:none"
           d="m 412.6082,92.2296 -6.4518,15.4011 v 0 c -0.883,2.1133 -0.6937,3.3301 0.5676,3.6503 v 0 l 6.8729,-17.0261 v 0 c 0.6069,-2.0601 2.2892,-2.9781 5.0469,-2.7538 v 0 l 20.7083,0.2082 3.434,-7.8047 -1.1447,-2.8096 -10e-5,-1e-4 10e-5,1e-4 -3.1218,7.9087 -21.6449,-0.2082 v 0 c -2.1853,-0.0347 -3.6075,1.11 -4.2665,3.4341 z" />
        <path
           id="path308"
           style="fill:#a7dbdf;fill-rule:evenodd;stroke:#43aacb;stroke-width:0.21600001;stroke-linecap:butt;stroke-linejoin:miter;stroke-dasharray:none"
           d="m 382.8812,124.1263 c 0.501,1.2783 1.7731,1.8499 3.8156,1.7151 v 1e-4 l 35.0688,0.9366 7.5965,-15.8174 h -10e-5 10e-5 l 0.8325,2.9137 -7.1802,15.9215 -35.4851,-1.0406 -10e-5,-2e-4 c -2.3352,0.0174 -3.8848,-1.5262 -4.6487,-4.6305 z" />
      </g>
      <g
         id="Layer1010">
        <path
           id="path311"
           style="fill:#a7dbdf;fill-rule:evenodd;stroke:#43aacb;stroke-width:0.21600001;stroke-linecap:butt;stroke-linejoin:miter;stroke-dasharray:none"
           d="m 523.5672,91.7594 c -2.5293,5.1523 -2.5293,5.1523 -2.5293,5.1523 v 0 c -1.6863,0.281 -2.2481,-0.2499 -1.6862,-1.5925 v 0 l 4.4966,-8.3373 11.1476,-0.4684 v 0 c 1.0615,0.3121 1.1241,0.9992 0.1873,2.0608 l -0.5701,0.6488 -7.2052,0.1944 v 0 c -2.092,-0.1561 -3.3722,0.6246 -3.8407,2.3419 z" />
        <path
           id="path313"
           style="fill:#a7dbdf;fill-rule:evenodd;stroke:#43aacb;stroke-width:0.21600001;stroke-linecap:butt;stroke-linejoin:miter;stroke-dasharray:none"
           d="m 507.3611,119.4877 -1e-4,2e-4 0.6558,-2.3419 -0.7495,-2.6229 v 0 l -1.1241,3.185 v 0 c -0.5307,1.2803 -0.1248,1.8735 1.2178,1.7798 z" />
        <path
           id="path315"
           style="fill:#a7dbdf;fill-rule:evenodd;stroke:#43aacb;stroke-width:0.21600001;stroke-linecap:butt;stroke-linejoin:miter;stroke-dasharray:none"
           d="m 542.9585,103.4691 -8.712,17.3303 v 0 c -1.9883,3.555 -5.0232,5.2496 -9.1045,5.0841 v -1e-4 l -31.2415,0.4803 2e-4,1e-4 c -2.6016,0.1819 -4.1506,-0.4683 -4.6469,-1.9509 l -4e-4,-0.001 c 0.465,3.4759 2.1605,5.0508 5.0865,4.7249 v 0 l 30.8198,-0.3747 v 0 c 5.0899,0.2498 8.4934,-1.4988 10.2109,-5.2459 v 0 l 8.4009,-17.4386 0.0301,0.0146 c 1.118,-2.0107 0.8742,-4.6214 -0.7311,-7.8316 l 2e-4,0.0014 c 0.3866,1.3671 0.3493,3.103 -0.1122,5.2072 z" />
        <path
           id="path317"
           style="fill:#a7dbdf;fill-rule:evenodd;stroke:#43aacb;stroke-width:0.21600001;stroke-linecap:butt;stroke-linejoin:miter;stroke-dasharray:none"
           d="m 506.7152,111.2155 c 11.2036,-2.3855 16.7347,-3.4749 16.5934,-3.2687 l -0.01,-0.002 c 1.6959,-2.7618 -0.0255,-3.473 -5.1649,-2.1337 v 0 l -10.2108,2.2482 v 0 c -5.2422,0.8311 -8.2159,-0.2866 -8.9207,-3.3531 l -2e-4,-10e-4 c 0.7343,4.8652 3.3064,7.0351 7.7155,6.51 z" />
        <path
           id="path319"
           style="fill:#a7dbdf;fill-rule:evenodd;stroke:#43aacb;stroke-width:0.21600001;stroke-linecap:butt;stroke-linejoin:miter;stroke-dasharray:none"
           d="m 533.4546,94.7102 c 2.0605,-0.306 3.7989,-0.3321 5.2148,-0.0781 l -0.001,-7e-4 10.2858,-0.1553 1.9353,-4.4029 v 0 c 1.0218,-2.3728 1.0218,-4.4915 0,-6.3556 l -2e-4,-0.0017 c 0.0729,0.6753 -0.0725,1.4518 -0.4362,2.3292 l -2.5293,5.808 -15.4568,-0.1873 v 0 l 0.988,3.0444 z" />
      </g>
      <g
         id="Layer1011">
        <path
           id="path322"
           style="fill:#a7dbdf;fill-rule:evenodd;stroke:#43aacb;stroke-width:0.21600001;stroke-linecap:butt;stroke-linejoin:miter;stroke-dasharray:none"
           d="m 465.5756,108.8795 c 1.5952,-0.198 2.4286,-0.1015 2.5001,0.2896 l -4e-4,0.002 c 0.4349,-2.2804 -0.5021,-3.2794 -2.8119,-2.9978 v 0 l -4.0584,0.7285 -9.9899,19.2514 -19.7717,0.2081 v -1e-4 1e-4 l 0.9365,2.8097 19.6677,0.1041 10.4062,-19.7718 3.1218,-0.6243 z" />
        <path
           id="path324"
           style="fill:#a7dbdf;fill-rule:evenodd;stroke:#43aacb;stroke-width:0.21600001;stroke-linecap:butt;stroke-linejoin:miter;stroke-dasharray:none"
           d="m 479.3907,104.7668 c 4.6038,-1.6454 8.2197,-4.2289 10.8476,-7.7504 v 0 l 7.4924,-13.528 -0.7284,-3.0178 v 0 l -8.325,14.3605 v 0 c -3.1564,4.1276 -7.4923,6.7986 -13.0076,8.0128 v 0 c 1.5084,0.5157 2.7494,1.1571 3.7225,1.924 z" />
        <path
           id="path326"
           style="fill:#a7dbdf;fill-rule:evenodd;stroke:#43aacb;stroke-width:0.21600001;stroke-linecap:butt;stroke-linejoin:miter;stroke-dasharray:none"
           d="m 482.5377,115.8516 c 0.6908,-3.0678 0.4162,-5.6885 -0.8238,-7.8619 l 5e-4,0.002 c 0.4788,1.4758 0.4409,3.1941 -0.1133,5.1546 v 1e-4 l -6.2437,13.2158 -15.297,-0.3122 v 0 l 1.0406,2.8097 15.193,0.3122 6.2437,-13.3199 z" />
        <path
           id="path328"
           style="fill:#a7dbdf;fill-rule:evenodd;stroke:#43aacb;stroke-width:0.21600001;stroke-linecap:butt;stroke-linejoin:miter;stroke-dasharray:none"
           d="m 467.5655,99.3427 c -0.8613,0.3615 -1.7327,0.6267 -2.6141,0.7955 l -10e-5,1e-4 9.9899,-19.4596 -10e-5,-1e-4 -0.0112,1e-4 0.9478,2.6329 -8.3199,16.0079 z" />
      </g>
    </g>
    <g
       id="Layer1012">
      <defs
         id="defs338">
        <linearGradient
           id="grad1">
          <stop
             id="stop332"
             stop-opacity="1.0000"
             stop-color="#c9e4e6"
             offset="0%" />
          <stop
             id="stop334"
             stop-opacity="1.0000"
             stop-color="#0091ce"
             offset="100%" />
        </linearGradient>
        <linearGradient
           gradientUnits="objectBoundingBox"
           gradientTransform="rotate(180,0.5,0.5)"
           y2="1"
           x2="0"
           y1="0"
           x1="0"
           id="grad2"
           xlink:href="#grad1" />
      </defs>
      <path
         id="path340"
         style="fill:url(#grad2)"
         d="m 11.3958,99.9564 260.8392,0.4351 v 0 l 1.8757,-6.2941 v 1e-4 -1e-4 l -258.9651,0.2344 -3.7498,5.6246 h 2e-4 z" />
      <defs
         id="defs348">
        <linearGradient
           id="grad3">
          <stop
             id="stop342"
             stop-opacity="1.0000"
             stop-color="#c9e4e6"
             offset="0%" />
          <stop
             id="stop344"
             stop-opacity="1.0000"
             stop-color="#0091ce"
             offset="100%" />
        </linearGradient>
        <linearGradient
           gradientUnits="objectBoundingBox"
           gradientTransform="rotate(180,0.5,0.5)"
           y2="1"
           x2="0"
           y1="0"
           x1="0"
           id="grad4"
           xlink:href="#grad3" />
      </defs>
      <path
         id="path350"
         style="fill:url(#grad4)"
         d="m 301.1045,68.228 -3.3744,5.8114 v 1e-4 -1e-4 l 256.2368,-0.0268 2.812,-5.3561 v 0 L 301.1045,68.228 Z" />
    </g>
    <g
       id="Layer1013">
      <defs
         id="defs359">
        <linearGradient
           id="grad5">
          <stop
             id="stop353"
             stop-opacity="1.0000"
             stop-color="#c9e4e6"
             offset="0%" />
          <stop
             id="stop355"
             stop-opacity="1.0000"
             stop-color="#0091ce"
             offset="100%" />
        </linearGradient>
        <linearGradient
           gradientUnits="objectBoundingBox"
           gradientTransform="rotate(-175,0.5,0.5)"
           y2="1"
           x2="0"
           y1="0"
           x1="0"
           id="grad6"
           xlink:href="#grad5" />
      </defs>
      <path
         id="path361"
         style="fill:url(#grad6)"
         d="M 200.3221,48.6277 C 184.4007,81.095 184.4007,81.095 184.4007,81.095 v 0 c -1.3873,3.9197 -0.2774,5.9661 3.33,6.1396 v 0 l 35.381,0.6244 8.429,-15.5052 -22.5814,0.8325 v 0 c -1.6649,-0.3469 -1.8037,-1.8038 -0.4162,-4.3706 v 0 c 1.1099,-3.1565 2.7749,-4.7175 4.9949,-4.6828 v 0 l 12.7996,-1.1447 3.2259,-6.9721 1e-4,10e-5 -1e-4,-10e-5 -12.7996,0.6243 v 0 c -1.3528,0.1735 -1.665,-0.6937 -0.9365,-2.6015 0.7977,-2.7403 2.3586,-4.0236 4.6828,-3.8503 v 0 l 21.957,-0.3122 4.0584,-8.1168 v 0 l -36.6297,0.6244 v 0 c -3.8851,-0.1387 -7.0764,1.9425 -9.5738,6.2437 z" />
      <defs
         id="defs369">
        <linearGradient
           id="grad7">
          <stop
             id="stop363"
             stop-opacity="1.0000"
             stop-color="#c9e4e6"
             offset="0%" />
          <stop
             id="stop365"
             stop-opacity="1.0000"
             stop-color="#0091ce"
             offset="100%" />
        </linearGradient>
        <linearGradient
           gradientUnits="objectBoundingBox"
           gradientTransform="rotate(-175,0.5,0.5)"
           y2="1"
           x2="0"
           y1="0"
           x1="0"
           id="grad8"
           xlink:href="#grad7" />
      </defs>
      <path
         id="path371"
         style="fill:url(#grad8)"
         d="m 293.7729,48.1202 -2.1287,4.9389 v 0 c -2.157,4.0871 -5.6768,7.1526 -10.5587,9.1963 2.7532,1.1353 3.8602,3.0655 3.3209,5.7903 v 0 l -7.7488,19.7551 -16.6897,0.3406 8.8558,-15.1569 v 0 c 1.7031,-3.9454 0.5676,-5.2227 -3.4061,-3.8318 v 0 l -6.8972,2.5545 -6.8973,16.1788 -19.1591,0.4257 16.6897,-30.5693 14.8163,-2.1288 -1.1921,3.8318 c 0.738,-0.1703 1.476,-0.3406 2.214,-0.5109 h 1e-4 c 11.1831,-1.618 16.8031,-3.974 16.8598,-7.0676 v 0 c 0.6243,-2.2139 -0.2272,-3.179 -2.5545,-2.8951 v 0 l -29.2921,1.3624 1e-4,10e-5 -1e-4,-10e-5 5.2794,-7.9191 34.2309,-0.4257 v 0 c 3.8034,0.3406 5.2224,2.3842 4.2574,6.1308 z" />
      <defs
         id="defs379">
        <linearGradient
           id="grad9">
          <stop
             id="stop373"
             stop-opacity="1.0000"
             stop-color="#c9e4e6"
             offset="0%" />
          <stop
             id="stop375"
             stop-opacity="1.0000"
             stop-color="#0091ce"
             offset="100%" />
        </linearGradient>
        <linearGradient
           gradientUnits="objectBoundingBox"
           gradientTransform="rotate(-175,0.5,0.5)"
           y2="1"
           x2="0"
           y1="0"
           x1="0"
           id="grad10"
           xlink:href="#grad9" />
      </defs>
      <path
         id="path381"
         style="fill:url(#grad10)"
         d="M 332.2725,87.7549 321.346,116.58 v 0 c -3.3648,6.0008 -7.2151,9.1575 -11.5508,9.4696 v 0 l -38.711,0.7285 v 0 l 16.1296,-30.5942 14.8808,-1.9772 -4.995,16.1296 v 0 c -0.7284,1.8732 0,2.7749 2.1853,2.7056 2.1853,-0.0693 3.4342,0 3.4342,0 v 0 c 4.4398,-0.1039 7.4924,-1.8037 9.1573,-5.099 v 0 l 7.2843,-14.7769 v 0 c 1.3874,-3.2258 0.4162,-4.7173 -2.9137,-4.4745 v 0 l -27.9926,1.8731 v 1e-4 -1e-4 l 5.7234,-9.4696 34.3404,-0.7285 v 0 c 3.9543,0.0347 5.2722,2.4975 3.9543,7.3884 z" />
      <defs
         id="defs389">
        <linearGradient
           id="grad11">
          <stop
             id="stop383"
             stop-opacity="1.0000"
             stop-color="#c9e4e6"
             offset="0%" />
          <stop
             id="stop385"
             stop-opacity="1.0000"
             stop-color="#0091ce"
             offset="100%" />
        </linearGradient>
        <linearGradient
           gradientUnits="objectBoundingBox"
           gradientTransform="rotate(-175,0.5,0.5)"
           y2="1"
           x2="0"
           y1="0"
           x1="0"
           id="grad12"
           xlink:href="#grad11" />
      </defs>
      <path
         id="path391"
         style="fill:url(#grad12)"
         d="m 343.3634,87.4182 -13.4755,32.4587 v 0 c -1.2501,4.2574 -10e-5,6.2495 3.7496,5.976 v 0 l 35.7396,0.7031 7.2651,-15.4676 -23.0843,0.4687 v 0 c -1.4562,-0.0556 -1.828,-0.9068 -1.1156,-2.5536 v 0 l 1.7882,-4.0872 v 0 c 0.5246,-1.5902 1.5895,-2.3842 3.1943,-2.382 v 0 l 13.1241,-0.7031 2.8123,-7.3822 -12.6554,0.5859 v 0 c -1.5365,0.401 -2.0486,-0.3357 -1.5365,-2.2101 v 0 l 0.8515,-1.8734 v 0 c 0.4982,-1.4091 1.703,-2.1571 3.6145,-2.2442 v 0 l 22.0296,0.2344 3.3982,-7.851 -35.9739,-0.5859 v 0 c -4.4136,0.1951 -7.6557,2.4998 -9.7258,6.9135 z" />
      <defs
         id="defs399">
        <linearGradient
           id="grad13">
          <stop
             id="stop393"
             stop-opacity="1.0000"
             stop-color="#c9e4e6"
             offset="0%" />
          <stop
             id="stop395"
             stop-opacity="1.0000"
             stop-color="#0091ce"
             offset="100%" />
        </linearGradient>
        <linearGradient
           gradientUnits="objectBoundingBox"
           gradientTransform="rotate(-175,0.5,0.5)"
           y2="1"
           x2="0"
           y1="0"
           x1="0"
           id="grad14"
           xlink:href="#grad13" />
      </defs>
      <path
         id="path401"
         style="fill:url(#grad14)"
         d="m 143.3392,69.4899 c -0.6913,1.9055 -0.3788,2.8429 0.9374,2.8123 v 0 l 4.3133,0.0862 v 0 c 1.6874,0.2177 3.1792,-1.0219 4.4751,-3.7188 v 0 l 8.0854,-18.6314 9.6086,-0.1172 -8.554,19.9204 v 0 c -0.5869,1.4969 -0.2148,2.2609 1.1161,2.2916 3.8786,0.2925 6.3579,-1.1353 7.4379,-4.2836 v 0 l 11.4835,-26.1309 11.2492,0.4687 -20.3891,40.7782 h 1e-4 c -2.0895,3.2743 -4.7541,4.8576 -7.9934,4.7503 v 0 l -37.3815,-0.2555 v 0 c -4.2759,0.3777 -5.7904,-1.5894 -4.5434,-5.9009 v 0 l 17.3425,-39.2549 16.5222,-0.4687 -13.7099,27.6542 z" />
      <defs
         id="defs409">
        <linearGradient
           id="grad15">
          <stop
             id="stop403"
             stop-opacity="1.0000"
             stop-color="#c9e4e6"
             offset="0%" />
          <stop
             id="stop405"
             stop-opacity="1.0000"
             stop-color="#0091ce"
             offset="100%" />
        </linearGradient>
        <linearGradient
           gradientUnits="objectBoundingBox"
           gradientTransform="rotate(-175,0.5,0.5)"
           y2="1"
           x2="0"
           y1="0"
           x1="0"
           id="grad16"
           xlink:href="#grad15" />
      </defs>
      <path
         id="path411"
         style="fill:url(#grad16)"
         d="m 395.7503,88.4832 -12.5916,31.2187 v 0 c -1.318,4.3357 -0.1388,6.3823 3.5381,6.1395 v 1e-4 l 35.0688,0.9366 7.5965,-15.8174 v 0 l -22.6381,0.3203 v 0 c -1.2613,-0.3202 -1.4506,-1.537 -0.5676,-3.6503 v 0 l 6.4518,-15.4011 v 0 c 0.659,-2.3241 2.0812,-3.4688 4.2665,-3.4341 v 0 l 21.6449,0.2082 3.1218,-7.9087 v 0 l -35.381,-0.4163 v 0 c -4.9602,0.3121 -8.4637,2.9136 -10.5101,7.8045 z" />
      <defs
         id="defs419">
        <linearGradient
           id="grad17">
          <stop
             id="stop413"
             stop-opacity="1.0000"
             stop-color="#c9e4e6"
             offset="0%" />
          <stop
             id="stop415"
             stop-opacity="1.0000"
             stop-color="#0091ce"
             offset="100%" />
        </linearGradient>
        <linearGradient
           gradientUnits="objectBoundingBox"
           gradientTransform="rotate(-175,0.5,0.5)"
           y2="1"
           x2="0"
           y1="0"
           x1="0"
           id="grad18"
           xlink:href="#grad17" />
      </defs>
      <path
         id="path421"
         style="fill:url(#grad18)"
         d="m 76.6969,87.9631 29.1372,-0.6244 v 0 c 4.4746,-0.0692 7.4924,-1.8037 9.0534,-5.2031 v 0 l 13.1117,-34.2363 v 0 c 0.4857,-3.9543 -1.11,-5.9662 -4.7868,-6.0356 v 0 L 98.2376,42.384 v 0 c -4.093,0 -7.3536,1.9425 -9.7818,5.8274 v 0 l -16.1296,33.612 v 0 c -1.0406,4.1972 0.4162,6.2438 4.3707,6.1397 z M 102.644,71.7207 95.693,71.77 v 0 c -1.3969,0.1151 -1.7749,-0.5916 -1.1339,-2.1199 v 0 l 8.4299,-17.5008 v 0 c 0.5588,-1.3804 1.6433,-2.1036 3.2538,-2.1691 v 0 l 6.4088,-0.3451 v 0 c 1.4459,-0.0822 1.7747,0.7232 0.9859,2.4156 v 0 l -7.937,17.3036 v 0 c -0.8216,1.6434 -1.8404,2.4321 -3.0565,2.3664 z" />
      <defs
         id="defs429">
        <linearGradient
           id="grad19">
          <stop
             id="stop423"
             stop-opacity="1.0000"
             stop-color="#c9e4e6"
             offset="0%" />
          <stop
             id="stop425"
             stop-opacity="1.0000"
             stop-color="#0091ce"
             offset="100%" />
        </linearGradient>
        <linearGradient
           gradientUnits="objectBoundingBox"
           gradientTransform="rotate(-175,0.5,0.5)"
           y2="1"
           x2="0"
           y1="0"
           x1="0"
           id="grad20"
           xlink:href="#grad19" />
      </defs>
      <path
         id="path431"
         style="fill:url(#grad20)"
         d="m 48.1113,72.5587 c -1.4137,-0.1849 -1.811,-1.0363 -1.1921,-2.5545 v 0 l 18.7333,-29.5475 1e-4,1e-4 -1e-4,-1e-4 -17.3709,1.4475 -24.8642,39.34 v 0 c -1.2489,4.4563 0.3406,6.6985 4.7685,6.7269 l 29.8881,0.3406 v 0 L 68.9734,71.5369 48.1113,72.5587 h 1e-4 z" />
      <defs
         id="defs439">
        <linearGradient
           id="grad21">
          <stop
             id="stop433"
             stop-opacity="1.0000"
             stop-color="#c9e4e6"
             offset="0%" />
          <stop
             id="stop435"
             stop-opacity="1.0000"
             stop-color="#0091ce"
             offset="100%" />
        </linearGradient>
        <linearGradient
           gradientUnits="objectBoundingBox"
           gradientTransform="rotate(-175,0.5,0.5)"
           y2="1"
           x2="0"
           y1="0"
           x1="0"
           id="grad22"
           xlink:href="#grad21" />
      </defs>
      <path
         id="path441"
         style="fill:url(#grad22)"
         d="m 465.2634,106.1738 c 2.8444,-0.3469 3.6074,1.2487 2.2894,4.7868 v 1e-4 l -7.4924,15.0889 v 0 0 l 15.297,0.3122 6.2437,-13.2158 v -1e-4 c 1.422,-5.0296 -0.555,-8.4637 -5.9314,-10.302 v 0 c 5.5153,-1.2142 9.8512,-3.8852 13.0076,-8.0128 v 0 l 8.325,-14.3605 v 2e-4 -2e-4 c 0,0 0,0 -14.1524,0.1041 v 0 c -5.4112,11.7935 -11.3775,18.3147 -17.8985,19.5635 l -10e-5,1e-4 9.9899,-19.4596 -21.1245,-0.3122 -22.3733,45.9953 19.7717,-0.2081 9.9899,-19.2514 4.0584,-0.7285 z" />
      <defs
         id="defs449">
        <linearGradient
           id="grad23">
          <stop
             id="stop443"
             stop-opacity="1.0000"
             stop-color="#c9e4e6"
             offset="0%" />
          <stop
             id="stop445"
             stop-opacity="1.0000"
             stop-color="#0091ce"
             offset="100%" />
        </linearGradient>
        <linearGradient
           gradientUnits="objectBoundingBox"
           gradientTransform="rotate(-175,0.5,0.5)"
           y2="1"
           x2="0"
           y1="0"
           x1="0"
           id="grad24"
           xlink:href="#grad23" />
      </defs>
      <path
         id="path451"
         style="fill:url(#grad24)"
         d="m 523.2862,107.9656 c -3.8915,7.4679 -3.8915,7.4679 -3.8915,7.4679 l 0.001,-0.002 c -1.1122,2.2996 -3.3126,3.5584 -6.6015,3.7757 v 0 l -5.4333,0.281 v -2e-4 2e-4 c -1.3426,0.0937 -1.7485,-0.4995 -1.2178,-1.7798 v 0 l 1.1241,-3.185 -15.4567,1.1241 -2.4356,5.6206 v 0 c -0.9948,3.6782 0.5135,5.3767 4.5257,5.096 l -2e-4,-1e-4 31.2415,-0.4803 v 1e-4 c 4.0813,0.1655 7.1162,-1.5291 9.1045,-5.0841 v 0 l 8.712,-17.3303 v 0 c 1.6235,-7.4005 -1.9986,-10.2421 -10.8666,-8.5246 v 0 l -11.054,1.9672 v 0 c -1.6863,0.281 -2.2481,-0.2499 -1.6862,-1.5925 v 0 l 4.4966,-8.3373 11.1476,-0.4684 v 0 c 1.0615,0.3121 1.1241,0.9992 0.1873,2.0608 v 1e-4 l -2.7166,3.0914 15.4568,0.1873 2.5293,-5.808 c 1.5925,-3.8408 -0.9992,-5.7456 -7.7753,-5.7143 v 0 l -25.2929,0.0937 v 0 c -5.9328,0.3432 -9.8674,2.3731 -11.8032,6.089 v 0 L 499.4921,99.16 v 0 c -2.0608,7.1507 0.7494,10.1172 8.431,8.8993 v 0 l 10.2108,-2.2482 v 0 c 5.1523,-1.3428 6.8697,-0.6246 5.1523,2.1545 z" />
    </g>
    <path
       id="path454"
       style="fill:#1b1918;fill-rule:evenodd"
       d="m 87.9772,13.2631 c 0.9974,0.508 1.4113,1.5471 1.2415,3.1173 l 3e-4,-0.0016 c -2.6567,14.8673 -3.4965,19.5667 -3.7617,21.0517 v 0 c -1.179,0 -2.4284,0 -3.7527,0 v 0 l 0.1213,-0.6783 h 2.8336 v 0 c 0.2653,-1.485 1.105,-6.1845 3.7617,-21.0517 l -3e-4,0.0016 c 0.1137,-1.0511 -0.0344,-1.8639 -0.4437,-2.439 z m -5.2657,13.389 -2.7523,1.2479 -3e-4,8e-4 c -1.0729,6.0047 -1.518,8.4964 -1.7027,9.5297 v -1e-4 c -1.1967,0 -2.4466,1e-4 -3.7521,1e-4 l -6e-4,7e-4 0.1215,-0.679 h 2.8336 v 0 c 0.1846,-1.0333 0.6296,-3.5249 1.7026,-9.5297 l 2e-4,-8e-4 c 1.1201,-0.5077 2.3662,-1.0728 3.7524,-1.7013 h -10e-5 z m 1.8404,-10.2981 -2.5291,10e-5 -5e-4,7e-4 -1.1215,6.2763 -1,0.4535 -3e-4,9e-4 c 0.3819,-2.1368 0.8205,-4.5909 1.3241,-7.409 l 4e-4,-8e-4 c 1.214,0 2.3622,0 3.4479,0 v 0 l 1e-4,-9e-4 v 0.001 z" />
    <path
       id="path456"
       style="fill:#1b1918;fill-rule:evenodd"
       d="m 50.7779,37.4199 c -0.9194,-0.0579 -1.5383,-0.3595 -1.857,-0.905 0.2922,0.125 0.6451,0.2005 1.0593,0.2266 l 0.0016,0.0101 c 3.2058,0 5.2112,0 6.4656,0 l -0.1065,10e-5 c 1.5358,0.027 2.4742,-1.142 2.8152,-3.5072 l 0.0125,0.0048 2.2633,-12.6657 0.9993,-0.4531 8e-4,-2e-4 c -1.2556,7.0267 -2.0112,11.2541 -2.4657,13.7973 l -0.0124,-0.0048 c -0.3411,2.3653 -1.2794,3.5343 -2.8153,3.5072 l 0.1066,-10e-5 c -1.2544,0 -3.2598,0 -6.4657,0 z m 1.6087,-7.1535 1.0002,-0.4535 h -1e-4 l -0.6247,3.4954 h -0.9186 l -3e-4,7e-4 z m 4.2041,-3.5917 -6.9592,3.155 -3e-4,8e-4 0.2021,-1.1324 6.9587,-3.1547 10e-4,-3e-4 z m 5.6908,-13.5535 c 0.7724,0.3305 1.1196,1.0061 1.0406,2.0274 l -2e-4,8e-4 c -0.1746,0.9772 -0.3416,1.9121 -0.5014,2.8066 v -10e-5 c -1.4815,0.6718 -2.8393,1.2874 -4.0835,1.8515 l -2e-4,9e-4 0.2024,-1.1325 3.0836,-1.3982 v 0 c 0.1597,-0.8943 0.3267,-1.8293 0.5013,-2.8065 l 2e-4,-9e-4 c 0.0425,-0.5498 -0.0385,-0.9994 -0.2428,-1.349 z m -3.8464,3.2323 h -2.6426 l -6e-4,7e-4 -1.1175,6.2531 -0.9998,0.453 -2e-4,10e-4 c 0.3771,-2.1102 0.8139,-4.5544 1.3198,-7.3854 l 5e-4,-7e-4 c 1.2177,0 2.4047,0 3.5617,0 v 2e-4 z" />
    <path
       id="path458"
       style="fill:#1b1918;fill-rule:evenodd"
       d="m 77.2423,12.8961 c -0.2231,1.2484 -0.4286,2.3982 -0.6179,3.4573 v 0 c -1.396,0 -2.8631,0 -4.4049,0 v 3e-4 C 69.5031,31.5566 68.6943,36.0826 68.4535,37.43 v -10e-5 c -1.2102,0 -2.4605,-1e-4 -3.7528,-1e-4 l 1e-4,1e-4 0.1213,-0.6783 h 2.8336 v 10e-5 c 0.2408,-1.3474 1.0496,-5.8733 3.7661,-21.0763 l -1e-4,-3e-4 c 1.5418,0 3.009,0 4.4049,0 v 0 l 0.4969,-2.7791 h 0.9187 z m -9.6942,3.4573 h -3.3303 l -7e-4,10e-4 0.1216,-0.6793 h 3.3304 l 1e-4,2e-4 z" />
    <path
       id="path460"
       style="fill:#1b1918;fill-rule:evenodd"
       d="m 102.0231,13.1229 c 0.7725,0.3304 1.1197,1.0065 1.0408,2.0277 v -5e-4 c -0.6366,3.562 -1.1692,6.5435 -1.615,9.0387 l 2e-4,-0.001 c -1.3204,0.5987 -2.5305,1.1471 -3.6391,1.6497 l 8e-4,-10e-5 c 1.3296,4.9181 2.3505,8.6943 3.1343,11.5935 l -2e-4,-0.0011 c -1.1149,0 -2.4676,0 -4.1092,0 v 0 l -0.1831,-0.6782 h 3.4945 l 3e-4,10e-4 C 99.3636,33.8534 98.3427,30.0772 97.0131,25.1591 l -8e-4,10e-5 c 1.1086,-0.5025 2.3186,-1.051 3.639,-1.6496 l -2e-4,9e-4 c 0.4459,-2.4952 0.9784,-5.4766 1.6151,-9.0387 v 6e-4 c 0.0425,-0.5499 -0.0387,-0.9999 -0.2431,-1.3495 z m -8.4199,14.6219 -0.0425,0.0193 9e-4,-2e-4 c -0.6736,3.7694 -1.2442,6.962 -1.7274,9.6659 v 0 c -1.1495,0 -2.3912,0 -3.7325,0 l -0.0094,-0.0585 0.1109,-0.6197 h 2.8333 v 0 c 0.4831,-2.7041 1.0537,-5.8966 1.7273,-9.666 l -9e-4,10e-5 c 0.1916,-0.0868 0.3879,-0.1758 0.5889,-0.2669 l 8e-4,-2e-4 z m 4.5743,-11.3914 h -2.5771 l 1e-4,2e-4 -1.112,6.2236 -1.001,0.454 8e-4,-2e-4 c 0.3752,-2.1001 0.8103,-4.5342 1.3145,-7.3558 v -10e-5 c 1.3397,0 2.4968,0 3.4958,0 l 3e-4,-6e-4 -3e-4,6e-4 z" />
    <path
       id="path462"
       style="fill:#1b1918;fill-rule:evenodd"
       d="m 124.5732,12.8961 c -0.223,1.2484 -0.4286,2.3982 -0.6178,3.4573 v 0 c -1.396,0 -2.8632,0 -4.4049,0 v 3e-4 c -2.7164,15.2029 -3.5253,19.7289 -3.7661,21.0763 v -10e-5 c -1.21,0 -2.4605,-1e-4 -3.7526,-1e-4 v 1e-4 l 0.1213,-0.6783 h 2.8335 v 10e-5 c 0.2408,-1.3474 1.0497,-5.8733 3.7662,-21.0763 v -3e-4 c 1.5416,0 3.0089,0 4.4048,0 v 0 l 0.4968,-2.7791 h 0.9188 z m -9.6941,3.4573 h -3.3304 l -6e-4,10e-4 0.1216,-0.6793 h 3.3304 l 1e-4,2e-4 z" />
    <path
       id="path464"
       style="fill:#1b1918;fill-rule:evenodd"
       d="m 135.3218,13.1231 c 0.7724,0.3305 1.1197,1.0064 1.0408,2.0277 l -10e-5,-6e-4 c -0.6366,3.5621 -1.1691,6.5435 -1.615,9.0388 l 2e-4,-0.001 c -1.3204,0.5986 -2.5305,1.1471 -3.6391,1.6496 l 8e-4,-10e-5 c 1.3297,4.9181 2.3505,8.6944 3.1344,11.5935 l -4e-4,-10e-4 c -1.1147,0 -2.4675,0 -4.109,0 v 0 l -0.1832,-0.6783 h 3.4944 l 4e-4,10e-4 c -0.7838,-2.8992 -1.8047,-6.6753 -3.1343,-11.5935 l -8e-4,1e-4 c 1.1086,-0.5026 2.3187,-1.051 3.639,-1.6496 l -2e-4,9e-4 c 0.4459,-2.4952 0.9785,-5.4767 1.615,-9.0387 l 1e-4,6e-4 c 0.0425,-0.5499 -0.0387,-0.9998 -0.243,-1.3494 z m -8.42,14.6218 -0.0426,0.0193 9e-4,-2e-4 c -0.6735,3.7694 -1.2441,6.962 -1.7273,9.666 v 0 c -1.1496,0 -2.3912,0 -3.7324,0 l -0.01,-0.0585 0.111,-0.6198 h 2.8331 v 0 c 0.4833,-2.7041 1.0539,-5.8966 1.7274,-9.666 l -9e-4,2e-4 c 0.1916,-0.0868 0.3879,-0.1758 0.5889,-0.267 l 9e-4,-10e-5 z m 4.5743,-11.3914 h -2.577 v 2e-4 l -1.1119,6.2236 -1.001,0.4541 7e-4,-4e-4 c 0.3753,-2.0999 0.8104,-4.5341 1.3145,-7.3556 l -1e-4,-2e-4 c 1.3398,0 2.4969,0 3.4959,0 l 3e-4,-7e-4 -3e-4,7e-4 z" />
    <path
       id="path466"
       style="fill:#1b1918;fill-rule:evenodd"
       d="m 161.9585,12.9082 h 1.2065 l 3e-4,-9e-4 c -1.5025,2.4948 -3.4631,5.75 -6.0213,9.9974 l -1e-4,8e-4 c 1.2964,6.4777 2.2319,11.1524 2.907,14.5254 l -2e-4,-0.0011 c -1.1342,0 -2.4833,0 -4.088,0 v 0 l -0.1355,-0.6782 h 3.4258 l 1e-4,9e-4 c -0.6751,-3.373 -1.6105,-8.0475 -2.9069,-14.5254 v -7e-4 z m -8.3798,15.9162 -1.736,2.8824 -3e-4,-2e-4 c -0.3202,1.7926 -0.6608,3.698 -1.0227,5.7232 h 10e-5 c -1.1602,0 -2.4088,0 -3.7526,0 v -8e-4 l 0.1211,-0.6774 h 2.8337 l -1e-4,-1e-4 c 0.362,-2.0253 0.7025,-3.9307 1.0228,-5.7232 l 3e-4,2e-4 c 0.7813,-1.2972 1.5251,-2.5322 2.233,-3.7078 l -2e-4,7e-4 z m 0.7035,-15.9162 h 0.9191 v -1e-4 l -1.1761,6.5817 -1.3063,2.1689 -3e-4,7e-4 z" />
    <path
       id="path468"
       style="fill:#1b1918;fill-rule:evenodd"
       d="m 135.2504,36.7516 -0.1213,0.6781 1e-4,1e-4 c 3.699,0 6.9458,0 9.7954,0 h -1e-4 c 0.2133,-1.1937 0.4182,-2.3409 0.6152,-3.4433 v 1e-4 h -0.9192 l -0.4937,2.7649 1e-4,1e-4 z m 4.3679,-3.4433 0.9426,-5.276 -0.001,4e-4 c 1.7381,-0.7881 3.8965,-1.7666 6.5765,-2.9816 l 1e-4,-8e-4 c 0.2752,-1.5394 0.527,-2.9488 0.7575,-4.2388 h -9e-4 l -0.9994,0.453 -0.555,3.1076 -10e-5,6e-4 c -2.6799,1.2151 -4.8383,2.1937 -6.5764,2.9817 l 9e-4,-4e-4 c -0.3282,1.8373 -0.6823,3.8182 -1.0638,5.9533 l 1e-4,0.001 z m 1.9022,-10.6479 1.1275,-6.3078 1e-4,8e-4 c 2.2232,0 4.2304,0 6.0425,0 v 0 c 0.2368,-1.3249 0.4406,-2.4651 0.6158,-3.4462 l -1e-4,0.001 h -0.9191 l -0.4944,2.7669 h 1e-4 c -1.8122,0 -3.8193,0 -6.0426,0 l -1e-4,-8e-4 c -0.3735,2.0905 -0.8128,4.5489 -1.3294,7.4398 l -0.001,4e-4 z" />
    <g
       id="Layer1014">
      <path
         id="path470"
         style="fill:#f4bc32;fill-rule:evenodd;stroke:#b1b3b4;stroke-width:0.21600001;stroke-linecap:butt;stroke-linejoin:miter;stroke-dasharray:none"
         d="m 84.9657,12.2203 0.0022,0.0103 c 2.5667,-0.1311 3.7175,1.026 3.453,3.4715 l 3e-4,-0.0016 c -2.6567,14.8672 -3.4964,19.5667 -3.7617,21.0517 v 0 c -1.1789,0 -2.4284,0 -3.7526,0 v 0 c 0.2484,-1.3902 0.7966,-4.4592 2.0068,-11.2318 h 10e-5 c -1.3862,0.6285 -2.6323,1.1936 -3.7524,1.7013 l -2e-4,8e-4 c -1.073,6.0048 -1.518,8.4964 -1.7026,9.5297 v 0 c -1.1968,0 -2.4468,0 -3.7523,0 l -6e-4,7e-4 c 0.3487,-1.9515 1.2659,-7.0836 3.677,-20.5771 l -3e-4,0.0012 c 0.5277,-2.5871 1.968,-3.9064 4.3196,-3.9589 l -1e-4,2e-4 c 1.1431,0 2.2302,0 3.264,0 z m -0.2927,3.4545 -1e-4,9e-4 v 0 c -1.0857,0 -2.2339,0 -3.4479,0 l -4e-4,8e-4 c -0.5036,2.8181 -0.9422,5.2722 -1.3241,7.409 l 3e-4,-9e-4 c 1.1184,-0.5071 2.3644,-1.072 3.7522,-1.7011 l -2e-4,9e-4 c 0.307,-1.7181 0.646,-3.6147 1.0202,-5.7086 z" />
      <path
         id="path472"
         style="fill:#f4bc32;fill-rule:evenodd;stroke:#b1b3b4;stroke-width:0.21600001;stroke-linecap:butt;stroke-linejoin:miter;stroke-dasharray:none"
         d="m 49.9802,36.7415 c -1.5088,-0.0951 -2.2088,-0.8466 -2.1001,-2.2543 l -10e-5,9e-4 c 0.1495,-0.8367 0.3519,-1.9692 0.6257,-3.5015 l 2e-4,-9e-4 c 1.1923,-0.5406 2.5463,-1.1543 4.0832,-1.8512 h -1e-4 c -0.3219,1.8018 -0.564,3.1563 -0.7459,4.1745 l 3e-4,-7e-4 c 1.6376,0 2.7738,0 3.5621,0 l -3e-4,9e-4 c 0.3144,-1.7593 0.7591,-4.2473 1.3878,-7.7661 l -10e-4,3e-4 c -3.622,1.642 -6.1684,2.7964 -7.9583,3.6079 l -3e-4,8e-4 c 0.5703,-3.192 1.3772,-7.707 2.5182,-14.0921 l -3e-4,10e-4 c 0.4145,-1.9137 1.3129,-2.8583 2.6952,-2.834 L 54.045,12.2177 c 2.2328,0 4.3671,0 6.4073,0 l -0.0279,-0.0018 c 1.5088,0.0951 2.2088,0.8466 2.0999,2.2543 l -2e-4,9e-4 c -0.1746,0.9772 -0.3416,1.9122 -0.5013,2.8065 v 0 c -1.4816,0.6717 -2.8393,1.2874 -4.0835,1.8514 l -2e-4,10e-4 c 0.1941,-1.0863 0.3997,-2.2366 0.6173,-3.4546 v -2e-4 c -1.157,0 -2.344,0 -3.5617,0 l -5e-4,7e-4 c -0.5059,2.831 -0.9427,5.2752 -1.3198,7.3854 l 2e-4,-10e-4 c 2.1144,-0.9586 4.728,-2.1435 7.9588,-3.6081 l 8e-4,-10e-5 c -1.2555,7.0266 -2.0112,11.254 -2.4656,13.7972 l -0.0125,-0.0048 c -0.341,2.3652 -1.2794,3.5342 -2.8152,3.5072 l 0.1065,-10e-5 c -1.2544,0 -3.2598,0 -6.4656,0 z" />
      <path
         id="path474"
         style="fill:#f4bc32;fill-rule:evenodd;stroke:#b1b3b4;stroke-width:0.21600001;stroke-linecap:butt;stroke-linejoin:miter;stroke-dasharray:none"
         d="m 76.4445,12.2179 c -0.223,1.2482 -0.4286,2.3981 -0.6179,3.4572 v 0 c -1.3959,0 -2.8631,0 -4.4049,0 l 1e-4,3e-4 c -2.7165,15.203 -3.5253,19.7289 -3.7661,21.0763 v -10e-5 c -1.2101,0 -2.4605,0 -3.7527,0 v 0 c 0.3285,-1.8385 1.2397,-6.9371 3.7662,-21.0763 l -1e-4,-2e-4 c -1.3633,0 -2.7791,0 -4.249,0 l -7e-4,9e-4 c 0.1894,-1.0594 0.395,-2.2096 0.6181,-3.4583 v 0 c 4.6469,0 8.7624,0 12.407,0 z" />
      <path
         id="path476"
         style="fill:#f4bc32;fill-rule:evenodd;stroke:#b1b3b4;stroke-width:0.21600001;stroke-linecap:butt;stroke-linejoin:miter;stroke-dasharray:none"
         d="m 100.1661,12.2175 v 5e-4 h 1e-4 c 1.5087,0.095 2.2088,0.8467 2.1,2.2544 v -6e-4 c -0.6367,3.5621 -1.1692,6.5435 -1.6151,9.0387 l 2e-4,-9e-4 c -1.3204,0.5986 -2.5304,1.1471 -3.639,1.6496 l 8e-4,-10e-5 c 1.3296,4.9181 2.3505,8.6943 3.1343,11.5935 l -3e-4,-10e-4 c -1.1148,0 -2.4675,0 -4.1091,0 v 0 c -0.7124,-2.635 -1.5941,-5.8964 -2.6854,-9.933 l -8e-4,2e-4 c -0.201,0.0911 -0.3973,0.1801 -0.5889,0.2669 l 9e-4,-10e-5 c -0.6736,3.7694 -1.2442,6.9619 -1.7273,9.666 v 0 c -1.1496,0 -2.3912,0 -3.7325,0 l -0.0095,-0.0585 c 0,0 0,-1e-4 4.3736,-24.4753 l 2e-4,-2e-4 c 3.7053,0 6.4559,-10e-5 8.4978,-10e-5 z m -1.8672,3.457 -3e-4,6e-4 c -0.999,0 -2.1561,0 -3.4958,0 v 10e-5 c -0.5042,2.8216 -0.9393,5.2557 -1.3145,7.3558 l -8e-4,2e-4 c 1.132,-0.5132 2.3952,-1.0859 3.8049,-1.725 l -2e-4,7e-4 c 0.3014,-1.6868 0.6357,-3.5574 1.0064,-5.6318 z" />
      <path
         id="path478"
         style="fill:#f4bc32;fill-rule:evenodd;stroke:#b1b3b4;stroke-width:0.21600001;stroke-linecap:butt;stroke-linejoin:miter;stroke-dasharray:none"
         d="m 123.7754,12.2179 c -0.223,1.2482 -0.4286,2.3981 -0.6178,3.4572 v 0 c -1.3959,0 -2.8632,0 -4.4048,0 v 3e-4 c -2.7165,15.203 -3.5254,19.7289 -3.7662,21.0763 v -10e-5 c -1.21,0 -2.4605,0 -3.7526,0 v 0 c 0.3285,-1.8385 1.2397,-6.9371 3.7662,-21.0763 l -1e-4,-2e-4 c -1.3633,0 -2.7791,0 -4.2491,0 l -6e-4,9e-4 c 0.1893,-1.0594 0.395,-2.2096 0.618,-3.4583 v 0 c 4.647,0 8.7625,0 12.407,0 z" />
      <path
         id="path480"
         style="fill:#f4bc32;fill-rule:evenodd;stroke:#b1b3b4;stroke-width:0.21600001;stroke-linecap:butt;stroke-linejoin:miter;stroke-dasharray:none"
         d="m 133.4647,12.2177 1e-4,4e-4 v 0 c 1.5087,0.0951 2.2087,0.8466 2.1,2.2544 l -1e-4,-6e-4 c -0.6365,3.562 -1.1691,6.5435 -1.615,9.0387 l 2e-4,-9e-4 c -1.3203,0.5986 -2.5304,1.147 -3.639,1.6496 l 8e-4,-1e-4 c 1.3296,4.9182 2.3505,8.6943 3.1343,11.5935 l -4e-4,-10e-4 c -1.1147,0 -2.4675,0 -4.109,0 v 0 c -0.7124,-2.635 -1.5941,-5.8965 -2.6853,-9.9329 l -9e-4,10e-5 c -0.201,0.0912 -0.3973,0.1802 -0.5889,0.267 l 9e-4,-2e-4 c -0.6735,3.7694 -1.2441,6.9619 -1.7274,9.666 v 0 c -1.1495,0 -2.3912,0 -3.7324,0 l -0.009,-0.0585 c 0,0 0,0 4.3734,-24.4753 l 3e-4,-2e-4 c 3.7053,0 6.4559,0 8.4978,0 z m -1.8672,3.4568 -3e-4,7e-4 c -0.999,0 -2.1561,0 -3.4959,0 l 1e-4,2e-4 c -0.5041,2.8215 -0.9392,5.2557 -1.3145,7.3556 l -7e-4,4e-4 c 1.1319,-0.5133 2.3952,-1.0859 3.8048,-1.7251 l -2e-4,7e-4 c 0.3014,-1.6868 0.6358,-3.5574 1.0064,-5.6318 z" />
      <path
         id="path482"
         style="fill:#f4bc32;fill-rule:evenodd;stroke:#b1b3b4;stroke-width:0.21600001;stroke-linecap:butt;stroke-linejoin:miter;stroke-dasharray:none"
         d="m 152.719,21.6588 c 2.2192,-3.6846 4.0945,-6.7984 5.6793,-9.4296 l -3e-4,6e-4 c 1.6587,0 2.9554,0 3.9692,0 l 4e-4,-8e-4 c -1.5025,2.4947 -3.4631,5.75 -6.0214,9.9974 v 8e-4 c 1.2964,6.4777 2.2318,11.1523 2.9069,14.5253 l -1e-4,-10e-4 c -1.1343,0 -2.4833,0 -4.088,0 v 0 c -0.4957,-2.4767 -1.1146,-5.5691 -1.8872,-9.4301 l 2e-4,-7e-4 c -0.7079,1.1755 -1.4517,2.4105 -2.233,3.7078 l -3e-4,-3e-4 c -0.3202,1.7926 -0.6608,3.698 -1.0228,5.7233 h 1e-4 c -1.1602,0 -2.4088,0 -3.7525,0 l -1e-4,-8e-4 c 2.1703,-12.1456 3.5299,-19.7547 4.3818,-24.5217 v 8e-4 c 1.3694,0 2.6165,0 3.7524,0 v 0 c -0.4403,2.4638 -0.9925,5.554 -1.685,9.4296 z" />
      <path
         id="path484"
         style="fill:#f4bc32;fill-rule:evenodd;stroke:#b1b3b4;stroke-width:0.21600001;stroke-linecap:butt;stroke-linejoin:miter;stroke-dasharray:none"
         d="m 138.0315,16.0435 c -0.8225,4.6033 -2.0038,11.2142 -3.7001,20.7078 v 3e-4 c 3.6991,0 6.9459,0 9.7955,0 l -1e-4,-1e-4 c 0.2132,-1.1937 0.4182,-2.3409 0.6152,-3.4434 v 2e-4 c -1.7478,0 -3.7498,0 -6.0426,0 l -1e-4,-0.001 c 0.3815,-2.1351 0.7356,-4.116 1.0638,-5.9533 l -9e-4,4e-4 c 1.7381,-0.788 3.8965,-1.7666 6.5764,-2.9817 l 10e-5,-6e-4 c 0.2752,-1.5396 0.527,-2.9489 0.7575,-4.239 h -9e-4 c -2.6493,1.2012 -4.8113,2.1814 -6.5755,2.9814 l 0.001,-4e-4 c 0.5166,-2.8909 0.9559,-5.3493 1.3294,-7.4398 l 1e-4,8e-4 c 2.2233,0 4.2304,0 6.0426,0 h -1e-4 c 0.2368,-1.3249 0.4406,-2.4651 0.6158,-3.4462 v 9e-4 c -1.9163,0 -4.0507,0 -6.4283,0 l -0.005,-5e-4 c -2.1658,0.1347 -3.5144,1.406 -4.0443,3.8142 z" />
    </g>
  </g>
</svg>
