<?xml version="1.0" encoding="UTF-8" standalone="no"?>
<svg
   xmlns:dc="http://purl.org/dc/elements/1.1/"
   xmlns:cc="http://creativecommons.org/ns#"
   xmlns:rdf="http://www.w3.org/1999/02/22-rdf-syntax-ns#"
   xmlns:svg="http://www.w3.org/2000/svg"
   xmlns="http://www.w3.org/2000/svg"
   xmlns:xlink="http://www.w3.org/1999/xlink"
   id="svg54"
   viewBox="0 0 732 283.35"
   style="shape-rendering:geometricPrecision; text-rendering:geometricPrecision; image-rendering:optimizeQuality; fill-rule:evenodd; clip-rule:evenodd"
   version="1.1"
   height="283px"
   width="732px"
   xml:space="preserve"><metadata
   id="metadata58"><rdf:RDF><cc:Work
       rdf:about=""><dc:format>image/svg+xml</dc:format><dc:type
         rdf:resource="http://purl.org/dc/dcmitype/StillImage" /><dc:title></dc:title></cc:Work></rdf:RDF></metadata>
 <defs
   id="defs20">
  <style
   id="style2"
   type="text/css">
   <![CDATA[
    .str1 {stroke:#FEFEFE;stroke-width:1.18;stroke-miterlimit:22.9256}
    .str0 {stroke:#2B2A29;stroke-width:0.9;stroke-miterlimit:22.9256}
    .fil0 {fill:#2B2A29}
    .fil2 {fill:url(#id0)}
    .fil6 {fill:url(#id1)}
    .fil3 {fill:url(#id2)}
    .fil4 {fill:url(#id3)}
    .fil8 {fill:url(#id4)}
    .fil1 {fill:url(#id5)}
    .fil7 {fill:url(#id6)}
    .fil5 {fill:url(#id7)}
   ]]>
  </style>
  <linearGradient
   y2="23.26"
   x2="181.99"
   y1="105.62"
   x1="181.99"
   gradientUnits="userSpaceOnUse"
   id="id0">
   <stop
   id="stop4"
   style="stop-opacity:1; stop-color:#A47639"
   offset="0" />
   <stop
   id="stop6"
   style="stop-opacity:1; stop-color:#C2963D"
   offset="0.101961" />
   <stop
   id="stop8"
   style="stop-opacity:1; stop-color:#E0B642"
   offset="0.258824" />
   <stop
   id="stop10"
   style="stop-opacity:1; stop-color:#EAC044"
   offset="1" />
  </linearGradient>
  <linearGradient
   y2="23.76"
   x2="334.29"
   y1="106.11"
   x1="334.29"
   xlink:href="#id0"
   gradientUnits="userSpaceOnUse"
   id="id1">
  </linearGradient>
  <linearGradient
   y2="23.2"
   x2="240.42"
   y1="105.57"
   x1="240.42"
   xlink:href="#id0"
   gradientUnits="userSpaceOnUse"
   id="id2">
  </linearGradient>
  <linearGradient
   y2="23.52"
   x2="415.62"
   y1="105.88"
   x1="415.62"
   xlink:href="#id0"
   gradientUnits="userSpaceOnUse"
   id="id3">
  </linearGradient>
  <linearGradient
   y2="23.45"
   x2="515.95"
   y1="105.97"
   x1="515.95"
   xlink:href="#id0"
   gradientUnits="userSpaceOnUse"
   id="id4">
  </linearGradient>
  <linearGradient
   y2="23.52"
   x2="285.61"
   y1="105.88"
   x1="285.61"
   xlink:href="#id0"
   gradientUnits="userSpaceOnUse"
   id="id5">
  </linearGradient>
  <linearGradient
   y2="23.59"
   x2="461.95"
   y1="105.94"
   x1="461.95"
   xlink:href="#id0"
   gradientUnits="userSpaceOnUse"
   id="id6">
  </linearGradient>
  <linearGradient
   y2="23.45"
   x2="564.21"
   y1="106.08"
   x1="564.21"
   xlink:href="#id0"
   gradientUnits="userSpaceOnUse"
   id="id7">
  </linearGradient>
 </defs>
 <g
   id="Layer_x0020_1">
  <metadata
   id="CorelCorpID_0Corel-Layer" />
  <g
   id="_1097191696">
   <path
   id="path23"
   d="M21.26 161.96l22.83 0 0.44 0c0.03,0 0.06,0 0.09,0 12.86,0 23.29,10.43 23.29,23.3l0.06 0c0,4.71 0,9.79 0,15.28l-0.06 -0.01c0,0 0,0 0,0.01 0,12.86 -10.43,23.29 -23.29,23.29 -0.04,0 -0.06,0 -0.09,0l0.14 0c-3.03,0 -6.06,0 -9.12,0l0 0c0,11.73 0,24.86 0,39.54l0 0c-14.29,0 -14.29,0 -14.29,0l0 0c0,-49.28 0,-80.99 0,-101.41l0 0zm14.29 13.86l0 34.2 0 0c3.06,0 6.09,0 9.12,0l-0.11 0c0.02,0 0.04,0 0.06,0 5,0 9.06,-4.06 9.06,-9.06 0,-0.02 0,-0.04 0,-0.06l0 0.11c0,-5.83 0,-11.21 0,-16.18l0 0.1c0,-0.01 0,-0.03 0,-0.05 0,-5 -4.06,-9.06 -9.06,-9.06 -0.02,0 -0.04,0 -0.06,0l0.11 0c-3.03,0 -6.06,0 -9.12,0l0 0z"
   class="fil0 str0" />
   <path
   id="path25"
   d="M156.01 263.37c4.81,0 9.57,0 14.29,0l0 0c0,-49.28 0,-80.99 0,-101.41l0 0c-4.72,0 -9.48,0 -14.29,0l0 0c0,20.42 0,52.13 0,101.41l0 0z"
   class="fil0 str0" />
   <path
   id="path27"
   d="M272.83 240.45c0,5.01 4.06,9.06 9.07,9.06 5,0 9.06,-4.05 9.06,-9.06 0,-0.07 0,-0.14 0,-0.21l0 0.42c0,-2.28 0,-4.52 0,-6.71l0 0c6.78,0 11.29,0 14.29,0l0 0c0,2 0,4.05 0,6.13l-0.06 -0.01c0,0 0,0 0,0.01 0,12.86 -10.43,23.29 -23.29,23.29 -12.87,0 -23.3,-10.43 -23.3,-23.29l-0.06 0c0,-22.33 0,-40.33 0,-54.82l0.06 0c0,0 0,0 0,0 0,-12.87 10.43,-23.3 23.3,-23.3 12.86,0 23.29,10.43 23.29,23.3l0.06 0c0,1.96 0,3.99 0,6.08l0 0c-3.19,0 -7.76,0 -14.29,0l0 0c0,-2.3 0,-4.52 0,-6.67l0 0c-0.11,-4.9 -4.13,-8.85 -9.06,-8.85 -5.01,0 -9.07,4.06 -9.07,9.06 0,0 0,0 0,0l0 0c0,14.65 0,32.88 0,55.57l0 0z"
   class="fil0 str0" />
   <path
   id="path29"
   d="M424.03 231.79c4.01,4.36 11.34,15.79 21.99,34.29 -1.14,-45.83 -11.56,-84.64 -31.28,-116.43 -20.64,29.62 -33.03,68.12 -37.16,115.5 20.86,-20.05 34.48,-31.27 40.87,-33.67 2.69,-1.13 4.54,-1.03 5.58,0.31z"
   class="fil0 str0" />
   <path
   id="path31"
   d="M560.97 263.37c-8.13,-25.71 -11.89,-37.61 -13.63,-43.12l0 0c-2.51,0 -5.39,0 -8.67,0l0 0c0,12.63 0,26.93 0,43.12l0 0c-4.65,0 -9.42,0 -14.29,0l0 0c0,-49.28 0,-80.99 0,-101.41l0 0c8.15,0 15.98,0 23.51,0l0 0c0,0 0,0 1.51,0.01l-0.04 0c0.02,0 0.05,0 0.08,0 12.87,0 23.3,10.43 23.3,23.29l0 0c-0.04,11.69 -0.04,11.69 -0.04,11.69l0 0c0,0 0,0 0,0 0,8.8 -4.88,16.46 -12.07,20.42l0 0c3.52,10.14 8.62,24.8 15.98,46l0.01 0 -15.65 0 0 0zm-22.3 -55.9l10.81 0 0 0c0.01,0 0.03,0 0.05,0 5,0 9.06,-4.05 9.06,-9.06 0,0 0,0 0,0l0 0c0,-4.85 0,-9.39 0,-13.62l0 0.19c0,-0.03 0,-0.07 0,-0.1 0,-5 -4.06,-9.06 -9.06,-9.06 -0.02,0 -0.04,0 -0.06,0l0.11 0c-3.56,0 -7.2,0 -10.91,0l0 0c0,8.9 0,19.36 0,31.65l0 0z"
   class="fil0 str0" />
   <path
   id="path33"
   d="M707.02 185.26c0.01,54.81 0.01,54.81 0.01,54.81l0 0c0,0 0,0 0,0.01 0,12.86 -10.44,23.29 -23.3,23.29 -0.02,0 -0.05,0 -0.07,0l0.12 0c-7.09,0 -14.9,0 -23.51,0l0 0c0,-49.28 0,-80.99 0,-101.41l0 0c8.61,0 16.42,0 23.51,0l-0.14 0c0.03,0 0.06,0 0.09,0 12.86,0 23.29,10.43 23.29,23.3l0 0zm-23.34 64.25c0.01,0 0.03,0 0.05,0 5,0 9.06,-4.05 9.06,-9.06 0,0 0,0 0,0l0.11 0c0,-22.69 0,-40.92 0,-55.57l-0.11 0c0,-5 -4.06,-9.06 -9.06,-9.06 -0.02,0 -0.04,0 -0.05,0l0.1 0c-2.92,0 -6,0 -9.22,0l0 0c0,17.68 0,41.53 0,73.69l0 0c3.22,0 6.3,0 9.22,0l-0.1 0z"
   class="fil0 str0" />
  </g>
  <g
   id="_1097193360">
   <path
   id="path36"
   d="M288.35 31.57l0 0 9.86 -0.14 -6.4 30.98 -10.79 4.17 7.33 -35.01 0 0zm1.73 39.87l0 0 0 0 -20.92 6.8 9.33 0.14 0 0 -5.63 27.22 -15.56 0 16.53 -79.58 -2.8 -2.36 36.77 -0.14 0 0 0 0c5.1,0.42 7.01,3.89 5.73,10.42 0,-0.01 0,-0.01 0,-0.01l0 0.01 -13.99 71.8 -15.99 0.14 0 0 0 0 -0.58 0c0,0 0,0 7.11,-34.44z"
   class="fil1 str1" />
   <path
   id="path38"
   d="M160.25 105.61c-3.24,-0.29 -4.65,-2.41 -4.24,-6.35l-0.01 0c1.13,-5.49 2.31,-11.2 3.54,-17.16l0 0 0 0 12.95 -4.33 -3.67 19.17 8.95 0.17 5.76 -28.17 8.63 -6.67 -30.86 11.67 9.43 -46.18 -2.39 -4.5 32.14 0 0 0c5.86,0.39 8.31,3.11 7.35,8.17l0 0 -2.4 12.17 -14.23 5.17c3.52,-15.67 3.52,-15.67 3.52,-15.67l-8.63 -0.17 -5.12 23.17 -6.08 5 28.62 -10 -9.11 45.01 0 0c-1.39,6.55 -4.75,9.72 -10.07,9.5l0 0 -23.03 0 0 0 0 0c0,0 0,0 -1.05,0l0 0z"
   class="fil2 str1" />
   <polygon
   id="polygon40"
   points="266,23.48 264.54,31.12 239.09,30.98 246.68,33.48 232.29,105.29 215.77,105.57 231.09,31.4 214.84,31.12 216.04,23.21 "
   class="fil3 str1" />
   <polygon
   id="polygon42"
   points="441.2,23.8 439.73,31.43 414.28,31.3 421.88,33.8 407.49,105.6 390.97,105.88 406.29,31.71 390.03,31.43 391.23,23.52 "
   class="fil4 str1" />
   <polygon
   id="polygon44"
   points="579.46,23.57 593.17,23.57 585.63,58.93 578.2,61.55 580.72,106.08 565.75,105.85 564.95,66.08 548.28,71.55 558.21,70.96 551.7,106.08 535.26,105.85 551.25,27.38 548.96,23.45 568.27,23.57 560.84,59.77 573.18,55.36 "
   class="fil5 str1" />
   <path
   id="path46"
   d="M330.03 74.1c-6.57,31.84 -6.57,31.84 -6.57,31.84l0 0 -10.79 -0.12 0 0 -5.44 0 0 0c4.14,-20.03 9.48,-45.88 16.37,-79.22l0 0 0 0 -2.56 -2.84 35.02 0c3.71,0.24 5.47,2.74 5.28,7.5l-3.84 19.17 -22.87 8 8.22 -6.72 4.26 -20.61 0 0 -8.16 0.16 -6.71 32.17 28.78 -9.66 -10.55 52.17 -16.47 0.17 7.99 -36.34 -11.03 4 0 0 0 0c-0.32,0.11 -0.63,0.23 -0.93,0.33l0 0z"
   class="fil6 str1" />
   <path
   id="path48"
   d="M457.69 73.94c-6.58,31.83 -6.58,31.83 -6.58,31.83l0 0 -10.78 -0.11 0 0 -5.44 0 0 0c4.14,-20.04 9.48,-45.89 16.37,-79.23l0 0 0 0 -2.56 -2.83 35.02 0c3.71,0.23 5.47,2.73 5.27,7.5l-3.83 19.17 -22.87 8 8.21 -6.73 4.26 -20.61 0 0 -8.15 0.17 -6.72 32.17 28.79 -9.67 -10.56 52.17 -16.47 0.17 8 -36.34 -11.04 4 0 0 0 0c-0.31,0.12 -0.62,0.23 -0.92,0.34l0 0z"
   class="fil7 str1" />
   <path
   id="path50"
   d="M541.52 23.45l0 0 -39.75 0.36 2.97 1.79 -14.28 70.6c-0.62,6.36 1.85,9.62 7.43,9.76l26.58 0 0 0c0,0 0,0 1.65,-7.97l0 0 -26.29 0.12 6.85 -2.62 5.26 -26.91 -9.6 0.12 27.42 -9.17 1.6 -8.46 -16.91 5.24 5.48 -25 19.76 0 0 0c0.07,0 0.14,0 0.21,0l0 0c0.53,-2.57 1.07,-5.19 1.62,-7.86l0 0z"
   class="fil8 str1" />
  </g>
 </g>
</svg>