<svg width="56" height="63" viewBox="0 0 56 63" fill="none" xmlns="http://www.w3.org/2000/svg">
    <style>
        path {
            stroke: rgb(29, 30, 32);
            fill: white;
        }

        @media (prefers-color-scheme: dark) {
            path {
                stroke: rgb(218, 218, 219);
                fill: rgb(29, 30, 32);
            }
        }
    </style>
    <path d="M4.78583 39.5555L6.33222 49.7617C6.33222 49.7617 7.56934 61.2049 23.0333 61.2049C36.6415 61.2049 40.9714 48.2153 40.9714 48.2153C40.9714 48.2153 44.3735 40.4833 49.6312 39.2462C55.1824 37.94 54.2704 34.9163 54.2704 34.9163C54.2704 34.9163 53.3425 31.205 48.0848 31.205C43.7549 31.205 40.9714 35.2256 40.9714 35.2256C40.9714 35.2256 40.215 36.4627 38.4972 36.4627C33.858 36.4627 34.7858 30.8957 34.7858 30.8957C35.7137 24.5039 37.5693 9.55547 37.5693 9.55547C37.5693 9.55547 38.3279 5.84413 34.4766 5.84413C32.0023 5.84413 31.6931 8.31835 31.6931 8.31835L28.6003 29.04C28.6003 29.04 28.4815 30.2771 27.9817 30.2771C27.4819 30.2771 27.6724 29.04 27.6724 29.04C28.6003 22.4421 30.7652 7.08124 30.7652 7.08124C30.7652 7.08124 32.0023 1.20495 27.6724 1.20495C24.2704 1.20495 23.6518 5.84413 23.6518 5.84413C22.8271 13.1637 21.1776 28.4214 21.1776 28.4214C21.1776 28.4214 21.0039 30.8957 19.0126 30.8957C17.0214 30.8957 16.5384 28.4214 16.5384 28.4214C15.5075 23.9885 13.3219 14.5039 12.8271 12.0297C12.2085 8.93692 10.6621 7.39052 8.49717 7.39052C4.78583 7.39052 5.09511 11.7204 6.02294 14.5039L11.2807 32.7513C11.2807 32.7513 11.9534 34.607 10.9714 34.607C10.3528 34.607 10.0436 33.0606 10.0436 33.0606C9.21882 29.9678 7.81676 24.0915 7.56934 22.8544C7.26006 21.308 6.02287 18.5245 3.85794 18.5245C-1.09054 18.5245 1.69303 25.9472 2.62086 29.04C3.50708 31.9941 4.78583 39.5555 4.78583 39.5555Z" stroke="currentColor" stroke-width="2"/>
</svg>
