<svg width="112" height="89" viewBox="0 0 112 89" fill="none" xmlns="http://www.w3.org/2000/svg">
    <style>
        path {
            stroke: rgb(29, 30, 32);
            fill: white;
        }

        @media (prefers-color-scheme: dark) {
            path {
                stroke: rgb(218, 218, 219);
                fill: rgb(29, 30, 32);
            }
        }
    </style>
    <path d="M5.17232 51.7563L4.3917 50.4754L4.374 50.4862L4.35661 50.4975C2.53925 51.6751 1.92042 54.0861 3.02132 55.9929C4.12142 57.8984 6.51922 58.5695 8.44816 57.5843L8.48248 57.5667L8.51585 57.5475L28.1598 46.206L40.058 47.3524C39.6319 47.6653 39.1885 47.991 38.7449 48.317C37.624 49.1406 36.5019 49.966 35.6588 50.5881C35.2375 50.8989 34.8844 51.16 34.6357 51.3449C34.5118 51.4371 34.4112 51.5122 34.3402 51.5659C34.3055 51.592 34.2731 51.6167 34.247 51.637C34.2354 51.646 34.2162 51.661 34.1961 51.6776C34.1879 51.6843 34.1652 51.7029 34.1383 51.7272C34.1271 51.7373 34.0984 51.7634 34.0638 51.7991C32.5031 53.3795 32.0879 55.8657 33.2651 57.9046C34.4604 59.9749 36.8966 60.8611 39.0703 60.2473L39.1726 60.2184L39.2698 60.1753L45.6005 57.3732L40.6472 68.2492L21.1837 79.4864L21.1509 79.5054L21.119 79.526C19.299 80.7032 18.6823 83.1162 19.7827 85.0221C20.8884 86.9372 23.2831 87.5828 25.203 86.6022L25.2211 86.5929L25.2389 86.5832L24.5207 85.2663C25.2389 86.5832 25.2391 86.5831 25.2394 86.5829L25.2409 86.5821L25.2467 86.5789L25.27 86.5663L25.3617 86.5162L25.7196 86.321L27.0779 85.5801L31.9264 82.9356L46.6413 74.9093C51.9929 71.9902 57.3456 69.0703 61.3624 66.8789C63.3708 65.7832 65.0453 64.8696 66.2187 64.2292L67.5824 63.4849L67.9437 63.2875L68.0383 63.2357L68.0649 63.2211L68.076 63.2149L68.0863 63.2092C68.0894 63.2074 68.1002 63.201 68.1146 63.1924L68.1148 63.1927C70.3143 61.8887 71.0737 59.0555 69.7876 56.828C68.4942 54.5878 65.6295 53.8256 63.3906 55.1183C63.3502 55.1416 63.3153 55.1641 63.2869 55.1836L63.2048 55.2309L62.7936 55.4681L61.329 56.3131L56.8888 58.8748L53.5108 60.8236L55.4979 52.9958L65.3842 48.6205C73.6898 56.1437 86.219 57.8336 96.4639 51.9187C109.158 44.5895 113.523 28.3727 106.204 15.6962C98.8856 3.01969 82.6584 -1.30984 69.9639 6.01936C59.6699 11.9626 54.8713 23.7433 57.3154 34.7438L52.3543 38.3652C51.4768 38.9583 50.5756 39.6092 49.7023 40.3009L48.7405 41.003L40.9725 38.8113L44.2988 36.8937L50.7275 33.1875C52.9664 31.8949 53.7387 29.0329 52.4453 26.7926C51.1828 24.6059 48.4377 23.8495 46.2362 24.9925L46.2365 24.9931C46.2224 25.0001 46.2118 25.0055 46.2066 25.0083L46.1791 25.0237L46.1565 25.0369L46.1231 25.0567L46.0257 25.1154C45.9435 25.165 45.8235 25.2378 45.6687 25.3317C45.3589 25.5197 44.907 25.7944 44.3336 26.1431C43.1868 26.8406 41.5525 27.8355 39.5935 29.0283C35.6755 31.414 30.4582 34.5923 25.2432 37.7696C20.0281 40.9469 14.8152 44.1234 10.9062 46.5055L6.18302 49.3838L4.85987 50.1901L4.51129 50.4026L4.42192 50.457L4.3993 50.4708L4.39361 50.4743L4.39218 50.4751C4.39186 50.4753 4.3917 50.4754 5.17232 51.7563Z" stroke-width="3"/>
</svg>
