<?xml version="1.0" encoding="UTF-8" standalone="no"?>
<!-- Creator: CorelDRAW 2019 (64-Bit) -->

<svg
   xml:space="preserve"
   width="145mm"
   height="85mm"
   version="1.1"
   style="shape-rendering:geometricPrecision; text-rendering:geometricPrecision; image-rendering:optimizeQuality; fill-rule:evenodd; clip-rule:evenodd"
   viewBox="0 0 14500 8500"
   id="svg120"
   sodipodi:docname="SNW2.svg"
   inkscape:version="1.1 (c68e22c387, 2021-05-23)"
   xmlns:inkscape="http://www.inkscape.org/namespaces/inkscape"
   xmlns:sodipodi="http://sodipodi.sourceforge.net/DTD/sodipodi-0.dtd"
   xmlns="http://www.w3.org/2000/svg"
   xmlns:svg="http://www.w3.org/2000/svg"><sodipodi:namedview
   id="namedview64"
   pagecolor="#ffffff"
   bordercolor="#666666"
   borderopacity="1.0"
   inkscape:pageshadow="2"
   inkscape:pageopacity="0.0"
   inkscape:pagecheckerboard="0"
   inkscape:document-units="mm"
   showgrid="false"
   inkscape:zoom="2.3757759"
   inkscape:cx="273.80529"
   inkscape:cy="160.57912"
   inkscape:window-width="1920"
   inkscape:window-height="1001"
   inkscape:window-x="-9"
   inkscape:window-y="-9"
   inkscape:window-maximized="1"
   inkscape:current-layer="Layer_x0020_1" />
 <defs
   id="defs4">
  <style
   type="text/css"
   id="style2">
   <![CDATA[
    .str1 {stroke:#7A531C;stroke-width:40;stroke-miterlimit:22.9256}
    .str2 {stroke:#2B2A29;stroke-width:30;stroke-miterlimit:22.9256}
    .str0 {stroke:#050505;stroke-width:30;stroke-miterlimit:22.9256}
    .fil1 {fill:none;fill-rule:nonzero}
    .fil4 {fill:#FEFEFE}
    .fil3 {fill:#2B2A29}
    .fil0 {fill:#E9BC47;fill-rule:nonzero}
    .fil2 {fill:#F7F5DE;fill-rule:nonzero}
   ]]>
  </style>
 </defs>
 <g
   id="Layer_x0020_1"
   inkscape:label="Layer 1">
  <metadata
   id="CorelCorpID_0Corel-Layer" />
  <g
   id="_1376147536">
   <path
   class="fil0 str0"
   d="M5611.72 8203.84c-45.19,98.83 -122.29,147.91 -232.42,147.91l-329.28 0c-164.63,0 -267.77,-32.94 -309.93,-98.83 -21.57,-30.94 -33.13,-77.32 -35.74,-137.83 -2.86,-66.56 4.71,-151.27 23.33,-253.47l481.31 -2661.75 411.31 0 -480.74 2661.75 329.27 0 480.75 -2661.75 411.86 0 -481.3 2661.75 329.27 0 481.31 -2661.75 411.31 0 -481.39 2659.73c-35.32,197 -86.42,328.11 -153.24,394 -66.87,65.21 -182.33,98.15 -346.96,98.15l-329.28 0c-110.13,0 -169.56,-49.08 -179.44,-147.91z"
   id="path7" />
   <path
   class="fil0 str0"
   d="M704.83 2402.25c34.79,-195.76 85.14,-326.96 151.63,-393.55 66.51,-65.93 180.49,-99.57 341.94,-100.92l406.88 1.35c161.5,0 263.36,32.29 306.68,96.87 20.74,30.28 32.17,76.03 34.85,137.92 2.98,68.61 -5.22,155.37 -24.21,260.36l-38.69 213.82 -506.02 262.46 72.04 -478.31 -321.35 0 -143.69 913.23 859.2 -469.88 -305.34 1722.93c-35.34,195.76 -85.73,326.29 -152.21,392.88 -66.49,66.61 -180.47,100.24 -341.91,101.59l-406.91 -2.01c-161.51,0 -263.37,-32.3 -306.13,-96.89 -21.27,-29.6 -32.73,-76.01 -35.41,-137.91 -2.94,-67.94 4.06,-154.89 24.23,-259.69l58.7 -304.98 466.02 -176.97 -72.01 449.02 276.39 -2.49 165.3 -893.69 -807.96 440.02 297.98 -1675.16z"
   id="path9" />
   <polygon
   class="fil0 str0"
   points="1995.83,5063.02 2468.57,2401.12 2020.21,2403.15 2109.15,1907.78 3426.19,1907.78 3337.24,2403.15 2898.78,2403.15 2457.05,5058.03 "
   id="polygon11" />
   <polygon
   class="fil0 str0"
   points="9517.2,1907.78 10573.93,1907.78 10497.79,2400.72 9836.11,2401.12 9678.06,3286.19 10405.19,3000.08 10341.31,3413.69 9648.61,3692.86 9482.45,4532.39 10168.58,4531.82 10086.54,5063.02 8956.55,5063.02 "
   id="polygon13" />
   <path
   class="fil0 str0"
   d="M6514.23 1907.78l406.27 0c29.1,-21.7 -159.05,0 244.2,0l162.62 0c162.62,0 261.9,49.81 298.91,148.07 19.43,51.16 30.77,107.69 33.46,169.62 2.39,55.18 -2.29,113.73 -13.47,175.65l-473.29 2661.9 -506.17 -14.98 482.73 -2646.92 -261.41 0 -473.29 2656.92 -461.21 4.98 560.65 -3155.24z"
   id="path15" />
   <path
   class="fil0 str0"
   d="M5371.35 2401.12l-192.93 1076.88 381.13 -161.39 168.11 -915.49 -356.31 0zm-406.27 0c34.73,-197.19 85.08,-328.44 151.05,-394.4 65.95,-65.96 179.97,-98.94 342.58,-98.94l406.82 0c162.62,0 265.06,32.98 308.44,98.94 19.68,31.63 30.58,78.07 33.27,139.99 2.92,67.31 -4.5,152.1 -22.81,254.41l-473.29 2661.9 -471.2 -4.98 228.2 -1334.65 -315.14 132.1 -200 1207.53 -461.21 0 473.29 -2661.9z"
   id="path17" />
   <path
   class="fil0 str0"
   d="M4255.97 2401.12l-311.36 0 -193.01 1054.89 356.24 -144.41 148.13 -910.48zm-361.11 1384.73l-203.05 96.93 -220.49 1180.24 -406.27 0 560.66 -3155.24 813.09 0c162.61,0 265.05,32.98 308.43,98.94 19.68,31.63 30.58,78.07 33.28,139.99 2.91,67.31 -4.51,152.1 -22.82,254.41l-123.22 689.88c-35.19,197.09 -82.43,397.22 -201.64,462.33l-129.09 70.5 35.61 1439.19 -461.21 0 16.72 -1277.17z"
   id="path19" />
   <path
   class="fil0 str0"
   d="M8738.85 4570.55c-31.87,197.65 -85.46,328.49 -151.59,394.24 -65.8,65.43 -180,98.22 -342.61,98.22l-406.82 0c-162.62,0 -264.52,-32.96 -306.22,-98.9 -21.32,-30.95 -32.77,-77.36 -35.41,-137.91 -2.88,-66.6 4.53,-151.36 22.84,-253.64l385.82 -2170.3c34.78,-195.76 85.13,-326.96 151.62,-393.55 66.51,-65.93 180.5,-99.57 341.94,-100.92l406.89 1.35c161.5,0 263.35,32.29 306.68,96.87 20.73,30.28 32.16,76.03 34.85,137.92 2.97,68.62 -3.42,155.7 -24.22,260.36l-53.68 270.01 -491.03 216.27 74.54 -488.31 -281.39 0 -365.28 2120.35 335.72 -3.35 164.22 -957.39 -148.32 57.67 60.91 -386.53 575.89 -245.13 -255.35 1582.67z"
   id="path21" />
   <path
   class="fil0 str0"
   d="M12923.64 5692.67c34.78,-195.76 85.13,-326.96 151.62,-393.55 66.51,-65.93 180.49,-99.57 341.94,-100.92l406.89 1.35c161.5,0 263.35,32.29 306.67,96.87 20.74,30.28 32.17,76.03 34.86,137.92 2.97,68.61 -5.22,155.37 -24.22,260.36l-38.69 213.82 -506.02 262.47 72.04 -478.32 -321.35 0 -143.68 913.23 859.19 -469.88 -305.34 1722.93c-35.34,195.76 -85.73,326.29 -152.21,392.88 -66.49,66.61 -180.47,100.24 -341.91,101.59l-406.91 -2.01c-161.51,0 -263.37,-32.3 -306.13,-96.89 -21.27,-29.6 -32.73,-76.01 -35.41,-137.91 -2.94,-67.94 4.06,-154.89 24.23,-259.69l58.7 -304.98 466.02 -176.97 -72.01 449.02 276.39 -2.49 165.3 -893.69 -807.96 440.03 297.99 -1675.17z"
   id="path23" />
   <path
   class="fil0 str0"
   d="M9523.74 5691.49l-311.36 0 -193.01 1054.89 356.23 -144.41 148.14 -910.48zm-361.12 1384.73l-203.04 96.94 -220.5 1180.24 -406.27 0 560.66 -3155.24 813.09 0c162.61,0 265.05,32.98 308.43,98.94 19.69,31.62 30.59,78.07 33.28,139.98 2.92,67.31 -4.5,152.11 -22.82,254.41l-123.22 689.88c-35.19,197.09 -82.42,397.23 -201.64,462.33l-129.09 70.51 35.61 1439.19 -461.21 0 16.72 -1277.18z"
   id="path25" />
   <g
   id="g30">
    <path
   class="fil0"
   d="M8214.67 5200.54c161.5,0 263.33,32.28 306.6,96.81 20.71,30.26 32.11,75.98 34.74,137.84 2.93,68.58 -5.04,155.31 -24.43,260.19l-385.58 2164.89c-35.44,197 -85.91,328.11 -151.92,394 -66.04,65.21 -180.08,98.15 -342.69,98.15l-406.82 0c-162.62,0 -264.49,-32.94 -306.14,-98.83 -21.3,-30.94 -32.71,-77.32 -35.29,-137.83 -2.83,-66.56 4.64,-151.27 23.04,-253.47l387.63 -2168.93c34.95,-195.64 85.41,-326.76 151.96,-393.31 66.57,-65.88 180.57,-99.51 342.02,-100.85l406.88 1.34 0 0zm-728.73 2327.18l-229.77 -34.96 209.79 164.84 -81.59 257.63 176.49 -162.73 144.86 169.83 -4.66 -274.73 241.94 -157.33 -227.28 27.46 219.78 -1913.1 -449.56 1923.09z"
   id="path27" />
    <path
   id="1"
   class="fil1 str0"
   d="M8214.67 5200.54c161.5,0 263.33,32.28 306.6,96.81 20.71,30.26 32.11,75.98 34.74,137.84 2.93,68.58 -5.04,155.31 -24.43,260.19l-385.58 2164.89c-35.44,197 -85.91,328.11 -151.92,394 -66.04,65.21 -180.08,98.15 -342.69,98.15l-406.82 0c-162.62,0 -264.49,-32.94 -306.14,-98.83 -21.3,-30.94 -32.71,-77.32 -35.29,-137.83 -2.83,-66.56 4.64,-151.27 23.04,-253.47l387.63 -2168.93c34.95,-195.64 85.41,-326.76 151.96,-393.31 66.57,-65.88 180.57,-99.51 342.02,-100.85l406.88 1.34m-728.73 2327.18l-229.77 -34.96 209.79 164.84 -81.59 257.63 176.49 -162.73 144.86 169.83 -4.66 -274.73 241.94 -157.33 -227.28 27.46 219.78 -1913.1 -449.56 1923.09z" />
   </g>
   <polygon
   class="fil0 str0"
   points="10452.64,5199.2 10858.9,5199.2 10384.03,7860.27 10951.25,7860.27 10863.45,8352.42 9889.41,8352.42 "
   id="polygon32" />
   <path
   class="fil0 str0"
   d="M12388.88 5181.59c161.5,0 263.33,32.27 306.6,96.81 20.71,30.25 32.11,75.98 34.74,137.83 2.93,68.58 -5.04,155.31 -24.43,260.19l-385.58 2164.9c-35.44,196.99 -85.91,328.11 -151.92,393.99 -66.04,65.21 -180.08,98.15 -342.69,98.15l-813 2.02 563.19 -3153.89 813.09 0zm-89.91 494.83l-406.27 0 -385.49 2166.92 406.19 -2.02 385.57 -2164.9z"
   id="path34" />
   <path
   class="fil0 str0"
   d="M2003.95 5223.78l209.03 0c14.97,-11.17 -81.83,0 125.65,0l83.67 0c83.67,0 134.75,25.62 153.79,76.18 10,26.32 15.83,55.4 17.22,87.27 1.23,28.39 -1.18,58.52 -6.93,90.38l-243.52 1369.6 -260.44 -7.71 248.38 -1361.89 -134.5 0 -243.52 1367.04 -237.3 2.56 288.47 -1623.43z"
   id="path36" />
   <polygon
   class="fil0 str0"
   points="2887.43,5218.82 3432.8,5218.82 3393.5,5473.22 3052.01,5473.43 2970.45,5930.21 3345.72,5782.55 3312.74,5996.01 2955.25,6140.09 2869.49,6573.36 3223.6,6573.07 3181.26,6847.22 2598.08,6847.22 "
   id="polygon38" />
   <path
   class="fil0 str0"
   d="M3901.36 6770.8c-24.33,51.07 -65.84,76.42 -125.14,76.42l-177.28 0c-88.64,0 -144.17,-17.02 -166.88,-51.06 -11.61,-15.98 -17.83,-39.95 -19.23,-71.21 -1.55,-34.38 2.53,-78.15 12.56,-130.95l259.14 -1375.18 221.45 0 -258.84 1375.18 177.28 0 258.85 -1375.18 221.75 0 -259.14 1375.18 177.29 0 259.14 -1375.18 221.45 0 -259.19 1374.14c-19.01,101.77 -46.53,169.51 -82.5,203.55 -36.01,33.69 -98.17,50.71 -186.81,50.71l-177.28 0c-59.3,0 -91.3,-25.35 -96.62,-76.42z"
   id="path40" />
  </g>
  <g
   id="g79">
   <path
   class="fil2 str1"
   d="M5563.2 8177.49c-45.19,98.83 -122.29,147.9 -232.42,147.9l-329.28 0c-164.63,0 -267.77,-32.94 -309.93,-98.83 -21.57,-30.93 -33.13,-77.32 -35.73,-137.82 -2.87,-66.56 4.7,-151.27 23.32,-253.47l481.31 -2661.75 411.31 0 -480.74 2661.75 329.27 0 480.75 -2661.75 411.86 0 -481.3 2661.75 329.27 0 481.31 -2661.75 411.31 0 -481.39 2659.73c-35.32,196.99 -86.42,328.11 -153.24,393.99 -66.87,65.21 -182.32,98.15 -346.96,98.15l-329.28 0c-110.13,0 -169.56,-49.07 -179.44,-147.9z"
   id="path43" />
   <path
   class="fil2 str1"
   d="M656.31 2375.89c34.79,-195.75 85.14,-326.95 151.63,-393.55 66.51,-65.92 180.49,-99.57 341.94,-100.92l406.89 1.35c161.5,0 263.35,32.3 306.67,96.87 20.74,30.28 32.17,76.04 34.85,137.92 2.98,68.62 -5.22,155.38 -24.21,260.36l-38.69 213.83 -506.02 262.46 72.04 -478.32 -321.35 0 -143.69 913.23 859.2 -469.87 -305.34 1722.93c-35.34,195.75 -85.73,326.28 -152.21,392.88 -66.49,66.6 -180.47,100.23 -341.91,101.58l-406.91 -2.01c-161.51,0 -263.37,-32.3 -306.13,-96.88 -21.27,-29.61 -32.73,-76.02 -35.41,-137.91 -2.94,-67.95 4.06,-154.9 24.23,-259.69l58.7 -304.98 466.02 -176.97 -72.01 449.01 276.39 -2.49 165.3 -893.68 -807.96 440.02 297.98 -1675.17z"
   id="path45" />
   <polygon
   class="fil2 str1"
   points="1947.31,5036.67 2420.05,2374.76 1971.7,2376.79 2060.63,1881.43 3377.67,1881.43 3288.72,2376.79 2850.27,2376.79 2408.53,5031.67 "
   id="polygon47" />
   <polygon
   class="fil2 str1"
   points="9468.69,1881.43 10525.42,1881.43 10449.27,2374.37 9787.59,2374.76 9629.54,3259.83 10356.68,2973.73 10292.79,3387.34 9600.09,3666.51 9433.93,4506.03 10120.07,4505.47 10038.02,5036.67 8908.03,5036.67 "
   id="polygon49" />
   <path
   class="fil2 str1"
   d="M7195.47 1881.42l83.33 0c162.62,0 261.9,49.82 298.91,148.07 19.43,51.16 30.77,107.69 33.46,169.62 2.39,55.19 -2.29,113.74 -13.47,175.65l-473.29 2661.91 -506.17 -14.99 482.73 -2646.92 -261.4 0 -473.3 2656.92 -461.21 4.99 560.66 -3155.25 262.7 0 467.05 0z"
   id="path51" />
   <path
   class="fil2 str1"
   d="M5322.83 2374.76l-192.93 1076.89 381.14 -161.39 168.1 -915.5 -356.31 0zm-406.26 0c34.72,-197.19 85.07,-328.44 151.04,-394.39 65.95,-65.96 179.97,-98.94 342.58,-98.94l406.83 0c162.61,0 265.05,32.98 308.43,98.94 19.68,31.63 30.58,78.07 33.27,139.98 2.92,67.32 -4.5,152.11 -22.81,254.41l-473.29 2661.91 -471.2 -4.99 228.2 -1334.65 -315.14 132.11 -200 1207.53 -461.21 0 473.3 -2661.91z"
   id="path53" />
   <path
   class="fil2 str1"
   d="M4207.45 2374.76l-311.36 0 -193.01 1054.9 356.24 -144.42 148.13 -910.48zm-361.11 1384.73l-203.05 96.94 -220.49 1180.24 -406.27 0 560.66 -3155.24 813.09 0c162.61,0 265.05,32.98 308.43,98.94 19.68,31.63 30.59,78.07 33.28,139.98 2.91,67.32 -4.51,152.11 -22.82,254.41l-123.22 689.88c-35.19,197.09 -82.43,397.23 -201.64,462.33l-129.09 70.51 35.61 1439.19 -461.21 0 16.72 -1277.18z"
   id="path55" />
   <path
   class="fil2 str1"
   d="M8690.33 4544.2c-31.87,197.65 -85.46,328.49 -151.59,394.24 -65.8,65.42 -180,98.21 -342.61,98.21l-406.82 0c-162.62,0 -264.51,-32.96 -306.22,-98.89 -21.32,-30.96 -32.77,-77.37 -35.41,-137.91 -2.88,-66.61 4.53,-151.37 22.84,-253.64l385.82 -2170.31c34.78,-195.75 85.13,-326.95 151.62,-393.55 66.52,-65.92 180.5,-99.57 341.94,-100.92l406.89 1.35c161.5,0 263.35,32.3 306.68,96.87 20.74,30.28 32.16,76.04 34.85,137.92 2.97,68.63 -3.42,155.71 -24.21,260.36l-53.69 270.02 -491.03 216.27 74.55 -488.32 -281.4 0 -365.27 2120.35 335.71 -3.35 164.22 -957.39 -148.31 57.68 60.9 -386.54 575.89 -245.12 -255.35 1582.67z"
   id="path57" />
   <path
   class="fil2 str1"
   d="M12875.12 5666.31c34.78,-195.75 85.13,-326.95 151.62,-393.55 66.51,-65.92 180.5,-99.56 341.94,-100.91l406.89 1.35c161.5,0 263.35,32.29 306.68,96.86 20.73,30.29 32.17,76.04 34.85,137.92 2.97,68.62 -5.22,155.38 -24.22,260.36l-38.69 213.83 -506.02 262.46 72.04 -478.32 -321.35 0 -143.68 913.23 859.2 -469.87 -305.35 1722.93c-35.33,195.75 -85.73,326.28 -152.2,392.88 -66.5,66.6 -180.48,100.24 -341.92,101.58l-406.91 -2.01c-161.51,0 -263.37,-32.3 -306.13,-96.88 -21.27,-29.6 -32.73,-76.02 -35.41,-137.91 -2.94,-67.95 4.06,-154.9 24.23,-259.69l58.7 -304.98 466.03 -176.97 -72.02 449.01 276.39 -2.49 165.3 -893.68 -807.96 440.02 297.99 -1675.17z"
   id="path59" />
   <path
   class="fil2 str1"
   d="M9475.22 5665.14l-311.36 0 -193.01 1054.89 356.23 -144.41 148.14 -910.48zm-361.12 1384.72l-203.04 96.94 -220.5 1180.24 -406.26 0 560.65 -3155.24 813.09 0c162.61,0 265.05,32.98 308.44,98.94 19.68,31.63 30.58,78.07 33.27,139.99 2.92,67.31 -4.5,152.1 -22.82,254.41l-123.22 689.88c-35.19,197.08 -82.42,397.22 -201.63,462.33l-129.1 70.5 35.62 1439.19 -461.22 0 16.72 -1277.18z"
   id="path61" />
   <g
   id="g67">
    <path
   class="fil2"
   d="M8166.15 5174.19c161.5,0 263.33,32.27 306.6,96.81 20.71,30.25 32.11,75.98 34.74,137.83 2.93,68.58 -5.04,155.31 -24.43,260.19l-385.58 2164.9c-35.44,196.99 -85.91,328.11 -151.92,393.99 -66.04,65.21 -180.08,98.15 -342.69,98.15l-406.82 0c-162.62,0 -264.49,-32.94 -306.13,-98.83 -21.31,-30.93 -32.72,-77.32 -35.3,-137.82 -2.83,-66.56 4.65,-151.27 23.04,-253.47l387.64 -2168.94c34.94,-195.64 85.4,-326.75 151.95,-393.3 66.57,-65.89 180.57,-99.51 342.02,-100.85l406.88 1.34 0 0zm-728.73 2327.18l-229.77 -34.97 209.79 164.84 -81.58 257.64 176.49 -162.73 144.85 169.82 -4.66 -274.72 241.94 -157.34 -227.28 27.47 219.78 -1913.11 -449.56 1923.1z"
   id="path63" />
    <path
   id="path65"
   class="fil1 str1"
   d="M8166.15 5174.19c161.5,0 263.33,32.27 306.6,96.81 20.71,30.25 32.11,75.98 34.74,137.83 2.93,68.58 -5.04,155.31 -24.43,260.19l-385.58 2164.9c-35.44,196.99 -85.91,328.11 -151.92,393.99 -66.04,65.21 -180.08,98.15 -342.69,98.15l-406.82 0c-162.62,0 -264.49,-32.94 -306.13,-98.83 -21.31,-30.93 -32.72,-77.32 -35.3,-137.82 -2.83,-66.56 4.65,-151.27 23.04,-253.47l387.64 -2168.94c34.94,-195.64 85.4,-326.75 151.95,-393.3 66.57,-65.89 180.57,-99.51 342.02,-100.85l406.88 1.34m-728.73 2327.18l-229.77 -34.97 209.79 164.84 -81.58 257.64 176.49 -162.73 144.85 169.82 -4.66 -274.72 241.94 -157.34 -227.28 27.47 219.78 -1913.11 -449.56 1923.1z" />
   </g>
   <polygon
   class="fil2 str1"
   points="10404.12,5172.85 10810.38,5172.85 10335.51,7833.92 10902.73,7833.92 10814.93,8326.06 9840.89,8326.06 "
   id="polygon69" />
   <path
   class="fil2 str1"
   d="M12340.36 5155.23c161.5,0 263.33,32.28 306.6,96.81 20.71,30.26 32.11,75.98 34.74,137.84 2.93,68.58 -5.04,155.31 -24.43,260.19l-385.58 2164.89c-35.44,197 -85.91,328.11 -151.92,394 -66.04,65.21 -180.08,98.15 -342.69,98.15l-813 2.02 563.19 -3153.9 813.09 0zm-89.91 494.84l-406.27 0 -385.48 2166.91 406.18 -2.02 385.57 -2164.89z"
   id="path71" />
   <path
   class="fil2 str1"
   d="M2294.07 5197.42l79.71 0c83.67,0 134.75,25.63 153.8,76.18 9.99,26.33 15.83,55.41 17.21,87.27 1.23,28.4 -1.18,58.53 -6.93,90.37l-243.51 1369.62 -260.45 -7.72 248.38 -1361.9 -134.5 0 -243.52 1367.05 -237.3 2.57 288.47 -1623.44 121.36 0 217.28 0z"
   id="path73" />
   <polygon
   class="fil2 str1"
   points="2838.91,5192.47 3384.28,5192.47 3344.98,5446.87 3003.49,5447.07 2921.93,5903.85 3297.2,5756.2 3264.23,5969.66 2906.73,6113.74 2820.97,6547.01 3175.08,6546.72 3132.74,6820.87 2549.56,6820.87 "
   id="polygon75" />
   <path
   class="fil2 str1"
   d="M3852.84 6744.45c-24.33,51.06 -65.84,76.41 -125.14,76.41l-177.28 0c-88.64,0 -144.17,-17.02 -166.87,-51.06 -11.62,-15.98 -17.84,-39.94 -19.24,-71.2 -1.55,-34.39 2.53,-78.15 12.56,-130.96l259.14 -1375.18 221.45 0 -258.84 1375.18 177.29 0 258.84 -1375.18 221.75 0 -259.14 1375.18 177.29 0 259.14 -1375.18 221.45 0 -259.19 1374.14c-19.01,101.78 -46.53,169.51 -82.5,203.56 -36,33.68 -98.17,50.7 -186.81,50.7l-177.28 0c-59.3,0 -91.3,-25.35 -96.62,-76.41z"
   id="path77" />
  </g>
  <g
   id="g117">
   <g
   id="g97">
    <path
   class="fil3 str2"
   d="M6299.83 267.39c113.11,-5.31 162.36,45.57 147.9,153.07 -134.05,653.7 -176.42,860.34 -189.82,925.64 -51.83,0 -106.78,0 -165,0 12.52,-61.13 40.2,-196.07 101.27,-493.88 -61.68,27.64 -117.13,52.48 -166.98,74.83 -54.14,264.06 -76.61,373.61 -85.93,419.05 -52.62,0 -107.58,0 -165,0.01 17.59,-85.79 63.87,-311.45 185.53,-904.76 26.2,-113.73 91.06,-171.74 194.52,-174.06 50.27,0.01 98.07,0.01 143.51,0.1zm-235.32 477.77c49.78,-22.34 105.22,-47.18 166.97,-74.83 15.49,-75.52 32.59,-158.92 51.47,-251 -47.74,0 -98.22,0.01 -151.63,0.03l-66.81 325.8z"
   id="path81" />
    <path
   class="fil3 str2"
   d="M5061.99 853.22c-161.22,72.21 -274.52,122.97 -354.18,158.68 28.77,-140.35 69.49,-338.88 127.06,-619.62 20.44,-84.12 61.04,-125.66 121.76,-124.8 98.16,-0.2 192.01,-0.2 281.72,-0.2l-1.22 -0.08c66.23,4.18 96.14,37.23 89.71,99.14 -8.82,42.99 -17.24,84.11 -25.3,123.43 -65.92,29.54 -126.34,56.61 -181.72,81.43 9.8,-47.75 20.17,-98.32 31.15,-151.89 -50.87,0 -103.07,0 -156.62,0.02 -25.54,124.49 -47.58,231.97 -66.61,324.73 94.09,-42.16 210.39,-94.27 354.18,-158.67 -63.35,308.97 -101.48,494.85 -124.68,606.58 -18.01,103.9 -60.63,155.29 -128.13,154.11l4.68 0c-55.15,0 -143.34,0 -284.34,-0.23 -66.26,-4.4 -96.16,-37.45 -89.76,-99.32 7.55,-36.78 17.76,-86.57 31.58,-153.97 53.07,-23.79 113.31,-50.78 181.69,-81.42 -16.24,79.23 -28.45,138.79 -37.63,183.54 72.02,-0.01 121.98,-0.01 156.62,0.03l70.04 -341.49z"
   id="path83" />
    <path
   class="fil3 str2"
   d="M5526.63 1346.08c-53.21,0 -108.18,0 -165.01,0 16.58,-80.84 62.56,-305.04 190.06,-926.77 -59.95,0 -122.21,0 -186.86,0.02 9.55,-46.57 19.92,-97.14 31.18,-152.05 204.33,0 385.29,0 545.56,0 -11.26,54.9 -21.63,105.45 -31.18,152.03 -61.39,0 -125.9,0 -193.69,0.01l-190.06 926.76z"
   id="path85" />
    <path
   class="fil3 str2"
   d="M6923.59 267.28c66.24,4.19 96.15,37.24 89.73,99.12 -32.13,156.63 -59,287.72 -81.5,397.42 -58.75,26.31 -112.59,50.42 -161.9,72.51 52.77,216.26 93.29,382.31 124.38,509.76 -49.02,-0.01 -108.51,-0.01 -180.69,-0.01 -28.26,-115.86 -63.25,-259.28 -106.57,-436.77 -8.97,4.01 -17.7,7.92 -26.21,11.73 -33.97,165.75 -62.76,306.14 -87.14,425.04 -50.55,0 -105.15,0 -164.12,0l-0.35 -2.58c0,0 0,0 220.7,-1076.22 162.94,0 283.88,0 373.67,0zm-306.18 475.48c50.34,-22.56 106.55,-47.74 169.27,-75.83 15.21,-74.15 32.08,-156.41 50.79,-247.64 -43.94,0.02 -94.81,0.02 -153.73,0.02l-66.33 323.45z"
   id="path87" />
    <path
   class="fil3 str2"
   d="M8830.32 419.27c97.76,0.04 186.02,0.04 265.7,0.04 11.95,-58.26 22.24,-108.4 31.07,-151.52 -84.26,0.02 -178.11,0.02 -282.76,0.01 -95.48,5.91 -156.27,61.81 -182.36,167.71 -41.5,202.42 -101.11,493.1 -186.72,910.56 162.66,0.01 305.43,0.01 430.73,0.01 10.76,-52.5 21.1,-102.94 31.04,-151.42 -76.85,0.01 -164.89,0.01 -265.7,-0.02 19.25,-93.9 37.12,-181 53.65,-261.79 77.33,-34.64 173.37,-77.66 292.62,-131.11 13.89,-67.71 26.6,-129.68 38.21,-186.4 -117.9,52.81 -214.11,95.91 -292.57,131.07l67.09 -327.14z"
   id="path89" />
    <path
   class="fil3 str2"
   d="M7616.67 1346.08c-53.21,0 -108.2,0 -165.02,0 16.58,-80.84 62.56,-305.04 190.06,-926.77 -59.95,0 -122.2,0 -186.86,0.02 9.54,-46.57 19.92,-97.14 31.17,-152.05 204.34,0 385.3,0 545.56,0 -11.25,54.9 -21.63,105.45 -31.17,152.03 -61.39,0 -125.9,0 -193.69,0.01l-190.05 926.76z"
   id="path91" />
    <path
   class="fil3 str2"
   d="M8453.92 267.28c66.24,4.2 96.14,37.24 89.72,99.13 -32.11,156.62 -59,287.72 -81.49,397.41 -58.74,26.31 -112.59,50.43 -161.91,72.52 52.79,216.26 93.29,382.3 124.39,509.75 -49.02,-0.01 -108.51,-0.01 -180.69,-0.01 -28.26,-115.86 -63.26,-259.28 -106.57,-436.77 -8.97,4.01 -17.7,7.93 -26.21,11.74 -33.97,165.74 -62.76,306.13 -87.14,425.03 -50.55,0 -105.15,0 -164.13,0l-0.35 -2.57c0,0 0,0 220.71,-1076.23 162.93,0 283.88,0 373.67,0zm-306.18 475.48c50.34,-22.56 106.55,-47.73 169.27,-75.83 15.21,-74.15 32.07,-156.4 50.78,-247.64 -43.93,0.02 -94.81,0.02 -153.72,0.03l-66.33 323.44z"
   id="path93" />
    <path
   class="fil3 str2"
   d="M9272.29 682.44c101.87,-162.04 187.94,-298.95 260.67,-414.64 72.93,0.01 129.96,0.01 174.54,0 -68.96,109.67 -158.94,252.81 -276.36,439.59 49.49,284.87 85.2,490.41 110.97,638.7 -49.88,-0.01 -109.2,-0.01 -179.76,-0.01 -18.92,-108.91 -42.55,-244.89 -72.04,-414.68 -32.48,51.67 -66.62,105.98 -102.49,163.01 -16.16,78.82 -33.35,162.6 -51.62,251.67 -51.01,0 -105.91,0 -165,-0.02 109.53,-534.09 178.13,-868.67 221.12,-1078.26 60.22,0.01 115.05,0.01 164.99,0.01l-85.02 414.63z"
   id="path95" />
   </g>
   <g
   id="g115">
    <path
   class="fil4 str2"
   d="M6286.6 259.46c113.11,-5.31 162.36,45.57 147.9,153.07 -134.05,653.7 -176.42,860.34 -189.82,925.64 -51.83,0 -106.78,0 -165,0 12.52,-61.13 40.2,-196.07 101.27,-493.88 -61.68,27.64 -117.13,52.48 -166.98,74.83 -54.14,264.06 -76.61,373.61 -85.93,419.05 -52.62,0 -107.58,0 -165,0.01 17.59,-85.79 63.87,-311.45 185.53,-904.76 26.2,-113.73 91.06,-171.74 194.52,-174.06 50.27,0.01 98.07,0.01 143.51,0.1zm-235.32 477.77c49.78,-22.34 105.22,-47.18 166.97,-74.83 15.49,-75.52 32.59,-158.92 51.47,-251 -47.74,0 -98.22,0.01 -151.63,0.03l-66.81 325.8z"
   id="path99" />
    <path
   class="fil4 str2"
   d="M5048.76 845.29c-161.22,72.21 -274.52,122.97 -354.18,158.68 28.77,-140.35 69.49,-338.88 127.06,-619.62 20.44,-84.12 61.04,-125.66 121.76,-124.8 98.16,-0.2 192.01,-0.2 281.72,-0.2l-1.22 -0.08c66.23,4.18 96.14,37.23 89.71,99.14 -8.82,42.99 -17.24,84.11 -25.3,123.43 -65.92,29.54 -126.34,56.61 -181.72,81.43 9.8,-47.75 20.17,-98.32 31.15,-151.89 -50.87,0 -103.07,0 -156.62,0.02 -25.54,124.49 -47.58,231.97 -66.61,324.73 94.09,-42.16 210.39,-94.27 354.18,-158.67 -63.35,308.97 -101.48,494.85 -124.68,606.58 -18.01,103.9 -60.63,155.29 -128.13,154.11l4.68 0c-55.15,0 -143.34,0 -284.34,-0.23 -66.26,-4.4 -96.16,-37.45 -89.76,-99.32 7.55,-36.78 17.76,-86.57 31.58,-153.97 53.07,-23.79 113.31,-50.78 181.69,-81.42 -16.24,79.23 -28.45,138.79 -37.63,183.54 72.02,-0.01 121.98,-0.01 156.62,0.03l70.04 -341.49z"
   id="path101" />
    <path
   class="fil4 str2"
   d="M5513.4 1338.15c-53.21,0 -108.18,0 -165.01,0 16.58,-80.84 62.56,-305.04 190.06,-926.77 -59.95,0 -122.21,0 -186.86,0.02 9.55,-46.57 19.92,-97.14 31.18,-152.05 204.33,0 385.29,0 545.56,0 -11.26,54.9 -21.63,105.45 -31.18,152.03 -61.39,0 -125.9,0 -193.69,0.01l-190.06 926.76z"
   id="path103" />
    <path
   class="fil4 str2"
   d="M6910.36 259.35c66.24,4.19 96.15,37.24 89.73,99.12 -32.13,156.63 -59,287.72 -81.5,397.42 -58.75,26.31 -112.59,50.42 -161.9,72.51 52.77,216.26 93.29,382.31 124.38,509.76 -49.02,-0.01 -108.51,-0.01 -180.69,-0.01 -28.26,-115.86 -63.25,-259.28 -106.57,-436.77 -8.97,4.01 -17.7,7.92 -26.21,11.73 -33.97,165.75 -62.76,306.14 -87.14,425.04 -50.55,0 -105.15,0 -164.12,0l-0.35 -2.58c0,0 0,0 220.7,-1076.22 162.94,0 283.88,0 373.67,0zm-306.18 475.48c50.34,-22.56 106.55,-47.74 169.27,-75.83 15.21,-74.15 32.08,-156.41 50.79,-247.64 -43.94,0.02 -94.81,0.02 -153.73,0.02l-66.33 323.45z"
   id="path105" />
    <path
   class="fil4 str2"
   d="M8817.09 411.34c97.76,0.04 186.02,0.04 265.7,0.04 11.95,-58.26 22.24,-108.4 31.07,-151.52 -84.26,0.02 -178.11,0.02 -282.76,0.01 -95.48,5.91 -156.27,61.81 -182.36,167.71 -41.5,202.42 -101.11,493.1 -186.72,910.56 162.66,0.01 305.43,0.01 430.73,0.01 10.76,-52.5 21.1,-102.94 31.04,-151.42 -76.85,0.01 -164.89,0.01 -265.7,-0.02 19.25,-93.9 37.12,-181 53.65,-261.79 77.33,-34.64 173.37,-77.66 292.62,-131.11 13.89,-67.71 26.6,-129.68 38.21,-186.4 -117.9,52.81 -214.11,95.91 -292.57,131.07l67.09 -327.14z"
   id="path107" />
    <path
   class="fil4 str2"
   d="M7603.44 1338.15c-53.21,0 -108.2,0 -165.02,0 16.58,-80.84 62.56,-305.04 190.06,-926.77 -59.95,0 -122.2,0 -186.86,0.02 9.54,-46.57 19.92,-97.14 31.17,-152.05 204.34,0 385.3,0 545.56,0 -11.25,54.9 -21.63,105.45 -31.17,152.03 -61.39,0 -125.9,0 -193.69,0.01l-190.05 926.76z"
   id="path109" />
    <path
   class="fil4 str2"
   d="M8440.69 259.35c66.24,4.2 96.14,37.24 89.72,99.13 -32.11,156.62 -59,287.72 -81.49,397.41 -58.74,26.31 -112.59,50.43 -161.91,72.52 52.79,216.26 93.29,382.3 124.39,509.75 -49.02,-0.01 -108.51,-0.01 -180.69,-0.01 -28.26,-115.86 -63.26,-259.28 -106.57,-436.77 -8.97,4.01 -17.7,7.93 -26.21,11.74 -33.97,165.74 -62.76,306.13 -87.14,425.03 -50.55,0 -105.15,0 -164.13,0l-0.35 -2.57c0,0 0,0 220.71,-1076.23 162.93,0 283.88,0 373.67,0zm-306.18 475.48c50.34,-22.56 106.55,-47.73 169.27,-75.83 15.21,-74.15 32.07,-156.4 50.78,-247.64 -43.93,0.02 -94.81,0.02 -153.72,0.03l-66.33 323.44z"
   id="path111" />
    <path
   class="fil4 str2"
   d="M9259.06 674.51c101.87,-162.04 187.94,-298.95 260.67,-414.64 72.93,0.01 129.96,0.01 174.54,0 -68.96,109.67 -158.94,252.81 -276.36,439.59 49.49,284.87 85.2,490.41 110.97,638.7 -49.88,-0.01 -109.2,-0.01 -179.76,-0.01 -18.92,-108.91 -42.55,-244.89 -72.04,-414.68 -32.48,51.67 -66.62,105.98 -102.49,163.01 -16.16,78.82 -33.35,162.6 -51.62,251.67 -51.01,0 -105.91,0 -165,-0.02 109.53,-534.09 178.13,-868.67 221.12,-1078.26 60.22,0.01 115.05,0.01 164.99,0.01l-85.02 414.63z"
   id="path113" />
   </g>
  </g>
 </g>
</svg>
