<?xml version="1.0" encoding="UTF-8" standalone="no"?>
<!DOCTYPE svg PUBLIC "-//W3C//DTD SVG 1.1//EN" "http://www.w3.org/Graphics/SVG/1.1/DTD/svg11.dtd">
<!-- Created with Vectornator (http://vectornator.io/) -->
<svg height="100%" stroke-miterlimit="10" style="fill-rule:nonzero;clip-rule:evenodd;stroke-linecap:round;stroke-linejoin:round;" version="1.1" viewBox="21.9967 20.5001 717.001 209.501" width="100%" xml:space="preserve" xmlns="http://www.w3.org/2000/svg" xmlns:vectornator="http://vectornator.io" xmlns:xlink="http://www.w3.org/1999/xlink">
<defs/>
<g id="Untitled" vectornator:layerName="Untitled">
<path d="M22 90.589C22 89.8062 22.8827 87.1065 23.9615 84.5896L25.9225 80.0136L95.7115 79.7566L165.5 79.4996L165.34 76.1046C165.162 72.4156 162.84 68.7144 158.821 65.7136C157.414 64.6631 149.219 61.6428 140.61 59.0016C123.447 53.7363 120.853 52.4418 117.959 47.6956C115.248 43.2494 115.283 33.6926 118.027 29.1916C121.868 22.892 125.661 22.0465 150.194 22.0217C162.124 22.0096 172.117 22.3759 172.402 22.8357C172.687 23.2954 171.585 26.4924 169.955 29.94C167.492 35.1476 166.695 36.0651 165.247 35.3617C163.261 34.3968 133.675 33.6145 130.386 34.4399C127.449 35.1771 126.641 37.7971 128.484 40.6097C129.656 42.3989 133.686 44.1085 145.893 47.995C162.947 53.4249 168.283 56.3927 172.405 62.742C176.031 68.3263 177.165 73.536 176.817 83L176.497 91.5L99.2467 91.756C32.9777 91.976 21.9967 91.81 21.9967 90.589L22 90.589ZM197.54 91.0661C197.192 90.5024 197.385 89.1472 197.97 88.0547C198.663 86.7598 198.94 77.0897 198.766 60.2837L198.496 34.4997L188.246 34.2147C181.997 34.0409 177.173 34.3699 175.889 35.0573C171.982 37.1484 171.638 34.6529 174.935 28.123L178.025 21.999L207.505 21.999C225.925 21.999 236.995 22.364 236.995 22.97C236.995 24.7262 232.244 34.727 231.062 35.457C230.427 35.8498 229.295 35.6635 228.548 35.043C227.709 34.3468 223.993 34.0267 218.841 34.2069L210.491 34.4989L210.321 62.9989L210.149 91.4989L204.159 91.7944C200.813 91.9594 197.888 91.6373 197.535 91.065L197.54 91.0661ZM216 91.1851C216 89.1201 252.04 20.5001 253.12 20.5001C254.305 20.5001 289.856 88.3571 289.947 90.794C289.983 91.7638 288.18 92.0143 282.746 91.794C275.955 91.5189 275.515 91.3627 275.795 89.3303C276.105 87.0844 266.612 67.0653 264.621 65.7653C262.841 64.6031 249.086 64.8814 246.759 66.1266C245.068 67.0316 244.418 66.9311 243.456 65.6156C241.904 63.4928 241.583 63.9176 235.06 76.7066C232.087 82.5369 229.992 87.8966 230.175 89.2066C230.481 91.3947 230.162 91.5139 223.246 91.7942C219.256 91.9552 215.996 91.6812 215.996 91.1852L216 91.1851ZM257 51.4501C257 49.2961 254.15 44.0001 252.99 44.0001C252.16 44.0001 248 51.0401 248 52.4601C248 52.757 250.02 53.0001 252.5 53.0001C255.897 53.0001 257 52.6204 257 51.4504L257 51.4501ZM295.541 91.0661C295.193 90.5024 295.397 89.1262 295.996 88.0079C297.035 86.066 296.972 29.4279 295.925 24.4999C295.515 22.5708 296.102 22.4892 312.5 22.1968C331.915 21.8506 335.517 22.5469 339.853 27.4849C343.655 31.8156 345.612 38.0408 343.633 39.5109C341.229 41.2964 334.295 47.7138 333.662 48.7389C333.324 49.2845 335.195 51.0651 337.818 52.6957C346.79 58.273 352.192 69.8737 352.393 83.9977L352.493 91.4997L346.493 91.4997C341.64 91.4997 340.573 91.2129 340.912 89.9997C343.146 82.0099 340.78 71.9866 335.203 65.8056C330.783 60.9096 326.663 58.9997 320.523 58.9997C317.353 58.9997 315.993 58.5877 315.993 57.6307C315.993 56.8777 319.818 52.6721 324.493 48.2848C329.168 43.8974 332.993 39.7885 332.993 39.1538C332.993 38.519 332.077 37.0842 330.958 35.9651C329.134 34.1412 327.866 33.96 318.708 34.2151L308.488 34.5001L308.318 63.0001L308.146 91.5001L302.155 91.7955C298.81 91.9605 295.885 91.6385 295.531 91.0662L295.541 91.0661ZM412.961 91.2976C412.941 90.8586 412.831 77.8996 412.711 62.4996L412.501 34.4996L402.001 34.5606C396.226 34.594 390.489 34.984 389.251 35.4273C386.271 36.4933 386.391 34.9913 389.811 27.9993L392.501 22.4993L421.431 22.2333C437.351 22.0873 450.731 22.3273 451.171 22.7663C452.281 23.8763 446.391 35.9993 444.741 35.9993C444.003 35.9993 442.929 35.5299 442.356 34.9563C441.747 34.3472 437.815 34.0352 432.906 34.2063L424.506 34.4993L424.566 60.9993C424.596 75.5743 424.821 88.3993 425.066 89.4993C425.468 91.3106 424.92 91.5274 419.26 91.797C415.822 91.9607 412.993 91.7357 412.973 91.297L412.961 91.2976ZM455.538 91.0661C455.19 90.5024 455.388 89.1373 455.98 88.0327C457.016 86.0962 456.977 29.2387 455.937 24.4997C455.513 22.572 456.087 22.4898 471.798 22.2247C481.554 22.06 489.76 22.3971 492.238 23.0643C497.44 24.4653 502.466 29.4115 503.876 34.5203L504.96 38.4474L498.856 43.9753L492.751 49.5032L497.792 52.7695C507.022 58.7503 512.187 69.7995 512.39 83.9965L512.49 91.4995L506.726 91.7998L500.961 92.1001L501.594 86.7132C503.304 72.1442 493.234 59.0892 480.234 59.0222C477.534 59.0082 475.984 58.5482 475.984 57.7632C475.984 57.0831 479.811 52.9205 484.489 48.5132C489.167 44.1059 492.992 39.9374 492.989 39.2499C492.986 38.5624 492.069 37.0843 490.95 35.9653C489.126 34.1414 487.857 33.9602 478.7 34.2153L468.49 34.5003L468.32 63.0003L468.147 91.5003L462.157 91.7958C458.811 91.9608 455.886 91.6387 455.533 91.0665L455.538 91.0661ZM530.805 90.5939C523.087 87.8379 516.124 79.6859 513.356 70.1639C510.907 61.7405 511.817 48.1889 515.347 40.4999C518.514 33.6007 523.743 27.7629 529.497 24.7029C533.098 22.7874 535.464 22.5364 553.247 22.1833C565.792 21.9342 572.997 22.1499 572.997 22.7746C572.997 24.3575 567.961 34.9036 566.888 35.5666C566.35 35.8995 565.268 35.6396 564.484 34.9892C563.49 34.1644 558.834 33.9114 549.099 34.1531C533.662 34.5363 531.885 35.1734 527.246 41.9895C522.763 48.5759 522.636 48.5328 545.655 48.2093C557.018 48.0496 566.686 48.2893 567.139 48.742C568.269 49.87 562.409 62 560.739 62C560.001 62 558.935 61.5388 558.372 60.975C557.73 60.3332 551.02 60.0528 540.422 60.225L523.502 60.5L523.791 63.5C524.246 68.212 528.3 75.284 531.959 77.75C535.084 79.8564 536.345 80 551.715 80C561.676 80 568.936 79.5703 570.174 78.9074C573.64 77.0522 573.88 79.2339 570.926 85.75L568.093 92L551.297 91.9561C540.033 91.9267 533.285 91.478 530.809 90.5939L530.805 90.5939ZM577.976 91.5477C577.966 91.2456 577.946 75.5876 577.936 56.7497L577.916 22.4997L584.207 22.4997C589.953 22.4997 590.466 22.6728 590.132 24.4997C589.222 29.4712 588.901 47.3026 589.706 48.1077C590.757 49.1593 605.945 28.8497 606.961 25.0317C607.599 22.6353 608.048 22.4835 615.316 22.2071C620.251 22.0194 622.997 22.2946 622.997 22.9767C622.997 23.5606 618.919 29.2319 613.934 35.5797C608.949 41.9273 605.012 47.5297 605.184 48.0287C605.356 48.5282 607.972 50.1884 610.997 51.718C617.645 55.0796 622.976 61.745 625.497 69.844C626.465 72.9543 627.639 76.5116 628.106 77.7491L628.955 79.9991L682.012 79.9991L735.069 79.9991L737.033 84.582C738.114 87.1026 738.998 89.8061 738.998 90.5897C738.998 91.81 730.209 91.9775 677.748 91.7568L616.498 91.4998L616.838 85.2871C617.67 70.0771 609.455 60.1761 595.317 59.3511L588.895 58.9761L589.282 73.2381C589.495 81.0822 589.856 88.4001 590.084 89.5001C590.458 91.3077 589.897 91.5287 584.248 91.7978C580.811 91.9615 577.989 91.849 577.977 91.5478L577.976 91.5477Z" fill="#96aebe" fill-rule="nonzero" opacity="1" stroke="none" vectornator:layerName="path"/>
<path d="M77.699 227.86C75.237 223.96 22 112.42 22 111.16C22 109.73 45.575 109.5 46.454 110.921C46.7685 111.43 46.511 112.976 45.8819 114.357C44.8515 116.618 46.4009 120.394 61.5049 152.432C70.7259 171.992 78.7999 187.992 79.4459 187.992C80.0919 187.992 88.174 172.263 97.4059 153.039C113.073 120.416 114.146 117.816 113.508 114.039L112.818 109.989L124.347 109.989C130.688 109.989 136.104 110.358 136.383 110.81C136.859 111.58 81.7009 227.49 79.9779 229.35C79.5391 229.821 78.5106 229.146 77.6925 227.85L77.699 227.86ZM169.5 228.59C146.82 224.18 129.95 208.77 123.42 186.5C121.255 179.112 120.971 162.773 122.872 155C125.481 144.332 130.638 135.299 138.852 127.008C150.786 114.963 163.3 110.044 182.089 110.015C211.494 109.97 234.143 126.692 241.002 153.511C249.405 186.366 231.263 219.087 199.954 227.547C191.965 229.706 177.731 230.195 169.499 228.594L169.5 228.59ZM191.114 210.991C204.199 208.549 214.491 200.514 220.336 188.176C223.331 181.855 223.498 180.88 223.455 169.996C223.418 160.432 223.025 157.522 221.121 152.711C217.931 144.653 209.638 135.927 201.238 131.792C195.492 128.964 193.429 128.503 184.966 128.163C173.427 127.7 166.063 129.452 158.379 134.489C145.036 143.234 138.351 159.354 140.995 176.402C142.596 186.726 146.22 193.948 153.082 200.494C163.226 210.17 176.251 213.765 191.113 210.992L191.114 210.991ZM267.38 228.543C267.073 227.744 267.537 226.068 268.411 224.821C269.751 222.921 270.001 219.031 270.001 200.381L270.001 178.209L264.49 170.526C261.458 166.301 250.659 151.449 240.49 137.522C230.32 123.592 222 111.702 222 111.092C222 110.342 226.33 109.992 235.44 109.992C248.694 109.992 251.681 110.71 249.112 113.279C248.5 113.891 247.999 114.983 247.999 115.705C247.999 117.114 275.115 155.014 277.596 157.073C278.475 157.802 279.423 157.936 279.913 157.4C280.37 156.901 286.888 147.372 294.397 136.226C305.857 119.216 307.886 115.651 307.024 114.042C304.964 110.182 305.604 109.972 319.494 109.972C329.722 109.972 332.994 110.279 332.994 111.238C332.994 111.935 323.107 126.672 311.021 143.988L289.041 175.468L289.046 199.468C289.05 218.89 289.328 223.834 290.502 225.386C293.241 229.005 290.788 229.968 278.833 229.968C270.214 229.968 267.807 229.663 267.366 228.515L267.38 228.543ZM301.465 228.939C300.605 227.549 364.565 110.499 366.185 110.499C367.776 110.499 431.367 227.609 430.52 228.979C430.15 229.569 425.3 229.999 418.91 229.999C409.531 229.999 407.843 229.754 407.289 228.309C406.927 227.366 407.162 226.445 407.82 226.226C410.1 225.466 408.816 222.339 398.697 203.999L388.489 185.499L371.724 185.225C361.22 185.053 354.214 185.349 352.965 186.018C349.557 187.841 349.593 184.75 353.06 177.853C359.09 165.873 358.93 165.993 368.58 165.993C373.218 165.993 377.006 165.656 376.998 165.243C376.969 163.736 367.327 146.598 366.318 146.262C365.746 146.071 355.525 163.54 343.604 185.08C323.228 221.9 322.028 224.353 323.569 226.056C324.47 227.052 324.912 228.346 324.551 228.93C323.67 230.355 302.357 230.36 301.477 228.936L301.465 228.939ZM465.195 228.924C455.47 227.662 448.988 225.433 442.112 220.989C429.677 212.952 420.768 200.59 417.54 186.893C415.378 177.724 415.572 162.999 417.978 153.592C420.778 142.645 425.367 134.628 433.544 126.401C441.419 118.477 451.665 112.705 460.889 110.995C463.839 110.455 479.479 110.005 495.629 110.005C521.209 110.005 524.989 110.205 524.989 111.525C524.989 113.309 515.371 130.654 513.866 131.584C513.3 131.934 511.953 131.273 510.874 130.114C509.033 128.138 507.91 128.009 492.701 128.028C464.811 128.062 456.702 130.231 447.564 140.101C439.413 148.904 437.53 154.52 437.53 170.008C437.53 180.855 437.846 183.3 439.922 188.501C443.178 196.656 451.391 204.853 459.497 208.038C465.078 210.23 466.901 210.396 485.99 210.451L506.49 210.509L506.762 191.759L507.035 173.009L488.421 173.009C471.305 173.009 469.601 173.17 467.258 175.014C465.297 176.556 464.391 176.756 463.336 175.88C462.203 174.94 462.866 173.059 467.127 165.125C469.968 159.836 472.787 155.174 473.391 154.765C473.996 154.356 486.191 154.131 500.491 154.265L526.491 154.509L526.991 189.107C527.384 216.257 527.784 224.058 528.853 225.344C529.602 226.246 529.954 227.664 529.635 228.496C529.133 229.802 525.12 229.991 500.273 229.882C484.443 229.812 468.653 229.387 465.184 228.936L465.195 228.924ZM573.005 228.854C554.905 226.354 539.125 210.884 533.385 190.004C530.685 180.179 530.919 160.981 533.865 150.539C538.633 133.638 548.493 120.836 561.813 114.25L569.39 110.504L603.695 110.194C625.905 109.994 637.995 110.234 637.995 110.874C637.995 112.225 629.208 130.19 627.92 131.473C627.211 132.179 626.328 131.762 625.106 130.145L623.326 127.789L599.411 128.265C572.598 128.799 570.257 129.259 563.327 135.359C555.113 142.59 549.943 154.029 550.058 164.72L550.12 170.502L552.035 166.502C553.088 164.302 554.612 160.815 555.421 158.752L556.894 155.002L592.386 155.002C611.907 155.002 628.088 155.342 628.345 155.758C628.754 156.42 621.828 172.401 619.679 175.752C618.569 177.483 615.996 177.322 615.996 175.521C615.996 174.706 614.983 173.793 613.746 173.491C612.508 173.189 597.771 173.068 580.996 173.222L550.496 173.502L550.171 176.908C549.708 181.757 553.495 192.67 557.596 198.304C561.818 204.105 568.455 208.506 575.144 209.94C577.927 210.537 591.346 210.992 605.796 210.98C629.766 210.96 631.666 210.82 633.996 209C636.915 206.717 638.996 206.441 638.996 208.338C638.996 209.075 636.76 214.25 634.027 219.838L629.057 229.998L604.277 229.878C590.647 229.808 576.577 229.348 572.997 228.848L573.005 228.854ZM641.41 228.613C641.102 227.811 641.335 226.25 641.928 225.143C643.367 222.453 643.442 115.383 642.005 114.503C641.455 114.163 641.005 113.012 641.005 111.944C641.005 110.065 641.982 110.003 671.639 110.003C692.413 110.003 703.55 110.386 706.241 111.192C711.821 112.864 719.289 119.911 721.892 125.962C726.27 136.14 726.512 135.506 714.097 146.423C708.007 151.783 703.017 156.333 703.017 156.533C703.017 156.731 706.173 158.551 710.03 160.578C718.857 165.216 726.685 173.502 731.449 183.247C736.864 194.323 738.386 201.546 738.456 216.501L738.516 229.501L729.516 229.501L720.516 229.501L720.858 227.001C721.047 225.626 721.418 221.271 721.685 217.324C722.854 200.007 713.696 182.441 699.831 175.402C695.557 173.232 692.706 172.608 685.267 172.216C679.252 171.899 676.017 171.327 676.017 170.58C676.017 169.948 682.354 163.61 690.099 156.497C697.844 149.383 704.594 142.791 705.099 141.848C706.787 138.694 706.126 134.02 703.642 131.537C700.517 128.411 695.904 127.833 677.016 128.2L661.516 128.502L661.601 176.502C661.647 202.902 661.872 225.627 662.101 227.002L662.516 229.502L652.248 229.787C643.99 230.016 641.871 229.787 641.421 228.615L641.41 228.613Z" fill="#efb200" fill-rule="nonzero" opacity="1" stroke="none" vectornator:layerName="path"/>
</g>
</svg>
